{
.appVersion = "895";
DisplayStrings = (
"nnannbnncnndnnenn\012nnfnngnnhnninnjnn\012nnknnlnnmnnonnpnn\012nnqnnrnnsnntnnunn\012nnvnnwnnxnnynnznn\012\012ooaooboocoodooeoo\012oofoogoohooioojoo\012ookooloomoonoopoo\012ooqooroosootoouoo\012oovoowooxooyoozoo\012\012nnAnnBnnCnn\012nnDnnEnnFnnGnnHnn\012nnInnJnnKnnLnnMnn\012nnNnnOnnPnnQnnRnn\012nnSnnTnnUnnVnnWnn\012nnXnnYnnZnn\012\012ooAooBooCoo\012ooDooEooFooGooHoo\012ooIooJooKooLooMoo\012ooNooOooPooQooRoo\012ooSooTooUooVooWoo\012ooXooYooZoo\012\012H H A H H T H H V H H W H H Y H H\012O O A O O T O O V O O W O O Y O O\012\012HAHBHCHDHEHFH\012HGHIHJHKHLHMHNH\012HNHOHPHQHRHSHTH\012HUHVHWHXHYHZH\012\012OAOBOCODOEOFO\012OGOHOIOJOKOLOMO\012ONOPOQOROSOTO\012OUOVOWOXOYOZO"
);
classes = (
{
automatic = 1;

glyphs = (
{
color = 4;
glyphname = A;
lastChange = "2016-07-29 19:44:24 +0000";
layers = (
{
anchors = (
{
name = bottom;
position = "{298, 0}";
},
{
name = ogonek;
position = "{554, 0}";
},
{
name = top;
position = "{298, 633}";
}
);
background = {
paths = (
{
closed = 0;
nodes = (
"555 21 LINE",
"303 612 LINE",
"293 612 LINE",
"41 21 LINE"
);
},
{
closed = 0;
nodes = (
"119 200 LINE",
"476 200 LINE"
);
}
);
};
layerId = "B309FD91-69BF-47D2-8142-D25EBE917F3C";
paths = (
{
closed = 1;
nodes = (
"61 13 CURVE",
"300 567 LINE",
"536 13 LINE SMOOTH",
"541 1 OFFCURVE",
"551 -3 OFFCURVE",
"563 2 CURVE SMOOTH",
"576 8 OFFCURVE",
"580 17 OFFCURVE",
"574 30 CURVE SMOOTH",
"324 617 LINE SMOOTH",
"319 628 OFFCURVE",
"312 633 OFFCURVE",
"300 633 CURVE SMOOTH",
"297 633 LINE SMOOTH",
"285 633 OFFCURVE",
"277 628 OFFCURVE",
"273 617 CURVE SMOOTH",
"22 30 LINE SMOOTH",
"17 17 OFFCURVE",
"21 8 OFFCURVE",
"33 2 CURVE SMOOTH",
"46 -3 OFFCURVE",
"56 1 OFFCURVE"
);
},
{
closed = 1;
nodes = (
"455 179 LINE SMOOTH",
"469 179 OFFCURVE",
"476 186 OFFCURVE",
"476 200 CURVE SMOOTH",
"476 214 OFFCURVE",
"469 221 OFFCURVE",
"455 221 CURVE SMOOTH",
"140 221 LINE SMOOTH",
"127 221 OFFCURVE",
"119 214 OFFCURVE",
"119 200 CURVE SMOOTH",
"119 186 OFFCURVE",
"127 179 OFFCURVE",
"140 179 CURVE SMOOTH"
);
}
);
width = 597;
},
{
anchors = (
{
name = bottom;
position = "{323, 0}";
},
{
name = ogonek;
position = "{560, 0}";
},
{
name = top;
position = "{324.022, 665}";
}
);
background = {
paths = (
{
closed = 0;
nodes = (
"586.785 4.631 LINE",
"328 629 LINE",
"318 629 LINE",
"60.538 2.56 LINE"
);
},
{
closed = 0;
nodes = (
"144 200 LINE",
"501 200 LINE"
);
}
);
};
layerId = "3776B938-A14A-42B9-91A8-ACB6A1608662";
paths = (
{
closed = 1;
nodes = (
"107.52 23.172 CURVE",
"321.305 551.131 LINE",
"540.744 23.104 LINE SMOOTH",
"549.724 1.495 OFFCURVE",
"566.168 -5.329 OFFCURVE",
"587.785 3.631 CURVE SMOOTH",
"609.402 12.591 OFFCURVE",
"616.236 29.062 OFFCURVE",
"607.258 50.672 CURVE SMOOTH",
"363.578 637.183 LINE SMOOTH",
"355.787 655.935 OFFCURVE",
"343.598 664.728 OFFCURVE",
"324.947 664.994 CURVE",
"323.022 665 LINE",
"303.381 665 OFFCURVE",
"290.271 656.201 OFFCURVE",
"282.413 637.115 CURVE SMOOTH",
"40.926 50.542 LINE SMOOTH",
"32.017 28.904 OFFCURVE",
"38.895 12.455 OFFCURVE",
"60.538 3.56 CURVE SMOOTH",
"82 -5 OFFCURVE",
"99 2 OFFCURVE"
);
},
{
closed = 1;
nodes = (
"495 164 LINE SMOOTH",
"518.4 164 OFFCURVE",
"531 176.6 OFFCURVE",
"531 200 CURVE SMOOTH",
"531 223.4 OFFCURVE",
"518.4 236 OFFCURVE",
"495 236 CURVE SMOOTH",
"150 236 LINE SMOOTH",
"126.6 236 OFFCURVE",
"114 223.4 OFFCURVE",
"114 200 CURVE SMOOTH",
"114 176.6 OFFCURVE",
"126.6 164 OFFCURVE",
"150 164 CURVE SMOOTH"
);
}
);
width = 646;
}
);
leftKerningGroup = A;
rightKerningGroup = A;
unicode = 0041;
},
{
color = 4;
glyphname = AE;
lastChange = "2016-07-29 19:26:19 +0000";
layers = (
{
anchors = (
{
name = bottom;
position = "{499, 0}";
},
{
name = top;
position = "{508, 633}";
}
);
background = {
paths = (
{
closed = 0;
nodes = (
"782 612 LINE",
"422 612 LINE",
"422 21 LINE",
"782 21 LINE"
);
},
{
closed = 0;
nodes = (
"422 321 LINE",
"664 321 LINE"
);
},
{
closed = 0;
nodes = (
"426 200 LINE",
"143 200 LINE"
);
},
{
closed = 0;
nodes = (
"41 21 LINE",
"375 612 LINE",
"422 612 LINE"
);
}
);
};
layerId = "B309FD91-69BF-47D2-8142-D25EBE917F3C";
paths = (
{
closed = 1;
nodes = (
"761 0 LINE SMOOTH",
"775 0 OFFCURVE",
"782 7 OFFCURVE",
"782 21 CURVE SMOOTH",
"782 35 OFFCURVE",
"775 42 OFFCURVE",
"761 42 CURVE SMOOTH",
"443 42 LINE",
"443 300 LINE",
"643 300 LINE SMOOTH",
"657 300 OFFCURVE",
"664 307 OFFCURVE",
"664 321 CURVE SMOOTH",
"664 335 OFFCURVE",
"657 342 OFFCURVE",
"643 342 CURVE SMOOTH",
"443 342 LINE",
"443 591 LINE",
"761 591 LINE SMOOTH",
"775 591 OFFCURVE",
"782 598 OFFCURVE",
"782 612 CURVE SMOOTH",
"782 626 OFFCURVE",
"775 633 OFFCURVE",
"761 633 CURVE SMOOTH",
"379 633 LINE SMOOTH",
"368 633 OFFCURVE",
"360 629 OFFCURVE",
"355 618 CURVE",
"24 32 LINE SMOOTH",
"17 20 OFFCURVE",
"20 10 OFFCURVE",
"32 3 CURVE SMOOTH",
"44 -4 OFFCURVE",
"54 -1 OFFCURVE",
"61 11 CURVE SMOOTH",
"156 180 LINE",
"401 179 LINE",
"401 21 LINE SMOOTH",
"401 7 OFFCURVE",
"408 0 OFFCURVE",
"422 0 CURVE SMOOTH"
);
},
{
closed = 1;
nodes = (
"387 591 LINE",
"401 591 LINE",
"401 221 LINE",
"179 221 LINE"
);
}
);
width = 817;
},
{
anchors = (
{
name = bottom;
position = "{528, 0}";
},
{
name = top;
position = "{529, 665}";
}
);
background = {
paths = (
{
closed = 0;
nodes = (
"457 200 LINE",
"167 200 LINE"
);
},
{
closed = 0;
nodes = (
"65 21 LINE",
"410 629 LINE",
"457 629 LINE"
);
},
{
closed = 0;
nodes = (
"798 629 LINE",
"457 629 LINE",
"457 36 LINE",
"798 36 LINE"
);
},
{
closed = 0;
nodes = (
"457 336 LINE",
"680 336 LINE"
);
}
);
};
layerId = "3776B938-A14A-42B9-91A8-ACB6A1608662";
paths = (
{
closed = 1;
nodes = (
"762 0 LINE SMOOTH",
"785 0 OFFCURVE",
"798 13 OFFCURVE",
"798 36 CURVE SMOOTH",
"798 59 OFFCURVE",
"785 72 OFFCURVE",
"762 72 CURVE SMOOTH",
"493 72 LINE",
"493 300 LINE",
"644 300 LINE SMOOTH",
"667 300 OFFCURVE",
"680 313 OFFCURVE",
"680 336 CURVE SMOOTH",
"680 359 OFFCURVE",
"667 372 OFFCURVE",
"644 372 CURVE SMOOTH",
"493 372 LINE",
"493 593 LINE",
"762 593 LINE SMOOTH",
"785 593 OFFCURVE",
"798 606 OFFCURVE",
"798 629 CURVE SMOOTH",
"798 652 OFFCURVE",
"785 665 OFFCURVE",
"762 665 CURVE SMOOTH",
"418 665 LINE SMOOTH",
"398 665 OFFCURVE",
"385 657 OFFCURVE",
"375 640 CURVE SMOOTH",
"43 55 LINE SMOOTH",
"32 35 OFFCURVE",
"37 18 OFFCURVE",
"57 6 CURVE SMOOTH",
"77 -6 OFFCURVE",
"94 -1 OFFCURVE",
"106 20 CURVE SMOOTH",
"188 164 LINE",
"421 164 LINE",
"421 36 LINE SMOOTH",
"421 13 OFFCURVE",
"433 0 OFFCURVE",
"457 0 CURVE SMOOTH"
);
},
{
closed = 1;
nodes = (
"417 575 LINE",
"421 575 LINE",
"421 236 LINE",
"229 236 LINE"
);
}
);
width = 848;
}
);
leftKerningGroup = A;
leftMetricsKey = A;
rightKerningGroup = E;
rightMetricsKey = E;
unicode = 00C6;
},
{
color = 4;
glyphname = B;
lastChange = "2016-07-29 20:01:03 +0000";
layers = (
{
anchors = (
{
name = bottom;
position = "{300, 0}";
},
{
name = top;
position = "{300, 633}";
}
);
background = {
paths = (
{
closed = 0;
nodes = (
"342 343 LINE",
"425 343 OFFCURVE",
"465 383 OFFCURVE",
"465 465 CURVE",
"465 492 LINE",
"465 573 OFFCURVE",
"425 612 OFFCURVE",
"342 612 CURVE",
"111 612 LINE",
"111 21 LINE",
"355 21 LINE",
"455 21 OFFCURVE",
"502 69 OFFCURVE",
"502 167 CURVE",
"502 198 LINE",
"502 296 OFFCURVE",
"455 343 OFFCURVE",
"355 343 CURVE",
"111 343 LINE"
);
}
);
};
layerId = "B309FD91-69BF-47D2-8142-D25EBE917F3C";
paths = (
{
closed = 1;
nodes = (
"385 0 LINE SMOOTH",
"496 0 OFFCURVE",
"553 57 OFFCURVE",
"553 167 CURVE SMOOTH",
"553 198 LINE SMOOTH",
"553 308 OFFCURVE",
"496 364 OFFCURVE",
"385 364 CURVE SMOOTH",
"132 364 LINE SMOOTH",
"118 364 OFFCURVE",
"111 357 OFFCURVE",
"111 343 CURVE SMOOTH",
"111 329 OFFCURVE",
"118 322 OFFCURVE",
"132 322 CURVE SMOOTH",
"385 322 LINE SMOOTH",
"473 322 OFFCURVE",
"511 285 OFFCURVE",
"511 198 CURVE SMOOTH",
"511 167 LINE SMOOTH",
"511 80 OFFCURVE",
"473 42 OFFCURVE",
"385 42 CURVE SMOOTH",
"132 42 LINE",
"132 591 LINE",
"372 591 LINE SMOOTH",
"443 591 OFFCURVE",
"474 561 OFFCURVE",
"474 492 CURVE SMOOTH",
"474 465 LINE SMOOTH",
"474 402 OFFCURVE",
"449 369 OFFCURVE",
"393 365 CURVE SMOOTH",
"379 364 OFFCURVE",
"372 357 OFFCURVE",
"372 344 CURVE SMOOTH",
"372 330 OFFCURVE",
"380 332 OFFCURVE",
"394 333 CURVE SMOOTH",
"474 339 OFFCURVE",
"516 379 OFFCURVE",
"516 465 CURVE SMOOTH",
"516 492 LINE SMOOTH",
"516 585 OFFCURVE",
"467 633 OFFCURVE",
"372 633 CURVE SMOOTH",
"111 633 LINE SMOOTH",
"97 633 OFFCURVE",
"90 626 OFFCURVE",
"90 612 CURVE SMOOTH",
"90 21 LINE SMOOTH",
"90 7 OFFCURVE",
"97 0 OFFCURVE",
"111 0 CURVE SMOOTH"
);
}
);
width = 603;
},
{
anchors = (
{
name = bottom;
position = "{329, 0}";
},
{
name = top;
position = "{327, 665}";
}
);
background = {
paths = (
{
closed = 0;
nodes = (
"367 360 LINE",
"450 360 OFFCURVE",
"490 400 OFFCURVE",
"490 482 CURVE",
"490 509 LINE",
"490 590 OFFCURVE",
"450 629 OFFCURVE",
"367 629 CURVE",
"136 629 LINE",
"136 36 LINE",
"380 36 LINE",
"480 36 OFFCURVE",
"527 84 OFFCURVE",
"527 182 CURVE",
"527 215 LINE",
"527 313 OFFCURVE",
"480 360 OFFCURVE",
"380 360 CURVE",
"136 360 LINE"
);
}
);
};
layerId = "3776B938-A14A-42B9-91A8-ACB6A1608662";
paths = (
{
closed = 1;
nodes = (
"410 0 LINE SMOOTH",
"529 0 OFFCURVE",
"593 63 OFFCURVE",
"593 182 CURVE SMOOTH",
"593 215 LINE SMOOTH",
"593 333 OFFCURVE",
"530 396 OFFCURVE",
"410 396 CURVE SMOOTH",
"172 396 LINE SMOOTH",
"148.6 396 OFFCURVE",
"136 383.4 OFFCURVE",
"136 360 CURVE SMOOTH",
"136 336.6 OFFCURVE",
"148.6 324 OFFCURVE",
"172 324 CURVE SMOOTH",
"410 324 LINE SMOOTH",
"490 324 OFFCURVE",
"521 293 OFFCURVE",
"521 215 CURVE SMOOTH",
"521 182 LINE SMOOTH",
"521 104 OFFCURVE",
"489 72 OFFCURVE",
"410 72 CURVE SMOOTH",
"172 72 LINE",
"172 593 LINE",
"397 593 LINE SMOOTH",
"460 593 OFFCURVE",
"484 570 OFFCURVE",
"484 509 CURVE SMOOTH",
"484 482 LINE SMOOTH",
"484 431 OFFCURVE",
"465 396 OFFCURVE",
"418 396 CURVE SMOOTH",
"404 396 OFFCURVE",
"397 382 OFFCURVE",
"397 362 CURVE SMOOTH",
"397 351 OFFCURVE",
"411 345 OFFCURVE",
"435 347 CURVE SMOOTH",
"513 354 OFFCURVE",
"556 405 OFFCURVE",
"556 482 CURVE SMOOTH",
"556 509 LINE SMOOTH",
"556 610 OFFCURVE",
"500 665 OFFCURVE",
"397 665 CURVE SMOOTH",
"136 665 LINE SMOOTH",
"112.6 665 OFFCURVE",
"100 652.4 OFFCURVE",
"100 629 CURVE SMOOTH",
"100 36 LINE SMOOTH",
"100 12.6 OFFCURVE",
"112.6 0 OFFCURVE",
"136 0 CURVE SMOOTH"
);
}
);
width = 653;
}
);
leftKerningGroup = H;
leftMetricsKey = H;
rightKerningGroup = B;
unicode = 0042;
},
{
color = 4;
glyphname = C;
lastChange = "2016-07-29 20:01:28 +0000";
layers = (
{
anchors = (
{
name = bottom;
position = "{344, 0}";
},
{
name = top;
position = "{333, 633}";
}
);
background = {
paths = (
{
closed = 1;
nodes = (
"402 0 LINE SMOOTH",
"531 0 OFFCURVE",
"585 54 OFFCURVE",
"585 183 CURVE SMOOTH",
"585 195 OFFCURVE",
"576 204 OFFCURVE",
"564 204 CURVE SMOOTH",
"552 204 OFFCURVE",
"543 195 OFFCURVE",
"543 183 CURVE SMOOTH",
"543 77 OFFCURVE",
"508 42 OFFCURVE",
"402 42 CURVE SMOOTH",
"282 42 LINE SMOOTH",
"164 42 OFFCURVE",
"121 85 OFFCURVE",
"121 203 CURVE SMOOTH",
"121 430 LINE SMOOTH",
"121 549 OFFCURVE",
"163 591 OFFCURVE",
"281 591 CURVE SMOOTH",
"402 591 LINE SMOOTH",
"508 591 OFFCURVE",
"543 556 OFFCURVE",
"543 450 CURVE SMOOTH",
"543 438 OFFCURVE",
"552 429 OFFCURVE",
"564 429 CURVE SMOOTH",
"576 429 OFFCURVE",
"585 438 OFFCURVE",
"585 450 CURVE SMOOTH",
"585 579 OFFCURVE",
"531 633 OFFCURVE",
"402 633 CURVE SMOOTH",
"281 633 LINE SMOOTH",
"140 633 OFFCURVE",
"79 573 OFFCURVE",
"79 430 CURVE SMOOTH",
"79 203 LINE SMOOTH",
"79 61 OFFCURVE",
"140 0 OFFCURVE",
"282 0 CURVE SMOOTH"
);
}
);
};
layerId = "B309FD91-69BF-47D2-8142-D25EBE917F3C";
paths = (
{
closed = 1;
nodes = (
"403 0 LINE SMOOTH",
"524.756 0 OFFCURVE",
"579.54 47.757 OFFCURVE",
"585.458 161.377 CURVE SMOOTH",
"586.187 175.368 OFFCURVE",
"578.501 183 OFFCURVE",
"564.734 183 CURVE SMOOTH",
"551.203 183 OFFCURVE",
"544.203 175.642 OFFCURVE",
"543.473 161.841 CURVE SMOOTH",
"538.74 72.43 OFFCURVE",
"501.433 42 OFFCURVE",
"403 42 CURVE SMOOTH",
"283 42 LINE SMOOTH",
"164.673 42 OFFCURVE",
"122 84.673 OFFCURVE",
"122 203 CURVE SMOOTH",
"122 430 LINE SMOOTH",
"122 549.183 OFFCURVE",
"164.459 591.001 OFFCURVE",
"281.837 591 CURVE SMOOTH",
"403 591 LINE SMOOTH",
"501.433 591 OFFCURVE",
"538.74 560.57 OFFCURVE",
"543.473 471.159 CURVE SMOOTH",
"544.203 457.358 OFFCURVE",
"551.202 450 OFFCURVE",
"564.732 450 CURVE SMOOTH",
"578.501 450 OFFCURVE",
"586.187 457.632 OFFCURVE",
"585.458 471.623 CURVE SMOOTH",
"579.54 585.243 OFFCURVE",
"524.756 633 OFFCURVE",
"403 633 CURVE SMOOTH",
"282 633 LINE SMOOTH",
"141.223 633 OFFCURVE",
"80 572.575 OFFCURVE",
"80 430 CURVE SMOOTH",
"80 203 LINE SMOOTH",
"80 61.291 OFFCURVE",
"141.291 0 OFFCURVE",
"283 0 CURVE SMOOTH"
);
}
);
width = 655;
},
{
anchors = (
{
name = bottom;
position = "{358, 0}";
},
{
name = top;
position = "{361, 665}";
}
);
background = {
paths = (
{
closed = 0;
nodes = (
"580 467 LINE",
"580 586 OFFCURVE",
"534 629 OFFCURVE",
"418 629 CURVE",
"297 629 LINE",
"168 630 OFFCURVE",
"116 578 OFFCURVE",
"116 447 CURVE",
"116 218 LINE",
"116 88 OFFCURVE",
"168 36 OFFCURVE",
"298 36 CURVE",
"418 36 LINE",
"534 36 OFFCURVE",
"580 79 OFFCURVE",
"580 198 CURVE"
);
}
);
};
layerId = "3776B938-A14A-42B9-91A8-ACB6A1608662";
paths = (
{
closed = 1;
nodes = (
"418 0 LINE SMOOTH",
"542 0 OFFCURVE",
"604 49 OFFCURVE",
"614 161 CURVE SMOOTH",
"617 185 OFFCURVE",
"603 198 OFFCURVE",
"579 198 CURVE SMOOTH",
"556 198 OFFCURVE",
"545 186 OFFCURVE",
"542 162 CURVE SMOOTH",
"535 93 OFFCURVE",
"502 72 OFFCURVE",
"418 72 CURVE SMOOTH",
"298 72 LINE SMOOTH",
"188 72 OFFCURVE",
"152 108 OFFCURVE",
"152 218 CURVE SMOOTH",
"152 447 LINE SMOOTH",
"152 558 OFFCURVE",
"188 594 OFFCURVE",
"297 593 CURVE SMOOTH",
"418 593 LINE SMOOTH",
"502 593 OFFCURVE",
"535 572 OFFCURVE",
"542 503 CURVE SMOOTH",
"545 479 OFFCURVE",
"556 467 OFFCURVE",
"579 467 CURVE SMOOTH",
"603 467 OFFCURVE",
"617 480 OFFCURVE",
"614 504 CURVE SMOOTH",
"604 616 OFFCURVE",
"542 665 OFFCURVE",
"418 665 CURVE SMOOTH",
"297 665 LINE SMOOTH",
"148 666 OFFCURVE",
"80 598 OFFCURVE",
"80 447 CURVE SMOOTH",
"80 218 LINE SMOOTH",
"80 68 OFFCURVE",
"148 0 OFFCURVE",
"298 0 CURVE SMOOTH"
);
}
);
width = 684;
},
{
associatedMasterId = "B309FD91-69BF-47D2-8142-D25EBE917F3C";
background = {
paths = (
{
closed = 1;
nodes = (
"391 0 LINE SMOOTH",
"475 0 OFFCURVE",
"486 49 OFFCURVE",
"486 110 CURVE SMOOTH",
"486 127 OFFCURVE",
"479 136 OFFCURVE",
"465 137 CURVE",
"451 137 OFFCURVE",
"444 126 OFFCURVE",
"444 105 CURVE SMOOTH",
"444 83 OFFCURVE",
"440 67 OFFCURVE",
"431 57 CURVE SMOOTH",
"422 47 OFFCURVE",
"407 42 OFFCURVE",
"384 42 CURVE SMOOTH",
"250 42 LINE SMOOTH",
"137 42 OFFCURVE",
"84 53 OFFCURVE",
"84 175 CURVE SMOOTH",
"84 461 LINE SMOOTH",
"84 583 OFFCURVE",
"137 594 OFFCURVE",
"250 594 CURVE SMOOTH",
"384 594 LINE SMOOTH",
"429 594 OFFCURVE",
"444 574 OFFCURVE",
"444 531 CURVE SMOOTH",
"444 510 OFFCURVE",
"451 499 OFFCURVE",
"465 499 CURVE",
"496 497 OFFCURVE",
"510 645 OFFCURVE",
"391 636 CURVE",
"250 636 LINE SMOOTH",
"109 636 OFFCURVE",
"42 601 OFFCURVE",
"42 461 CURVE SMOOTH",
"42 175 LINE SMOOTH",
"42 35 OFFCURVE",
"109 0 OFFCURVE",
"250 0 CURVE SMOOTH"
);
}
);
};
layerId = "44342F11-7069-414F-AC37-7DFD7A0252A3";
name = "1";
paths = (
{
closed = 0;
nodes = (
"491 500 LINE",
"491 583 OFFCURVE",
"451 623 OFFCURVE",
"369 623 CURVE",
"256 623 LINE",
"130 623 OFFCURVE",
"70 562 OFFCURVE",
"70 437 CURVE",
"70 206 LINE",
"70 81 OFFCURVE",
"130 19 OFFCURVE",
"257 19 CURVE",
"369 19 LINE",
"451 19 OFFCURVE",
"491 59 OFFCURVE",
"491 142 CURVE"
);
}
);
width = 566;
},
{
associatedMasterId = "B309FD91-69BF-47D2-8142-D25EBE917F3C";
background = {
paths = (
{
closed = 0;
nodes = (
"526 490 LINE",
"526 573 OFFCURVE",
"486 613 OFFCURVE",
"404 613 CURVE",
"291 613 LINE",
"165 613 OFFCURVE",
"105 552 OFFCURVE",
"105 427 CURVE",
"105 206 LINE",
"105 81 OFFCURVE",
"165 19 OFFCURVE",
"292 19 CURVE",
"404 19 LINE",
"486 19 OFFCURVE",
"526 59 OFFCURVE",
"526 142 CURVE"
);
}
);
};
layerId = "6BB556F6-1540-43E8-9D96-4BB4AD1FB6A9";
name = "1";
paths = (
{
closed = 1;
nodes = (
"421 0 LINE SMOOTH",
"515 0 OFFCURVE",
"564 49 OFFCURVE",
"564 144 CURVE SMOOTH",
"564 158 OFFCURVE",
"557 165 OFFCURVE",
"543 165 CURVE SMOOTH",
"529 165 OFFCURVE",
"522 158 OFFCURVE",
"522 144 CURVE SMOOTH",
"522 73 OFFCURVE",
"491 42 OFFCURVE",
"421 42 CURVE SMOOTH",
"285 42 LINE SMOOTH",
"173 42 OFFCURVE",
"122 94 OFFCURVE",
"122 208 CURVE SMOOTH",
"122 426 LINE SMOOTH",
"122 540 OFFCURVE",
"173 591 OFFCURVE",
"285 591 CURVE SMOOTH",
"421 591 LINE SMOOTH",
"491 591 OFFCURVE",
"522 560 OFFCURVE",
"522 489 CURVE SMOOTH",
"522 475 OFFCURVE",
"529 468 OFFCURVE",
"543 468 CURVE SMOOTH",
"557 468 OFFCURVE",
"564 475 OFFCURVE",
"564 489 CURVE SMOOTH",
"564 584 OFFCURVE",
"515 633 OFFCURVE",
"421 633 CURVE SMOOTH",
"285 633 LINE SMOOTH",
"149 633 OFFCURVE",
"80 563 OFFCURVE",
"80 426 CURVE SMOOTH",
"80 208 LINE SMOOTH",
"80 71 OFFCURVE",
"150 0 OFFCURVE",
"285 0 CURVE SMOOTH"
);
}
);
width = 614;
},
{
associatedMasterId = "B309FD91-69BF-47D2-8142-D25EBE917F3C";
background = {
paths = (
{
closed = 0;
nodes = (
"549 449 LINE",
"549 570 OFFCURVE",
"507 611 OFFCURVE",
"391 611 CURVE",
"210 611 LINE",
"57 613 OFFCURVE",
"-2 558 OFFCURVE",
"-2 394 CURVE",
"-2 241 LINE",
"-2 77 OFFCURVE",
"57 21 OFFCURVE",
"209 21 CURVE",
"391 21 LINE",
"507 21 OFFCURVE",
"549 62 OFFCURVE",
"549 183 CURVE"
);
}
);
};
guideLines = (
{
position = "{496, 450}";
},
{
position = "{496, 183}";
}
);
layerId = "B1631B57-43F4-4A3F-9721-0BF73E7FE20D";
name = "2";
paths = (
{
closed = 0;
nodes = (
"549 450 LINE",
"549 570 OFFCURVE",
"508 612 OFFCURVE",
"393 612 CURVE",
"247 612 LINE",
"119 613 OFFCURVE",
"69 566 OFFCURVE",
"69 429 CURVE",
"69 207 LINE",
"69 69 OFFCURVE",
"119 22 OFFCURVE",
"246 22 CURVE",
"393 22 LINE",
"508 22 OFFCURVE",
"549 64 OFFCURVE",
"549 184 CURVE"
);
}
);
width = 566;
},
{
associatedMasterId = "B309FD91-69BF-47D2-8142-D25EBE917F3C";
background = {
paths = (
{
closed = 0;
nodes = (
"547 490 LINE",
"547 573 OFFCURVE",
"507 613 OFFCURVE",
"425 613 CURVE",
"312 613 LINE",
"186 613 OFFCURVE",
"126 552 OFFCURVE",
"126 427 CURVE",
"126 206 LINE",
"126 81 OFFCURVE",
"186 19 OFFCURVE",
"313 19 CURVE",
"425 19 LINE",
"507 19 OFFCURVE",
"547 59 OFFCURVE",
"547 142 CURVE"
);
}
);
};
layerId = "6DEF419B-FBB3-48BD-89F9-C32253AEE806";
name = "2";
paths = (
{
closed = 1;
nodes = (
"414 1 LINE SMOOTH",
"541 1 OFFCURVE",
"591 53 OFFCURVE",
"591 184 CURVE SMOOTH",
"591 196 OFFCURVE",
"582 205 OFFCURVE",
"570 205 CURVE SMOOTH",
"558 205 OFFCURVE",
"549 196 OFFCURVE",
"549 184 CURVE SMOOTH",
"549 75 OFFCURVE",
"517 43 OFFCURVE",
"414 43 CURVE SMOOTH",
"267 43 LINE SMOOTH",
"150 43 OFFCURVE",
"111 83 OFFCURVE",
"111 207 CURVE SMOOTH",
"111 429 LINE SMOOTH",
"111 553 OFFCURVE",
"150 592 OFFCURVE",
"268 591 CURVE SMOOTH",
"414 591 LINE SMOOTH",
"517 591 OFFCURVE",
"549 559 OFFCURVE",
"549 450 CURVE SMOOTH",
"549 438 OFFCURVE",
"558 429 OFFCURVE",
"570 429 CURVE SMOOTH",
"582 429 OFFCURVE",
"591 438 OFFCURVE",
"591 450 CURVE SMOOTH",
"591 581 OFFCURVE",
"541 633 OFFCURVE",
"414 633 CURVE SMOOTH",
"268 633 LINE SMOOTH",
"126 633 OFFCURVE",
"69 575 OFFCURVE",
"69 429 CURVE SMOOTH",
"69 207 LINE SMOOTH",
"69 60 OFFCURVE",
"126 1 OFFCURVE",
"267 1 CURVE SMOOTH"
);
}
);
width = 651;
}
);
leftKerningGroup = O;
leftMetricsKey = O;
rightKerningGroup = C;
unicode = 0043;
},
{
color = 4;
glyphname = D;
lastChange = "2016-07-29 19:52:54 +0000";
layers = (
{
anchors = (
{
name = bottom;
position = "{328, 0}";
},
{
name = center;
position = "{151, 321}";
},
{
name = top;
position = "{296, 633}";
}
);
background = {
paths = (
{
closed = 1;
nodes = (
"352 0 LINE SMOOTH",
"515 0 OFFCURVE",
"585 70 OFFCURVE",
"585 233 CURVE SMOOTH",
"585 400 LINE SMOOTH",
"585 563 OFFCURVE",
"515 633 OFFCURVE",
"352 633 CURVE SMOOTH",
"111 633 LINE SMOOTH",
"97 633 OFFCURVE",
"90 626 OFFCURVE",
"90 612 CURVE SMOOTH",
"90 21 LINE SMOOTH",
"90 7 OFFCURVE",
"97 0 OFFCURVE",
"111 0 CURVE SMOOTH"
);
},
{
closed = 1;
nodes = (
"132 591 LINE",
"352 591 LINE SMOOTH",
"491 591 OFFCURVE",
"543 539 OFFCURVE",
"543 400 CURVE SMOOTH",
"543 233 LINE SMOOTH",
"543 94 OFFCURVE",
"491 42 OFFCURVE",
"352 42 CURVE SMOOTH",
"132 42 LINE"
);
}
);
};
layerId = "B309FD91-69BF-47D2-8142-D25EBE917F3C";
paths = (
{
closed = 1;
nodes = (
"352 0 LINE SMOOTH",
"515 0 OFFCURVE",
"585 70 OFFCURVE",
"585 233 CURVE SMOOTH",
"585 400 LINE SMOOTH",
"585 563 OFFCURVE",
"515 633 OFFCURVE",
"352 633 CURVE SMOOTH",
"111 633 LINE SMOOTH",
"97 633 OFFCURVE",
"90 626 OFFCURVE",
"90 612 CURVE SMOOTH",
"90 21 LINE SMOOTH",
"90 7 OFFCURVE",
"97 0 OFFCURVE",
"111 0 CURVE SMOOTH"
);
},
{
closed = 1;
nodes = (
"132 591 LINE",
"352 591 LINE SMOOTH",
"491 591 OFFCURVE",
"543 539 OFFCURVE",
"543 400 CURVE SMOOTH",
"543 233 LINE SMOOTH",
"543 94 OFFCURVE",
"491 42 OFFCURVE",
"352 42 CURVE SMOOTH",
"132 42 LINE"
);
}
);
width = 665;
},
{
anchors = (
{
name = bottom;
position = "{337, 0}";
},
{
name = center;
position = "{180, 333}";
},
{
name = top;
position = "{337, 665}";
}
);
background = {
paths = (
{
closed = 1;
nodes = (
"136 629 LINE",
"136 36 LINE",
"377 36 LINE",
"528 36 OFFCURVE",
"589 97 OFFCURVE",
"589 248 CURVE",
"589 417 LINE",
"589 568 OFFCURVE",
"528 629 OFFCURVE",
"377 629 CURVE"
);
}
);
};
layerId = "3776B938-A14A-42B9-91A8-ACB6A1608662";
paths = (
{
closed = 1;
nodes = (
"377 0 LINE SMOOTH",
"548.3 0 OFFCURVE",
"625 77.36 OFFCURVE",
"625 248 CURVE SMOOTH",
"625 417 LINE SMOOTH",
"625 588.3 OFFCURVE",
"547.64 665 OFFCURVE",
"377 665 CURVE SMOOTH",
"136 665 LINE SMOOTH",
"112.6 665 OFFCURVE",
"100 652.4 OFFCURVE",
"100 629 CURVE SMOOTH",
"100 36 LINE SMOOTH",
"100 12.6 OFFCURVE",
"112.6 0 OFFCURVE",
"136 0 CURVE SMOOTH"
);
},
{
closed = 1;
nodes = (
"172 593 LINE",
"377 593 LINE SMOOTH",
"507.835 593 OFFCURVE",
"553 547.835 OFFCURVE",
"553 417 CURVE SMOOTH",
"553 248 LINE SMOOTH",
"553 117.165 OFFCURVE",
"507.835 72 OFFCURVE",
"377 72 CURVE SMOOTH",
"172 72 LINE"
);
}
);
width = 705;
}
);
leftKerningGroup = H;
leftMetricsKey = H;
rightKerningGroup = O;
rightMetricsKey = O;
unicode = 0044;
},
{
color = 4;
glyphname = E;
lastChange = "2016-07-29 19:52:54 +0000";
layers = (
{
anchors = (
{
name = bottom;
position = "{299, 0}";
},
{
name = ogonek;
position = "{488, 0}";
},
{
name = top;
position = "{319, 633}";
},
{
name = topleft;
position = "{89, 633}";
}
);
background = {
paths = (
{
closed = 1;
nodes = (
"491 0 LINE SMOOTH",
"505 0 OFFCURVE",
"512 7 OFFCURVE",
"512 21 CURVE SMOOTH",
"512 35 OFFCURVE",
"505 42 OFFCURVE",
"491 42 CURVE SMOOTH",
"132 42 LINE",
"132 591 LINE",
"491 591 LINE SMOOTH",
"505 591 OFFCURVE",
"512 598 OFFCURVE",
"512 612 CURVE SMOOTH",
"512 626 OFFCURVE",
"505 633 OFFCURVE",
"491 633 CURVE SMOOTH",
"111 633 LINE SMOOTH",
"97 633 OFFCURVE",
"90 626 OFFCURVE",
"90 612 CURVE SMOOTH",
"90 21 LINE SMOOTH",
"90 7 OFFCURVE",
"97 0 OFFCURVE",
"111 0 CURVE SMOOTH"
);
},
{
closed = 1;
nodes = (
"373 300 LINE SMOOTH",
"387 300 OFFCURVE",
"394 307 OFFCURVE",
"394 321 CURVE SMOOTH",
"394 335 OFFCURVE",
"387 342 OFFCURVE",
"373 342 CURVE SMOOTH",
"132 342 LINE SMOOTH",
"118 342 OFFCURVE",
"111 335 OFFCURVE",
"111 321 CURVE SMOOTH",
"111 307 OFFCURVE",
"118 300 OFFCURVE",
"132 300 CURVE SMOOTH"
);
}
);
};
layerId = "B309FD91-69BF-47D2-8142-D25EBE917F3C";
paths = (
{
closed = 1;
nodes = (
"491 0 LINE SMOOTH",
"505 0 OFFCURVE",
"512 7 OFFCURVE",
"512 21 CURVE SMOOTH",
"512 35 OFFCURVE",
"505 42 OFFCURVE",
"491 42 CURVE SMOOTH",
"132 42 LINE",
"132 591 LINE",
"491 591 LINE SMOOTH",
"505 591 OFFCURVE",
"512 598 OFFCURVE",
"512 612 CURVE SMOOTH",
"512 626 OFFCURVE",
"505 633 OFFCURVE",
"491 633 CURVE SMOOTH",
"111 633 LINE SMOOTH",
"97 633 OFFCURVE",
"90 626 OFFCURVE",
"90 612 CURVE SMOOTH",
"90 21 LINE SMOOTH",
"90 7 OFFCURVE",
"97 0 OFFCURVE",
"111 0 CURVE SMOOTH"
);
},
{
closed = 1;
nodes = (
"373 300 LINE SMOOTH",
"387 300 OFFCURVE",
"394 307 OFFCURVE",
"394 321 CURVE SMOOTH",
"394 335 OFFCURVE",
"387 342 OFFCURVE",
"373 342 CURVE SMOOTH",
"132 342 LINE SMOOTH",
"118 342 OFFCURVE",
"111 335 OFFCURVE",
"111 321 CURVE SMOOTH",
"111 307 OFFCURVE",
"118 300 OFFCURVE",
"132 300 CURVE SMOOTH"
);
}
);
width = 547;
},
{
anchors = (
{
name = bottom;
position = "{334, 0}";
},
{
name = ogonek;
position = "{501, 29}";
},
{
name = top;
position = "{334, 665}";
},
{
name = topleft;
position = "{104, 665}";
}
);
background = {
paths = (
{
closed = 0;
nodes = (
"537 629 LINE",
"136 629 LINE",
"136 36 LINE",
"537 36 LINE"
);
},
{
closed = 0;
nodes = (
"136 336 LINE",
"419 336 LINE"
);
}
);
};
layerId = "3776B938-A14A-42B9-91A8-ACB6A1608662";
paths = (
{
closed = 1;
nodes = (
"501 0 LINE SMOOTH",
"524 0 OFFCURVE",
"537 13 OFFCURVE",
"537 36 CURVE SMOOTH",
"537 59 OFFCURVE",
"524 72 OFFCURVE",
"501 72 CURVE SMOOTH",
"172 72 LINE",
"172 593 LINE",
"501 593 LINE SMOOTH",
"524 593 OFFCURVE",
"537 606 OFFCURVE",
"537 629 CURVE SMOOTH",
"537 652 OFFCURVE",
"524 665 OFFCURVE",
"501 665 CURVE SMOOTH",
"136 665 LINE SMOOTH",
"113 665 OFFCURVE",
"100 652 OFFCURVE",
"100 629 CURVE SMOOTH",
"100 36 LINE SMOOTH",
"100 13 OFFCURVE",
"113 0 OFFCURVE",
"136 0 CURVE SMOOTH"
);
},
{
closed = 1;
nodes = (
"383 300 LINE SMOOTH",
"406 300 OFFCURVE",
"419 313 OFFCURVE",
"419 336 CURVE SMOOTH",
"419 359 OFFCURVE",
"406 372 OFFCURVE",
"383 372 CURVE SMOOTH",
"172 372 LINE SMOOTH",
"149 372 OFFCURVE",
"136 359 OFFCURVE",
"136 336 CURVE SMOOTH",
"136 313 OFFCURVE",
"149 300 OFFCURVE",
"172 300 CURVE SMOOTH"
);
}
);
width = 587;
}
);
leftKerningGroup = H;
leftMetricsKey = H;
rightKerningGroup = E;
unicode = 0045;
},
{
color = 4;
glyphname = F;
lastChange = "2016-07-29 19:52:54 +0000";
layers = (
{
anchors = (
{
name = bottom;
position = "{111, 0}";
},
{
name = top;
position = "{305, 633}";
}
);
background = {
paths = (
{
closed = 1;
nodes = (
"125 21 OFFCURVE",
"132 28 OFFCURVE",
"132 42 CURVE SMOOTH",
"132 591 LINE",
"469 591 LINE SMOOTH",
"483 591 OFFCURVE",
"490 598 OFFCURVE",
"490 612 CURVE SMOOTH",
"490 626 OFFCURVE",
"483 633 OFFCURVE",
"469 633 CURVE SMOOTH",
"111 633 LINE SMOOTH",
"97 633 OFFCURVE",
"90 626 OFFCURVE",
"90 612 CURVE SMOOTH",
"90 42 LINE SMOOTH",
"90 28 OFFCURVE",
"97 21 OFFCURVE",
"111 21 CURVE SMOOTH"
);
},
{
closed = 1;
nodes = (
"123 0 OFFCURVE",
"132 9 OFFCURVE",
"132 21 CURVE SMOOTH",
"132 33 OFFCURVE",
"123 42 OFFCURVE",
"111 42 CURVE SMOOTH",
"99 42 OFFCURVE",
"90 33 OFFCURVE",
"90 21 CURVE SMOOTH",
"90 9 OFFCURVE",
"99 0 OFFCURVE",
"111 0 CURVE SMOOTH"
);
},
{
closed = 1;
nodes = (
"351 300 LINE SMOOTH",
"365 300 OFFCURVE",
"372 307 OFFCURVE",
"372 321 CURVE SMOOTH",
"372 335 OFFCURVE",
"365 342 OFFCURVE",
"351 342 CURVE SMOOTH",
"132 342 LINE SMOOTH",
"118 342 OFFCURVE",
"111 335 OFFCURVE",
"111 321 CURVE SMOOTH",
"111 307 OFFCURVE",
"118 300 OFFCURVE",
"132 300 CURVE SMOOTH"
);
},
{
closed = 1;
nodes = (
"384 300 OFFCURVE",
"393 309 OFFCURVE",
"393 321 CURVE SMOOTH",
"393 333 OFFCURVE",
"384 342 OFFCURVE",
"372 342 CURVE SMOOTH",
"360 342 OFFCURVE",
"351 333 OFFCURVE",
"351 321 CURVE SMOOTH",
"351 309 OFFCURVE",
"360 300 OFFCURVE",
"372 300 CURVE SMOOTH"
);
},
{
closed = 1;
nodes = (
"502 591 OFFCURVE",
"511 600 OFFCURVE",
"511 612 CURVE SMOOTH",
"511 624 OFFCURVE",
"502 633 OFFCURVE",
"490 633 CURVE SMOOTH",
"478 633 OFFCURVE",
"469 624 OFFCURVE",
"469 612 CURVE SMOOTH",
"469 600 OFFCURVE",
"478 591 OFFCURVE",
"490 591 CURVE SMOOTH"
);
}
);
};
layerId = "B309FD91-69BF-47D2-8142-D25EBE917F3C";
paths = (
{
closed = 1;
nodes = (
"132 21 CURVE SMOOTH",
"132 300 LINE",
"369 300 LINE SMOOTH",
"383 300 OFFCURVE",
"390 307 OFFCURVE",
"390 321 CURVE SMOOTH",
"390 335 OFFCURVE",
"383 342 OFFCURVE",
"369 342 CURVE SMOOTH",
"132 342 LINE",
"132 591 LINE",
"469 591 LINE SMOOTH",
"483 591 OFFCURVE",
"490 598 OFFCURVE",
"490 612 CURVE SMOOTH",
"490 626 OFFCURVE",
"483 633 OFFCURVE",
"469 633 CURVE SMOOTH",
"111 633 LINE SMOOTH",
"97 633 OFFCURVE",
"90 626 OFFCURVE",
"90 612 CURVE SMOOTH",
"90 21 LINE SMOOTH",
"90 7 OFFCURVE",
"97 0 OFFCURVE",
"111 0 CURVE SMOOTH",
"125 0 OFFCURVE",
"132 7 OFFCURVE"
);
}
);
width = 490;
},
{
anchors = (
{
name = bottom;
position = "{326, 0}";
},
{
name = top;
position = "{326, 665}";
}
);
background = {
paths = (
{
closed = 0;
nodes = (
"537 629 LINE",
"136 629 LINE",
"136 0 LINE"
);
},
{
closed = 0;
nodes = (
"136 336 LINE",
"419 336 LINE"
);
}
);
};
layerId = "3776B938-A14A-42B9-91A8-ACB6A1608662";
paths = (
{
closed = 1;
nodes = (
"172 36 CURVE SMOOTH",
"172 300 LINE",
"383 300 LINE SMOOTH",
"406 300 OFFCURVE",
"419 313 OFFCURVE",
"419 336 CURVE SMOOTH",
"419 359 OFFCURVE",
"406 372 OFFCURVE",
"383 372 CURVE SMOOTH",
"172 372 LINE",
"172 593 LINE",
"501 593 LINE SMOOTH",
"524 593 OFFCURVE",
"537 606 OFFCURVE",
"537 629 CURVE SMOOTH",
"537 652 OFFCURVE",
"524 665 OFFCURVE",
"501 665 CURVE SMOOTH",
"136 665 LINE SMOOTH",
"113 665 OFFCURVE",
"100 652 OFFCURVE",
"100 629 CURVE SMOOTH",
"100 36 LINE SMOOTH",
"100 13 OFFCURVE",
"113 0 OFFCURVE",
"136 0 CURVE SMOOTH",
"159 0 OFFCURVE",
"172 13 OFFCURVE"
);
}
);
width = 537;
}
);
leftKerningGroup = H;
leftMetricsKey = H;
rightKerningGroup = F;
unicode = 0046;
},
{
color = 4;
glyphname = G;
lastChange = "2016-07-29 20:03:06 +0000";
layers = (
{
anchors = (
{
name = bottom;
position = "{333, 0}";
},
{
name = top;
position = "{333, 633}";
}
);
background = {
paths = (
{
closed = 1;
nodes = (
"392 0 LINE SMOOTH",
"521.213 0 OFFCURVE",
"575 53.787 OFFCURVE",
"575 183 CURVE SMOOTH",
"575 271.937 LINE SMOOTH",
"575 285.557 OFFCURVE",
"567.687 292.916 OFFCURVE",
"554.066 293 CURVE SMOOTH",
"413.129 293.87 LINE SMOOTH",
"399.479 293.954 OFFCURVE",
"392.084 286.65 OFFCURVE",
"392 273 CURVE SMOOTH",
"391.916 259.35 OFFCURVE",
"399.22 251.955 OFFCURVE",
"412.87 251.871 CURVE SMOOTH",
"533 251.129 LINE",
"533 183 LINE SMOOTH",
"533 77.173 OFFCURVE",
"497.827 42 OFFCURVE",
"392 42 CURVE SMOOTH",
"272 42 LINE SMOOTH",
"153.673 42 OFFCURVE",
"111 84.673 OFFCURVE",
"111 203 CURVE SMOOTH",
"111 430 LINE SMOOTH",
"111 549.183 OFFCURVE",
"153.463 591.911 OFFCURVE",
"270.837 591 CURVE SMOOTH",
"392 591 LINE SMOOTH",
"490.433 591 OFFCURVE",
"527.74 560.57 OFFCURVE",
"532.473 471.159 CURVE SMOOTH",
"533.203 457.358 OFFCURVE",
"540.202 450 OFFCURVE",
"553.732 450 CURVE SMOOTH",
"567.501 450 OFFCURVE",
"575.187 457.632 OFFCURVE",
"574.458 471.623 CURVE SMOOTH",
"568.54 585.243 OFFCURVE",
"513.756 633 OFFCURVE",
"392 633 CURVE SMOOTH",
"271 633 LINE SMOOTH",
"130.227 634.092 OFFCURVE",
"69 572.575 OFFCURVE",
"69 430 CURVE SMOOTH",
"69 203 LINE SMOOTH",
"69 61.291 OFFCURVE",
"130.291 0 OFFCURVE",
"272 0 CURVE SMOOTH"
);
}
);
};
layerId = "B309FD91-69BF-47D2-8142-D25EBE917F3C";
paths = (
{
closed = 1;
nodes = (
"403 0 LINE SMOOTH",
"532.213 0 OFFCURVE",
"586 53.787 OFFCURVE",
"586 183 CURVE SMOOTH",
"586 271.937 LINE SMOOTH",
"586 285.557 OFFCURVE",
"578.687 292.916 OFFCURVE",
"565.066 293 CURVE SMOOTH",
"424.129 293.87 LINE SMOOTH",
"410.479 293.954 OFFCURVE",
"403.084 286.65 OFFCURVE",
"403 273 CURVE SMOOTH",
"402.916 259.35 OFFCURVE",
"410.22 251.955 OFFCURVE",
"423.87 251.871 CURVE SMOOTH",
"544 251.129 LINE",
"544 183 LINE SMOOTH",
"544 77.173 OFFCURVE",
"508.827 42 OFFCURVE",
"403 42 CURVE SMOOTH",
"283 42 LINE SMOOTH",
"164.673 42 OFFCURVE",
"122 84.673 OFFCURVE",
"122 203 CURVE SMOOTH",
"122 430 LINE SMOOTH",
"122 549.183 OFFCURVE",
"164.459 591.002 OFFCURVE",
"281.837 591.001 CURVE SMOOTH",
"403 591 LINE SMOOTH",
"501.433 591 OFFCURVE",
"538.74 560.57 OFFCURVE",
"543.473 471.159 CURVE SMOOTH",
"544.203 457.358 OFFCURVE",
"551.202 450 OFFCURVE",
"564.732 450 CURVE SMOOTH",
"578.501 450 OFFCURVE",
"586.187 457.632 OFFCURVE",
"585.458 471.623 CURVE SMOOTH",
"579.54 585.243 OFFCURVE",
"524.756 633 OFFCURVE",
"403 633 CURVE SMOOTH",
"282 633 LINE SMOOTH",
"141.223 633 OFFCURVE",
"80 572.575 OFFCURVE",
"80 430 CURVE SMOOTH",
"80 203 LINE SMOOTH",
"80 61.291 OFFCURVE",
"141.291 0 OFFCURVE",
"283 0 CURVE SMOOTH"
);
}
);
width = 656;
},
{
anchors = (
{
name = bottom;
position = "{361, 0}";
},
{
name = top;
position = "{356, 665}";
}
);
background = {
paths = (
{
closed = 0;
nodes = (
"418 288 LINE",
"580 287 LINE",
"580 198 LINE",
"580 79 OFFCURVE",
"534 36 OFFCURVE",
"418 36 CURVE",
"298 36 LINE",
"168 36 OFFCURVE",
"116 88 OFFCURVE",
"116 218 CURVE",
"116 447 LINE",
"116 578 OFFCURVE",
"168 630 OFFCURVE",
"297 629 CURVE",
"418 629 LINE",
"534 629 OFFCURVE",
"580 586 OFFCURVE",
"580 467 CURVE"
);
}
);
};
layerId = "3776B938-A14A-42B9-91A8-ACB6A1608662";
paths = (
{
closed = 1;
nodes = (
"418 0 LINE SMOOTH",
"555 0 OFFCURVE",
"616 60 OFFCURVE",
"616 198 CURVE SMOOTH",
"616 287 LINE SMOOTH",
"616 310 OFFCURVE",
"603 323 OFFCURVE",
"580 323 CURVE SMOOTH",
"454 324 LINE SMOOTH",
"431 324 OFFCURVE",
"418 311 OFFCURVE",
"418 288 CURVE SMOOTH",
"418 265 OFFCURVE",
"430 252 OFFCURVE",
"454 252 CURVE SMOOTH",
"544 251 LINE",
"544 198 LINE SMOOTH",
"544 100 OFFCURVE",
"515 72 OFFCURVE",
"418 72 CURVE SMOOTH",
"298 72 LINE SMOOTH",
"188 72 OFFCURVE",
"152 108 OFFCURVE",
"152 218 CURVE SMOOTH",
"152 447 LINE SMOOTH",
"152 558 OFFCURVE",
"188 594 OFFCURVE",
"297 593 CURVE SMOOTH",
"418 593 LINE SMOOTH",
"502 593 OFFCURVE",
"535 572 OFFCURVE",
"542 503 CURVE SMOOTH",
"545 479 OFFCURVE",
"556 467 OFFCURVE",
"579 467 CURVE SMOOTH",
"603 467 OFFCURVE",
"617 480 OFFCURVE",
"614 504 CURVE SMOOTH",
"604 616 OFFCURVE",
"542 665 OFFCURVE",
"418 665 CURVE SMOOTH",
"297 665 LINE SMOOTH",
"148 666 OFFCURVE",
"80 598 OFFCURVE",
"80 447 CURVE SMOOTH",
"80 218 LINE SMOOTH",
"80 68 OFFCURVE",
"148 0 OFFCURVE",
"298 0 CURVE SMOOTH"
);
}
);
width = 686;
}
);
leftKerningGroup = O;
leftMetricsKey = O;
rightKerningGroup = C;
rightMetricsKey = C;
unicode = 0047;
},
{
color = 4;
glyphname = H;
lastChange = "2016-07-29 19:52:44 +0000";
layers = (
{
anchors = (
{
name = bottom;
position = "{344, 0}";
},
{
name = center;
position = "{344, 461}";
},
{
name = top;
position = "{344, 633}";
},
{
name = topleft;
position = "{90, 633}";
}
);
background = {
paths = (
{
closed = 1;
nodes = (
"590 20 OFFCURVE",
"597 27 OFFCURVE",
"597 41 CURVE SMOOTH",
"597 592 LINE SMOOTH",
"597 606 OFFCURVE",
"590 613 OFFCURVE",
"576 613 CURVE SMOOTH",
"562 613 OFFCURVE",
"555 606 OFFCURVE",
"555 592 CURVE SMOOTH",
"555 41 LINE SMOOTH",
"555 27 OFFCURVE",
"562 20 OFFCURVE",
"576 20 CURVE SMOOTH"
);
},
{
closed = 1;
nodes = (
"123 -1 OFFCURVE",
"132 8 OFFCURVE",
"132 20 CURVE SMOOTH",
"132 32 OFFCURVE",
"123 41 OFFCURVE",
"111 41 CURVE SMOOTH",
"99 41 OFFCURVE",
"90 32 OFFCURVE",
"90 20 CURVE SMOOTH",
"90 8 OFFCURVE",
"99 -1 OFFCURVE",
"111 -1 CURVE SMOOTH"
);
},
{
closed = 1;
nodes = (
"125 20 OFFCURVE",
"132 27 OFFCURVE",
"132 41 CURVE SMOOTH",
"132 592 LINE SMOOTH",
"132 606 OFFCURVE",
"125 613 OFFCURVE",
"111 613 CURVE SMOOTH",
"97 613 OFFCURVE",
"90 606 OFFCURVE",
"90 592 CURVE SMOOTH",
"90 41 LINE SMOOTH",
"90 27 OFFCURVE",
"97 20 OFFCURVE",
"111 20 CURVE SMOOTH"
);
},
{
closed = 1;
nodes = (
"588 -1 OFFCURVE",
"597 8 OFFCURVE",
"597 20 CURVE SMOOTH",
"597 32 OFFCURVE",
"588 41 OFFCURVE",
"576 41 CURVE SMOOTH",
"564 41 OFFCURVE",
"555 32 OFFCURVE",
"555 20 CURVE SMOOTH",
"555 8 OFFCURVE",
"564 -1 OFFCURVE",
"576 -1 CURVE SMOOTH"
);
},
{
closed = 1;
nodes = (
"555 300 LINE SMOOTH",
"569 300 OFFCURVE",
"576 307 OFFCURVE",
"576 321 CURVE SMOOTH",
"576 335 OFFCURVE",
"569 342 OFFCURVE",
"555 342 CURVE SMOOTH",
"132 342 LINE SMOOTH",
"118 342 OFFCURVE",
"111 335 OFFCURVE",
"111 321 CURVE SMOOTH",
"111 307 OFFCURVE",
"118 300 OFFCURVE",
"132 300 CURVE SMOOTH"
);
},
{
closed = 1;
nodes = (
"123 592 OFFCURVE",
"132 601 OFFCURVE",
"132 613 CURVE SMOOTH",
"132 625 OFFCURVE",
"123 634 OFFCURVE",
"111 634 CURVE SMOOTH",
"99 634 OFFCURVE",
"90 625 OFFCURVE",
"90 613 CURVE SMOOTH",
"90 601 OFFCURVE",
"99 592 OFFCURVE",
"111 592 CURVE SMOOTH"
);
},
{
closed = 1;
nodes = (
"588 592 OFFCURVE",
"597 601 OFFCURVE",
"597 613 CURVE SMOOTH",
"597 625 OFFCURVE",
"588 634 OFFCURVE",
"576 634 CURVE SMOOTH",
"564 634 OFFCURVE",
"555 625 OFFCURVE",
"555 613 CURVE SMOOTH",
"555 601 OFFCURVE",
"564 592 OFFCURVE",
"576 592 CURVE SMOOTH"
);
}
);
};
layerId = "B309FD91-69BF-47D2-8142-D25EBE917F3C";
paths = (
{
closed = 1;
nodes = (
"132 21 CURVE SMOOTH",
"132 300 LINE",
"555 300 LINE",
"555 21 LINE SMOOTH",
"555 7 OFFCURVE",
"562 0 OFFCURVE",
"576 0 CURVE SMOOTH",
"590 0 OFFCURVE",
"597 7 OFFCURVE",
"597 21 CURVE SMOOTH",
"597 612 LINE SMOOTH",
"597 626 OFFCURVE",
"590 633 OFFCURVE",
"576 633 CURVE SMOOTH",
"562 633 OFFCURVE",
"555 626 OFFCURVE",
"555 612 CURVE SMOOTH",
"555 342 LINE",
"132 342 LINE",
"132 612 LINE SMOOTH",
"132 626 OFFCURVE",
"125 633 OFFCURVE",
"111 633 CURVE SMOOTH",
"97 633 OFFCURVE",
"90 626 OFFCURVE",
"90 612 CURVE SMOOTH",
"90 21 LINE SMOOTH",
"90 7 OFFCURVE",
"97 0 OFFCURVE",
"111 0 CURVE SMOOTH",
"125 0 OFFCURVE",
"132 7 OFFCURVE"
);
}
);
width = 687;
},
{
anchors = (
{
name = bottom;
position = "{378, 0}";
},
{
name = center;
position = "{378, 498}";
},
{
name = top;
position = "{378, 665}";
},
{
name = topleft;
position = "{100, 665}";
}
);
background = {
paths = (
{
closed = 1;
nodes = (
"272 -7 OFFCURVE",
"284 7 OFFCURVE",
"284 35 CURVE SMOOTH",
"284 307 LINE",
"644 307 LINE",
"644 35 LINE SMOOTH",
"644 7 OFFCURVE",
"656 -7 OFFCURVE",
"680 -7 CURVE SMOOTH",
"704 -7 OFFCURVE",
"716 7 OFFCURVE",
"716 35 CURVE SMOOTH",
"716 600 LINE SMOOTH",
"716 629 OFFCURVE",
"704 643 OFFCURVE",
"680 643 CURVE SMOOTH",
"656 643 OFFCURVE",
"644 629 OFFCURVE",
"644 600 CURVE SMOOTH",
"644 379 LINE",
"284 379 LINE",
"284 600 LINE SMOOTH",
"284 629 OFFCURVE",
"271 643 OFFCURVE",
"246 643 CURVE SMOOTH",
"223 643 OFFCURVE",
"212 629 OFFCURVE",
"212 600 CURVE SMOOTH",
"212 35 LINE SMOOTH",
"212 7 OFFCURVE",
"224 -7 OFFCURVE",
"248 -7 CURVE SMOOTH"
);
}
);
};
layerId = "3776B938-A14A-42B9-91A8-ACB6A1608662";
paths = (
{
closed = 1;
nodes = (
"172 36 CURVE SMOOTH",
"172 301 LINE",
"584 301 LINE",
"584 36 LINE SMOOTH",
"584 16.118 OFFCURVE",
"600.118 0 OFFCURVE",
"620 0 CURVE SMOOTH",
"639.882 0 OFFCURVE",
"656 16.118 OFFCURVE",
"656 36 CURVE SMOOTH",
"656 629 LINE SMOOTH",
"656 648.882 OFFCURVE",
"639.882 665 OFFCURVE",
"620 665 CURVE SMOOTH",
"600.118 665 OFFCURVE",
"584 648.882 OFFCURVE",
"584 629 CURVE SMOOTH",
"584 373 LINE",
"172 373 LINE",
"172 629 LINE SMOOTH",
"172 648.882 OFFCURVE",
"155.882 665 OFFCURVE",
"136 665 CURVE SMOOTH",
"116.118 665 OFFCURVE",
"100 648.882 OFFCURVE",
"100 629 CURVE SMOOTH",
"100 36 LINE SMOOTH",
"100 16.118 OFFCURVE",
"116.118 0 OFFCURVE",
"136 0 CURVE SMOOTH",
"156 0 OFFCURVE",
"172 16 OFFCURVE"
);
}
);
width = 756;
}
);
leftKerningGroup = H;
rightKerningGroup = H;
unicode = 0048;
},
{
color = 4;
glyphname = I;
lastChange = "2016-07-29 19:52:54 +0000";
layers = (
{
anchors = (
{
name = bottom;
position = "{111, 0}";
},
{
name = ogonek;
position = "{111, 0}";
},
{
name = top;
position = "{111, 633}";
},
{
name = topleft;
position = "{90, 633}";
}
);
background = {
paths = (
{
closed = 1;
nodes = (
"95 -16 OFFCURVE",
"137 -16 OFFCURVE",
"137 20 CURVE SMOOTH",
"137 615 LINE SMOOTH",
"137 652 OFFCURVE",
"95 652 OFFCURVE",
"95 615 CURVE SMOOTH",
"95 20 LINE SMOOTH"
);
}
);
};
layerId = "B309FD91-69BF-47D2-8142-D25EBE917F3C";
paths = (
{
closed = 1;
nodes = (
"132 21 CURVE SMOOTH",
"132 613 LINE SMOOTH",
"132 625 OFFCURVE",
"123 634 OFFCURVE",
"111 634 CURVE SMOOTH",
"99 634 OFFCURVE",
"90 625 OFFCURVE",
"90 613 CURVE SMOOTH",
"90 21 LINE SMOOTH",
"90 9 OFFCURVE",
"99 0 OFFCURVE",
"111 0 CURVE SMOOTH",
"123 0 OFFCURVE",
"132 9 OFFCURVE"
);
}
);
width = 222;
},
{
anchors = (
{
name = bottom;
position = "{136, 0}";
},
{
name = ogonek;
position = "{116, 5}";
},
{
name = top;
position = "{136, 665}";
},
{
name = topleft;
position = "{100, 665}";
}
);
background = {
paths = (
{
closed = 1;
nodes = (
"180 -7 OFFCURVE",
"192 6.333 OFFCURVE",
"192 33 CURVE SMOOTH",
"192 602 LINE SMOOTH",
"192 629.333 OFFCURVE",
"180 643 OFFCURVE",
"156 643 CURVE SMOOTH",
"132 643 OFFCURVE",
"120 629.333 OFFCURVE",
"120 602 CURVE SMOOTH",
"120 33 LINE SMOOTH",
"120 6.333 OFFCURVE",
"132 -7 OFFCURVE",
"156 -7 CURVE SMOOTH"
);
}
);
};
layerId = "3776B938-A14A-42B9-91A8-ACB6A1608662";
paths = (
{
closed = 1;
nodes = (
"172 36 CURVE SMOOTH",
"172 629 LINE SMOOTH",
"172 653 OFFCURVE",
"160 665 OFFCURVE",
"136 665 CURVE SMOOTH",
"112 665 OFFCURVE",
"100 653 OFFCURVE",
"100 629 CURVE SMOOTH",
"100 36 LINE SMOOTH",
"100 12 OFFCURVE",
"112 0 OFFCURVE",
"136 0 CURVE SMOOTH",
"160 0 OFFCURVE",
"172 12 OFFCURVE"
);
}
);
width = 272;
}
);
leftKerningGroup = H;
leftMetricsKey = H;
rightKerningGroup = H;
rightMetricsKey = H;
unicode = 0049;
},
{
color = 4;
glyphname = J;
lastChange = "2016-07-29 20:11:23 +0000";
layers = (
{
anchors = (
{
name = bottom;
position = "{219, 0}";
},
{
name = top;
position = "{391, 633}";
}
);
background = {
paths = (
{
closed = 1;
nodes = (
"231 1 LINE SMOOTH",
"360.213 1 OFFCURVE",
"414 54.787 OFFCURVE",
"414 184 CURVE SMOOTH",
"414 612 LINE SMOOTH",
"414 625.65 OFFCURVE",
"406.65 633 OFFCURVE",
"393 633 CURVE SMOOTH",
"379.35 633 OFFCURVE",
"372 625.65 OFFCURVE",
"372 612 CURVE SMOOTH",
"372 184 LINE SMOOTH",
"372 78.173 OFFCURVE",
"336.827 43 OFFCURVE",
"231 43 CURVE SMOOTH",
"204 43 LINE SMOOTH",
"105.567 43 OFFCURVE",
"68.26 73.43 OFFCURVE",
"63.527 162.841 CURVE SMOOTH",
"62.797 176.642 OFFCURVE",
"55.798 184 OFFCURVE",
"42.268 184 CURVE SMOOTH",
"28.499 184 OFFCURVE",
"20.813 176.368 OFFCURVE",
"21.542 162.377 CURVE SMOOTH",
"27.46 48.757 OFFCURVE",
"82.244 1 OFFCURVE",
"204 1 CURVE SMOOTH"
);
}
);
};
layerId = "B309FD91-69BF-47D2-8142-D25EBE917F3C";
paths = (
{
closed = 1;
nodes = (
"231 0 LINE SMOOTH",
"360.213 0 OFFCURVE",
"414 53.787 OFFCURVE",
"414 183 CURVE SMOOTH",
"414 612 LINE SMOOTH",
"414 625.65 OFFCURVE",
"406.65 633 OFFCURVE",
"393 633 CURVE SMOOTH",
"379.35 633 OFFCURVE",
"372 625.65 OFFCURVE",
"372 612 CURVE SMOOTH",
"372 183 LINE SMOOTH",
"372 77.173 OFFCURVE",
"336.827 42 OFFCURVE",
"231 42 CURVE SMOOTH",
"204 42 LINE SMOOTH",
"105.567 42 OFFCURVE",
"68.26 72.43 OFFCURVE",
"63.527 161.841 CURVE SMOOTH",
"62.797 175.642 OFFCURVE",
"55.798 183 OFFCURVE",
"42.268 183 CURVE SMOOTH",
"28.499 183 OFFCURVE",
"20.813 175.368 OFFCURVE",
"21.542 161.377 CURVE SMOOTH",
"27.46 47.757 OFFCURVE",
"82.244 0 OFFCURVE",
"204 0 CURVE SMOOTH"
);
}
);
width = 494;
},
{
anchors = (
{
name = bottom;
position = "{264.833, 0}";
},
{
name = top;
position = "{455.574, 665}";
}
);
background = {
paths = (
{
closed = 0;
nodes = (
"64.574 198 LINE",
"64.574 79 OFFCURVE",
"110.574 36 OFFCURVE",
"226.574 36 CURVE",
"293.574 36 LINE",
"409.574 36 OFFCURVE",
"455.574 79 OFFCURVE",
"455.574 198 CURVE",
"455.574 665 LINE"
);
}
);
};
layerId = "3776B938-A14A-42B9-91A8-ACB6A1608662";
paths = (
{
closed = 1;
nodes = (
"293.574 0 LINE SMOOTH",
"430.735 0 OFFCURVE",
"491.574 60.18 OFFCURVE",
"491.574 198 CURVE SMOOTH",
"491.574 629 LINE SMOOTH",
"491.574 652.4 OFFCURVE",
"478.974 665 OFFCURVE",
"455.574 665 CURVE SMOOTH",
"432.174 665 OFFCURVE",
"419.574 652.4 OFFCURVE",
"419.574 629 CURVE SMOOTH",
"419.574 198 LINE SMOOTH",
"419.574 100.305 OFFCURVE",
"390.61 72 OFFCURVE",
"293.574 72 CURVE SMOOTH",
"226.574 72 LINE SMOOTH",
"142.624 72 OFFCURVE",
"109.624 93.185 OFFCURVE",
"102.251 162.162 CURVE SMOOTH",
"99.752 185.581 OFFCURVE",
"88.449 198 OFFCURVE",
"65.434 198 CURVE SMOOTH",
"41.634 198 OFFCURVE",
"27.958 184.714 OFFCURVE",
"30.249 160.664 CURVE SMOOTH",
"40.876 49.246 OFFCURVE",
"102.498 0 OFFCURVE",
"226.574 0 CURVE SMOOTH"
);
}
);
width = 582;
}
);
leftKerningGroup = J;
rightKerningGroup = U;
rightMetricsKey = U;
unicode = 004A;
},
{
color = 4;
glyphname = K;
lastChange = "2016-07-29 19:52:54 +0000";
layers = (
{
anchors = (
{
name = bottom;
position = "{273, 0}";
},
{
name = top;
position = "{263, 633}";
}
);
background = {
paths = (
{
closed = 0;
nodes = (
"111 633 LINE",
"111 0 LINE"
);
},
{
closed = 0;
nodes = (
"112 257 LINE",
"472 626 LINE"
);
},
{
closed = 0;
nodes = (
"217 365 LINE",
"510 1 LINE"
);
}
);
};
layerId = "B309FD91-69BF-47D2-8142-D25EBE917F3C";
paths = (
{
closed = 1;
nodes = (
"130 245 CURVE SMOOTH",
"473 596 LINE SMOOTH",
"482 606 OFFCURVE",
"482 617 OFFCURVE",
"472 626 CURVE SMOOTH",
"462 636 OFFCURVE",
"452 635 OFFCURVE",
"443 626 CURVE SMOOTH",
"100 275 LINE SMOOTH",
"90 265 OFFCURVE",
"90 254 OFFCURVE",
"100 245 CURVE SMOOTH",
"110 235 OFFCURVE",
"120 236 OFFCURVE"
);
},
{
closed = 1;
nodes = (
"132 21 CURVE SMOOTH",
"132 612 LINE SMOOTH",
"132 626 OFFCURVE",
"125 633 OFFCURVE",
"111 633 CURVE SMOOTH",
"97 633 OFFCURVE",
"90 626 OFFCURVE",
"90 612 CURVE SMOOTH",
"90 21 LINE SMOOTH",
"90 7 OFFCURVE",
"97 0 OFFCURVE",
"111 0 CURVE SMOOTH",
"125 0 OFFCURVE",
"132 7 OFFCURVE"
);
},
{
closed = 1;
nodes = (
"513 31 CURVE SMOOTH",
"241 368 LINE SMOOTH",
"233 379 OFFCURVE",
"222 380 OFFCURVE",
"212 371 CURVE SMOOTH",
"201 363 OFFCURVE",
"200 352 OFFCURVE",
"209 342 CURVE SMOOTH",
"481 4 LINE SMOOTH",
"489 -6 OFFCURVE",
"499 -8 OFFCURVE",
"510 1 CURVE SMOOTH",
"521 10 OFFCURVE",
"522 20 OFFCURVE"
);
}
);
width = 539;
},
{
anchors = (
{
name = bottom;
position = "{287, 0}";
},
{
name = top;
position = "{287, 665}";
}
);
background = {
paths = (
{
closed = 0;
nodes = (
"136 665 LINE",
"136 0 LINE"
);
},
{
closed = 0;
nodes = (
"136.948 285.047 LINE",
"507.882 665 LINE"
);
},
{
closed = 0;
nodes = (
"229.747 379.88 LINE",
"535.065 1.035 LINE"
);
}
);
};
layerId = "3776B938-A14A-42B9-91A8-ACB6A1608662";
paths = (
{
closed = 1;
nodes = (
"166.278 263.398 CURVE SMOOTH",
"494.174 601.662 LINE SMOOTH",
"510.461 618.464 OFFCURVE",
"510.307 636.224 OFFCURVE",
"493.563 652.57 CURVE SMOOTH",
"476.819 668.917 OFFCURVE",
"458.942 668.761 OFFCURVE",
"442.655 651.959 CURVE SMOOTH",
"114.758 313.694 LINE SMOOTH",
"98.469 296.895 OFFCURVE",
"98.626 279.133 OFFCURVE",
"115.37 262.786 CURVE SMOOTH",
"132 246 OFFCURVE",
"150 247 OFFCURVE"
);
},
{
closed = 1;
nodes = (
"172 36 CURVE SMOOTH",
"172 629 LINE SMOOTH",
"172 652.4 OFFCURVE",
"159.4 665 OFFCURVE",
"136 665 CURVE SMOOTH",
"112.6 665 OFFCURVE",
"100 652.4 OFFCURVE",
"100 629 CURVE SMOOTH",
"100 36 LINE SMOOTH",
"100 12.6 OFFCURVE",
"112.6 0 OFFCURVE",
"136 0 CURVE SMOOTH",
"159 0 OFFCURVE",
"172 13 OFFCURVE"
);
},
{
closed = 1;
nodes = (
"533.212 60.705 CURVE SMOOTH",
"272.995 383.588 LINE SMOOTH",
"258.311 401.807 OFFCURVE",
"240.594 403.711 OFFCURVE",
"222.375 389.028 CURVE SMOOTH",
"204.155 374.344 OFFCURVE",
"202.251 356.627 OFFCURVE",
"216.934 338.408 CURVE SMOOTH",
"477.151 15.525 LINE SMOOTH",
"491.835 -2.695 OFFCURVE",
"509.552 -4.599 OFFCURVE",
"527.772 10.085 CURVE SMOOTH",
"546 25 OFFCURVE",
"548 42 OFFCURVE"
);
}
);
width = 572.984;
}
);
leftKerningGroup = H;
leftMetricsKey = H;
rightKerningGroup = K;
unicode = 004B;
},
{
color = 4;
glyphname = L;
lastChange = "2016-07-29 19:52:54 +0000";
layers = (
{
anchors = (
{
name = bottom;
position = "{274, 0}";
},
{
name = center;
position = "{136, 317}";
},
{
name = top;
position = "{111, 633}";
},
{
name = topright;
position = "{212, 416}";
}
);
background = {
paths = (
{
closed = 1;
nodes = (
"445 0 LINE SMOOTH",
"459 0 OFFCURVE",
"466 7 OFFCURVE",
"466 21 CURVE SMOOTH",
"466 35 OFFCURVE",
"459 42 OFFCURVE",
"445 42 CURVE SMOOTH",
"132 42 LINE",
"132 612 LINE SMOOTH",
"132 626 OFFCURVE",
"125 633 OFFCURVE",
"111 633 CURVE SMOOTH",
"97 633 OFFCURVE",
"90 626 OFFCURVE",
"90 612 CURVE SMOOTH",
"90 21 LINE SMOOTH",
"90 7 OFFCURVE",
"97 0 OFFCURVE",
"111 0 CURVE SMOOTH"
);
}
);
};
layerId = "B309FD91-69BF-47D2-8142-D25EBE917F3C";
paths = (
{
closed = 1;
nodes = (
"445 0 LINE SMOOTH",
"459 0 OFFCURVE",
"466 7 OFFCURVE",
"466 21 CURVE SMOOTH",
"466 35 OFFCURVE",
"459 42 OFFCURVE",
"445 42 CURVE SMOOTH",
"132 42 LINE",
"132 612 LINE SMOOTH",
"132 626 OFFCURVE",
"125 633 OFFCURVE",
"111 633 CURVE SMOOTH",
"97 633 OFFCURVE",
"90 626 OFFCURVE",
"90 612 CURVE SMOOTH",
"90 21 LINE SMOOTH",
"90 7 OFFCURVE",
"97 0 OFFCURVE",
"111 0 CURVE SMOOTH"
);
}
);
width = 486;
},
{
anchors = (
{
name = bottom;
position = "{308.074, 0}";
},
{
name = center;
position = "{152, 315}";
},
{
name = top;
position = "{136, 665}";
},
{
name = topright;
position = "{232, 443}";
}
);
background = {
paths = (
{
closed = 0;
nodes = (
"136 629 LINE",
"136 36 LINE",
"459 36 LINE"
);
}
);
};
layerId = "3776B938-A14A-42B9-91A8-ACB6A1608662";
paths = (
{
closed = 1;
nodes = (
"459 0 LINE SMOOTH",
"483 0 OFFCURVE",
"495 12 OFFCURVE",
"495 36 CURVE SMOOTH",
"495 60 OFFCURVE",
"483 72 OFFCURVE",
"459 72 CURVE SMOOTH",
"172 72 LINE",
"172 629 LINE SMOOTH",
"172 653 OFFCURVE",
"160 665 OFFCURVE",
"136 665 CURVE SMOOTH",
"112 665 OFFCURVE",
"100 653 OFFCURVE",
"100 629 CURVE SMOOTH",
"100 36 LINE SMOOTH",
"100 12 OFFCURVE",
"112 0 OFFCURVE",
"136 0 CURVE SMOOTH"
);
}
);
width = 525;
}
);
leftKerningGroup = H;
leftMetricsKey = H;
rightKerningGroup = L;
unicode = 004C;
},
{
color = 4;
glyphname = M;
lastChange = "2016-07-29 19:52:54 +0000";
layers = (
{
anchors = (
{
name = bottom;
position = "{384, 0}";
},
{
name = top;
position = "{384, 633}";
}
);
background = {
paths = (
{
closed = 1;
nodes = (
"125 0 OFFCURVE",
"132 7 OFFCURVE",
"132 21 CURVE SMOOTH",
"132 561 LINE SMOOTH",
"132 578 OFFCURVE",
"111 588 OFFCURVE",
"118 571 CURVE SMOOTH",
"119 569 OFFCURVE",
"120 568 OFFCURVE",
"121 566 CURVE SMOOTH",
"359 200 LINE SMOOTH",
"365 190 OFFCURVE",
"373 186 OFFCURVE",
"384 186 CURVE SMOOTH",
"395 186 OFFCURVE",
"403 190 OFFCURVE",
"409 200 CURVE SMOOTH",
"647 566 LINE SMOOTH",
"656 580 OFFCURVE",
"660 591 OFFCURVE",
"656 591 CURVE SMOOTH",
"642 591 OFFCURVE",
"635 584 OFFCURVE",
"635 570 CURVE SMOOTH",
"635 21 LINE SMOOTH",
"635 7 OFFCURVE",
"642 0 OFFCURVE",
"656 0 CURVE SMOOTH",
"670 0 OFFCURVE",
"677 7 OFFCURVE",
"677 21 CURVE SMOOTH",
"677 612 LINE SMOOTH",
"677 626 OFFCURVE",
"670 633 OFFCURVE",
"657 633 CURVE SMOOTH",
"646 633 OFFCURVE",
"638 629 OFFCURVE",
"632 619 CURVE SMOOTH",
"399 261 LINE SMOOTH",
"388 245 OFFCURVE",
"374 253 OFFCURVE",
"374 253 CURVE",
"136 619 LINE SMOOTH",
"130 629 OFFCURVE",
"122 633 OFFCURVE",
"111 633 CURVE SMOOTH",
"97 633 OFFCURVE",
"90 626 OFFCURVE",
"90 612 CURVE SMOOTH",
"90 21 LINE SMOOTH",
"90 7 OFFCURVE",
"97 0 OFFCURVE",
"111 0 CURVE SMOOTH"
);
},
{
closed = 1;
nodes = (
"123 -21 OFFCURVE",
"132 -12 OFFCURVE",
"132 0 CURVE SMOOTH",
"132 12 OFFCURVE",
"123 21 OFFCURVE",
"111 21 CURVE SMOOTH",
"99 21 OFFCURVE",
"90 12 OFFCURVE",
"90 0 CURVE SMOOTH",
"90 -12 OFFCURVE",
"99 -21 OFFCURVE",
"111 -21 CURVE SMOOTH"
);
},
{
closed = 1;
nodes = (
"668 -21 OFFCURVE",
"677 -12 OFFCURVE",
"677 0 CURVE SMOOTH",
"677 12 OFFCURVE",
"668 21 OFFCURVE",
"656 21 CURVE SMOOTH",
"644 21 OFFCURVE",
"635 12 OFFCURVE",
"635 0 CURVE SMOOTH",
"635 -12 OFFCURVE",
"644 -21 OFFCURVE",
"656 -21 CURVE SMOOTH"
);
}
);
};
guideLines = (
{
angle = 90;
position = "{384, 377}";
}
);
layerId = "B309FD91-69BF-47D2-8142-D25EBE917F3C";
paths = (
{
closed = 1;
nodes = (
"132 21 CURVE SMOOTH",
"132 561 LINE SMOOTH",
"132 578 OFFCURVE",
"111 588 OFFCURVE",
"118 571 CURVE SMOOTH",
"119 569 OFFCURVE",
"120 568 OFFCURVE",
"121 566 CURVE SMOOTH",
"359 200 LINE SMOOTH",
"365 190 OFFCURVE",
"373 186 OFFCURVE",
"384 186 CURVE SMOOTH",
"395 186 OFFCURVE",
"403 190 OFFCURVE",
"409 200 CURVE SMOOTH",
"647 566 LINE SMOOTH",
"656 580 OFFCURVE",
"660 591 OFFCURVE",
"656 591 CURVE SMOOTH",
"642 591 OFFCURVE",
"635 584 OFFCURVE",
"635 570 CURVE SMOOTH",
"635 21 LINE SMOOTH",
"635 7 OFFCURVE",
"642 0 OFFCURVE",
"656 0 CURVE SMOOTH",
"670 0 OFFCURVE",
"677 7 OFFCURVE",
"677 21 CURVE SMOOTH",
"677 612 LINE SMOOTH",
"677 626 OFFCURVE",
"670 633 OFFCURVE",
"657 633 CURVE SMOOTH",
"646 633 OFFCURVE",
"638 629 OFFCURVE",
"632 619 CURVE SMOOTH",
"379 229 LINE",
"389 230 LINE",
"136 619 LINE SMOOTH",
"130 629 OFFCURVE",
"122 633 OFFCURVE",
"111 633 CURVE SMOOTH",
"97 633 OFFCURVE",
"90 626 OFFCURVE",
"90 612 CURVE SMOOTH",
"90 21 LINE SMOOTH",
"90 7 OFFCURVE",
"97 0 OFFCURVE",
"111 0 CURVE SMOOTH",
"125 0 OFFCURVE",
"132 7 OFFCURVE"
);
}
);
width = 767;
},
{
anchors = (
{
name = bottom;
position = "{411, 0}";
},
{
name = top;
position = "{411, 665}";
}
);
background = {
paths = (
{
closed = 0;
nodes = (
"136 0 LINE",
"136 628.885 LINE",
"141 628.885 LINE",
"404 237 LINE",
"414 237 LINE",
"677 629 LINE",
"681 629 LINE",
"681 0 LINE"
);
}
);
};
layerId = "3776B938-A14A-42B9-91A8-ACB6A1608662";
paths = (
{
closed = 1;
nodes = (
"172 36 CURVE SMOOTH",
"172 543.065 LINE SMOOTH",
"172 571.781 OFFCURVE",
"135.829 590.604 OFFCURVE",
"144.449 562.54 CURVE SMOOTH",
"145.763 558.374 OFFCURVE",
"147.954 553.921 OFFCURVE",
"151.071 549.276 CURVE SMOOTH",
"369.267 224.152 LINE SMOOTH",
"380.124 207.974 OFFCURVE",
"390.982 201 OFFCURVE",
"405.315 201 CURVE SMOOTH",
"424.799 201 OFFCURVE",
"437.878 207.975 OFFCURVE",
"448.734 224.155 CURVE SMOOTH",
"666.941 549.392 LINE SMOOTH",
"683.416 573.947 OFFCURVE",
"689.558 593 OFFCURVE",
"681 593 CURVE SMOOTH",
"657.6 593 OFFCURVE",
"645 580.4 OFFCURVE",
"645 557 CURVE SMOOTH",
"645 36 LINE SMOOTH",
"645 12.6 OFFCURVE",
"657.6 0 OFFCURVE",
"681 0 CURVE SMOOTH",
"704.4 0 OFFCURVE",
"717 12.6 OFFCURVE",
"717 36 CURVE SMOOTH",
"717 629 LINE SMOOTH",
"717 652.4 OFFCURVE",
"707.04 665 OFFCURVE",
"686.685 665 CURVE SMOOTH",
"667.201 665 OFFCURVE",
"654 658.107 OFFCURVE",
"643.266 641.845 CURVE SMOOTH",
"400.852 274.565 LINE",
"417.144 277.3 LINE",
"175.733 641.733 LINE SMOOTH",
"164.973 657.976 OFFCURVE",
"152.907 664.885 OFFCURVE",
"136 664.885 CURVE SMOOTH",
"112.6 664.885 OFFCURVE",
"100 652.285 OFFCURVE",
"100 628.885 CURVE SMOOTH",
"100 36 LINE SMOOTH",
"100 12.6 OFFCURVE",
"112.6 0 OFFCURVE",
"136 0 CURVE SMOOTH",
"159 0 OFFCURVE",
"172 13 OFFCURVE"
);
}
);
width = 817;
},
{
anchors = (
{
name = bottom;
position = "{373, 0}";
},
{
name = top;
position = "{373, 665}";
}
);
associatedMasterId = "3776B938-A14A-42B9-91A8-ACB6A1608662";
background = {
paths = (
{
closed = 0;
nodes = (
"100 629 LINE",
"100 36 LINE"
);
},
{
closed = 0;
nodes = (
"645 629 LINE",
"645 36 LINE"
);
},
{
closed = 0;
nodes = (
"102 629 LINE",
"372 223 LINE"
);
},
{
closed = 0;
nodes = (
"644 629 LINE",
"374 223 LINE"
);
}
);
};
layerId = "72B68F94-7EC2-4A3E-9169-8F62191941CC";
name = "SemiBold Jul 26 16, 18:41";
paths = (
{
closed = 1;
nodes = (
"119.882 0 OFFCURVE",
"136 16.118 OFFCURVE",
"136 36 CURVE SMOOTH",
"136 512.862 LINE",
"341.756 203.466 LINE SMOOTH",
"348.945 192.358 OFFCURVE",
"360.164 187 OFFCURVE",
"374 187 CURVE SMOOTH",
"386.681 187 OFFCURVE",
"397.831 193.558 OFFCURVE",
"404.244 203.467 CURVE SMOOTH",
"609 511.359 LINE",
"609 36 LINE SMOOTH",
"609 16.118 OFFCURVE",
"625.118 0 OFFCURVE",
"645 0 CURVE SMOOTH",
"664.882 0 OFFCURVE",
"681 16.118 OFFCURVE",
"681 36 CURVE SMOOTH",
"681 629 LINE SMOOTH",
"681 648.882 OFFCURVE",
"666.882 665 OFFCURVE",
"646.507 664.996 CURVE",
"635.606 664.999 OFFCURVE",
"622.43 661.936 OFFCURVE",
"613.756 648.533 CURVE SMOOTH",
"373 286.508 LINE",
"132.244 648.533 LINE SMOOTH",
"127.188 656.346 OFFCURVE",
"116.733 664.569 OFFCURVE",
"101.229 664.984 CURVE SMOOTH",
"100 665 LINE SMOOTH",
"80.118 665 OFFCURVE",
"64 648.882 OFFCURVE",
"64 629 CURVE SMOOTH",
"64 36 LINE SMOOTH",
"64 16.118 OFFCURVE",
"80.118 0 OFFCURVE",
"100 0 CURVE SMOOTH"
);
}
);
width = 745;
}
);
leftKerningGroup = H;
leftMetricsKey = H;
rightKerningGroup = H;
rightMetricsKey = H;
unicode = 004D;
},
{
color = 4;
glyphname = N;
lastChange = "2016-07-29 19:52:54 +0000";
layers = (
{
anchors = (
{
name = bottom;
position = "{353, 0}";
},
{
name = top;
position = "{353, 633}";
}
);
background = {
paths = (
{
closed = 0;
nodes = (
"108 0 LINE",
"108 629 LINE",
"110 629 LINE",
"571 36 LINE",
"573 36 LINE",
"573 665 LINE"
);
}
);
};
layerId = "B309FD91-69BF-47D2-8142-D25EBE917F3C";
paths = (
{
closed = 1;
nodes = (
"132 21 CURVE SMOOTH",
"132 560 LINE",
"123 565 LINE",
"554 12 LINE SMOOTH",
"561 4 OFFCURVE",
"567 0 OFFCURVE",
"576 0 CURVE SMOOTH",
"590 0 OFFCURVE",
"597 7 OFFCURVE",
"597 21 CURVE SMOOTH",
"597 612 LINE SMOOTH",
"597 626 OFFCURVE",
"590 633 OFFCURVE",
"576 633 CURVE SMOOTH",
"562 633 OFFCURVE",
"555 626 OFFCURVE",
"555 612 CURVE SMOOTH",
"555 73 LINE",
"564 68 LINE",
"133 621 LINE SMOOTH",
"126 629 OFFCURVE",
"120 633 OFFCURVE",
"111 633 CURVE SMOOTH",
"97 633 OFFCURVE",
"90 626 OFFCURVE",
"90 612 CURVE SMOOTH",
"90 21 LINE SMOOTH",
"90 7 OFFCURVE",
"97 0 OFFCURVE",
"111 0 CURVE SMOOTH",
"125 0 OFFCURVE",
"132 7 OFFCURVE"
);
}
);
width = 687;
},
{
anchors = (
{
name = bottom;
position = "{369, 0}";
},
{
name = top;
position = "{369, 665}";
}
);
background = {
paths = (
{
closed = 0;
nodes = (
"136 0 LINE",
"136 629 LINE",
"138 629 LINE",
"599.134 36 LINE",
"601 36 LINE",
"601 665 LINE"
);
}
);
};
layerId = "3776B938-A14A-42B9-91A8-ACB6A1608662";
paths = (
{
closed = 1;
nodes = (
"172 36 CURVE SMOOTH",
"172 541.351 LINE",
"154.597 549.013 LINE",
"564.839 21.458 LINE SMOOTH",
"576.573 6.367 OFFCURVE",
"587.304 0 OFFCURVE",
"601 0 CURVE SMOOTH",
"624.4 0 OFFCURVE",
"637 12.6 OFFCURVE",
"637 36 CURVE SMOOTH",
"637 629 LINE SMOOTH",
"637 652.4 OFFCURVE",
"624.4 665 OFFCURVE",
"601 665 CURVE SMOOTH",
"577.6 665 OFFCURVE",
"565 652.4 OFFCURVE",
"565 629 CURVE SMOOTH",
"565 123.539 LINE",
"582.537 115.987 LINE",
"172.295 643.542 LINE SMOOTH",
"160.561 658.633 OFFCURVE",
"149.79 665 OFFCURVE",
"136 665 CURVE SMOOTH",
"112.6 665 OFFCURVE",
"100 652.4 OFFCURVE",
"100 629 CURVE SMOOTH",
"100 36 LINE SMOOTH",
"100 12.6 OFFCURVE",
"112.6 0 OFFCURVE",
"136 0 CURVE SMOOTH",
"159 0 OFFCURVE",
"172 13 OFFCURVE"
);
}
);
width = 737;
},
{
anchors = (
{
name = bottom;
position = "{369, 0}";
},
{
name = top;
position = "{369, 665}";
}
);
associatedMasterId = "3776B938-A14A-42B9-91A8-ACB6A1608662";
background = {
paths = (
{
closed = 0;
nodes = (
"136 0 LINE",
"136 629 LINE",
"138 629 LINE",
"599.134 36 LINE",
"601 36 LINE",
"601 665 LINE"
);
}
);
};
layerId = "DF4C16C3-11D9-4233-96B9-4B327D5B6BC2";
name = "SemiBold Jul 26 16, 18:42";
paths = (
{
closed = 1;
nodes = (
"159.4 0 OFFCURVE",
"172 12.6 OFFCURVE",
"172 36 CURVE SMOOTH",
"172 541.351 LINE SMOOTH",
"172 570.653 OFFCURVE",
"135.368 587.572 OFFCURVE",
"147.671 560.124 CURVE SMOOTH",
"149.319 556.568 OFFCURVE",
"151.618 552.843 OFFCURVE",
"154.597 549.013 CURVE SMOOTH",
"564.839 21.458 LINE SMOOTH",
"576.573 6.367 OFFCURVE",
"587.304 0 OFFCURVE",
"601 0 CURVE SMOOTH",
"624.4 0 OFFCURVE",
"637 12.6 OFFCURVE",
"637 36 CURVE SMOOTH",
"637 629 LINE SMOOTH",
"637 652.4 OFFCURVE",
"624.4 665 OFFCURVE",
"601 665 CURVE SMOOTH",
"577.6 665 OFFCURVE",
"565 652.4 OFFCURVE",
"565 629 CURVE SMOOTH",
"565 123.539 LINE SMOOTH",
"565 94.272 OFFCURVE",
"601.677 77.253 OFFCURVE",
"589.521 104.731 CURVE SMOOTH",
"587.875 108.33 OFFCURVE",
"585.557 112.104 OFFCURVE",
"582.537 115.987 CURVE SMOOTH",
"172.295 643.542 LINE SMOOTH",
"160.561 658.633 OFFCURVE",
"149.79 665 OFFCURVE",
"136 665 CURVE SMOOTH",
"112.6 665 OFFCURVE",
"100 652.4 OFFCURVE",
"100 629 CURVE SMOOTH",
"100 36 LINE SMOOTH",
"100 12.6 OFFCURVE",
"112.6 0 OFFCURVE",
"136 0 CURVE SMOOTH"
);
}
);
width = 737;
}
);
leftKerningGroup = H;
leftMetricsKey = H;
rightKerningGroup = H;
rightMetricsKey = H;
unicode = 004E;
},
{
color = 4;
glyphname = Eng;
lastChange = "2016-07-29 20:03:06 +0000";
layers = (
{
background = {
anchors = (
{
name = bottom;
position = "{289, -200}";
},
{
name = top;
position = "{301, 461}";
}
);
paths = (
{
closed = 1;
nodes = (
"484 -200 LINE SMOOTH",
"569 -200 OFFCURVE",
"607 -162 OFFCURVE",
"607 -77 CURVE SMOOTH",
"607 140 LINE SMOOTH",
"607 154 OFFCURVE",
"600 161 OFFCURVE",
"586 161 CURVE SMOOTH",
"572 161 OFFCURVE",
"565 154 OFFCURVE",
"565 140 CURVE SMOOTH",
"565 -77 LINE SMOOTH",
"565 -139 OFFCURVE",
"546 -158 OFFCURVE",
"484 -158 CURVE SMOOTH",
"375 -158 LINE SMOOTH",
"321 -158 OFFCURVE",
"298 -144 OFFCURVE",
"295 -98 CURVE SMOOTH",
"294 -84 OFFCURVE",
"287 -77 OFFCURVE",
"273 -77 CURVE SMOOTH",
"260 -77 OFFCURVE",
"252 -85 OFFCURVE",
"253 -99 CURVE SMOOTH",
"258 -169 OFFCURVE",
"297 -200 OFFCURVE",
"375 -200 CURVE SMOOTH"
);
}
);
};
components = (
{
name = N;
}
);
layerId = "B309FD91-69BF-47D2-8142-D25EBE917F3C";
paths = (
{
closed = 1;
nodes = (
"484 -200 LINE SMOOTH",
"569 -200 OFFCURVE",
"607 -162 OFFCURVE",
"607 -77 CURVE SMOOTH",
"607 140 LINE SMOOTH",
"607 154 OFFCURVE",
"600 161 OFFCURVE",
"586 161 CURVE SMOOTH",
"572 161 OFFCURVE",
"565 154 OFFCURVE",
"565 140 CURVE SMOOTH",
"565 -77 LINE SMOOTH",
"565 -139 OFFCURVE",
"546 -158 OFFCURVE",
"484 -158 CURVE SMOOTH",
"375 -158 LINE SMOOTH",
"321 -158 OFFCURVE",
"298 -144 OFFCURVE",
"295 -98 CURVE SMOOTH",
"294 -84 OFFCURVE",
"287 -77 OFFCURVE",
"273 -77 CURVE SMOOTH",
"260 -77 OFFCURVE",
"252 -85 OFFCURVE",
"253 -99 CURVE SMOOTH",
"258 -169 OFFCURVE",
"297 -200 OFFCURVE",
"375 -200 CURVE SMOOTH"
);
}
);
width = 697;
},
{
background = {
paths = (
{
closed = 1;
nodes = (
"484 -200 LINE SMOOTH",
"569 -200 OFFCURVE",
"607 -162 OFFCURVE",
"607 -77 CURVE SMOOTH",
"607 140 LINE SMOOTH",
"607 154 OFFCURVE",
"600 161 OFFCURVE",
"586 161 CURVE SMOOTH",
"572 161 OFFCURVE",
"565 154 OFFCURVE",
"565 140 CURVE SMOOTH",
"565 -77 LINE SMOOTH",
"565 -139 OFFCURVE",
"546 -158 OFFCURVE",
"484 -158 CURVE SMOOTH",
"375 -158 LINE SMOOTH",
"321 -158 OFFCURVE",
"298 -144 OFFCURVE",
"295 -98 CURVE SMOOTH",
"294 -84 OFFCURVE",
"287 -77 OFFCURVE",
"273 -77 CURVE SMOOTH",
"260 -77 OFFCURVE",
"252 -85 OFFCURVE",
"253 -99 CURVE SMOOTH",
"258 -169 OFFCURVE",
"297 -200 OFFCURVE",
"375 -200 CURVE SMOOTH"
);
}
);
};
components = (
{
name = N;
}
);
layerId = "3776B938-A14A-42B9-91A8-ACB6A1608662";
paths = (
{
closed = 1;
nodes = (
"499 -200 LINE SMOOTH",
"593 -200 OFFCURVE",
"637 -156 OFFCURVE",
"637 -62 CURVE SMOOTH",
"637 408 LINE SMOOTH",
"637 431 OFFCURVE",
"624 444 OFFCURVE",
"601 444 CURVE SMOOTH",
"578 444 OFFCURVE",
"565 431 OFFCURVE",
"565 408 CURVE SMOOTH",
"565 -62 LINE SMOOTH",
"565 -115 OFFCURVE",
"552 -128 OFFCURVE",
"499 -128 CURVE SMOOTH",
"383 -128 LINE SMOOTH",
"344 -128 OFFCURVE",
"327 -121 OFFCURVE",
"320 -97 CURVE SMOOTH",
"313 -74 OFFCURVE",
"305 -62 OFFCURVE",
"283 -62 CURVE SMOOTH",
"258 -62 OFFCURVE",
"244 -76 OFFCURVE",
"248 -100 CURVE SMOOTH",
"259 -168 OFFCURVE",
"303 -200 OFFCURVE",
"383 -200 CURVE SMOOTH"
);
}
);
width = 737;
}
);
leftKerningGroup = H;
leftMetricsKey = N;
rightKerningGroup = H;
rightMetricsKey = N;
unicode = 014A;
},
{
color = 4;
glyphname = O;
lastChange = "2016-07-29 19:44:24 +0000";
layers = (
{
anchors = (
{
name = bottom;
position = "{343, 0}";
},
{
name = center;
position = "{343, 317}";
},
{
name = ogonek;
position = "{508, 20}";
},
{
name = top;
position = "{343, 633}";
},
{
name = topleft;
position = "{80, 633}";
},
{
name = topright;
position = "{533, 604}";
}
);
background = {
paths = (
{
closed = 1;
nodes = (
"531 22 OFFCURVE",
"583 74 OFFCURVE",
"583 204 CURVE",
"583 430 LINE",
"583 560 OFFCURVE",
"531 612 OFFCURVE",
"401 612 CURVE",
"281 612 LINE",
"152 613 OFFCURVE",
"99 562 OFFCURVE",
"99 431 CURVE",
"99 204 LINE",
"99 74 OFFCURVE",
"151 22 OFFCURVE",
"281 22 CURVE",
"401 22 LINE"
);
}
);
};
layerId = "B309FD91-69BF-47D2-8142-D25EBE917F3C";
paths = (
{
closed = 1;
nodes = (
"403 0 LINE SMOOTH",
"545 0 OFFCURVE",
"606 61 OFFCURVE",
"606 203 CURVE SMOOTH",
"606 430 LINE SMOOTH",
"606 572 OFFCURVE",
"545 633 OFFCURVE",
"403 633 CURVE SMOOTH",
"282 633 LINE SMOOTH",
"141 634 OFFCURVE",
"80 573 OFFCURVE",
"80 430 CURVE SMOOTH",
"80 203 LINE SMOOTH",
"80 61 OFFCURVE",
"141 0 OFFCURVE",
"283 0 CURVE SMOOTH"
);
},
{
closed = 1;
nodes = (
"122 203 CURVE SMOOTH",
"122 430 LINE SMOOTH",
"122 549 OFFCURVE",
"164 592 OFFCURVE",
"282 591 CURVE SMOOTH",
"403 591 LINE SMOOTH",
"521 591 OFFCURVE",
"564 548 OFFCURVE",
"564 430 CURVE SMOOTH",
"564 203 LINE SMOOTH",
"564 85 OFFCURVE",
"521 42 OFFCURVE",
"403 42 CURVE SMOOTH",
"283 42 LINE SMOOTH",
"165 42 OFFCURVE",
"122 85 OFFCURVE"
);
}
);
width = 686;
},
{
anchors = (
{
name = bottom;
position = "{350, 0}";
},
{
name = center;
position = "{350, 333}";
},
{
name = ogonek;
position = "{482, 20}";
},
{
name = top;
position = "{358, 665}";
},
{
name = topleft;
position = "{80, 665}";
},
{
name = topright;
position = "{563, 609}";
}
);
background = {
paths = (
{
closed = 1;
nodes = (
"548 36 OFFCURVE",
"600 88 OFFCURVE",
"600 218 CURVE",
"600 447 LINE",
"600 577 OFFCURVE",
"548 629 OFFCURVE",
"418 629 CURVE",
"298 629 LINE",
"169 630 OFFCURVE",
"116 579 OFFCURVE",
"116 448 CURVE",
"116 218 LINE",
"116 88 OFFCURVE",
"168 36 OFFCURVE",
"298 36 CURVE",
"418 36 LINE"
);
}
);
};
guideLines = (
{
angle = 90;
position = "{358, 665}";
}
);
layerId = "3776B938-A14A-42B9-91A8-ACB6A1608662";
paths = (
{
closed = 1;
nodes = (
"418 0 LINE SMOOTH",
"567.965 0 OFFCURVE",
"636 68.035 OFFCURVE",
"636 218 CURVE SMOOTH",
"636 447 LINE SMOOTH",
"636 596.965 OFFCURVE",
"567.965 665 OFFCURVE",
"418 665 CURVE SMOOTH",
"298 665 LINE SMOOTH",
"148.686 666.159 OFFCURVE",
"80 598.527 OFFCURVE",
"80 448 CURVE SMOOTH",
"80 218 LINE SMOOTH",
"80 68.035 OFFCURVE",
"148.035 0 OFFCURVE",
"298 0 CURVE SMOOTH"
);
},
{
closed = 1;
nodes = (
"152 218 CURVE SMOOTH",
"152 448 LINE SMOOTH",
"152 558.266 OFFCURVE",
"188.437 593.848 OFFCURVE",
"297.721 593.001 CURVE SMOOTH",
"418 593 LINE SMOOTH",
"527.848 593 OFFCURVE",
"564 556.848 OFFCURVE",
"564 447 CURVE SMOOTH",
"564 218 LINE SMOOTH",
"564 108.152 OFFCURVE",
"527.848 72 OFFCURVE",
"418 72 CURVE SMOOTH",
"298 72 LINE SMOOTH",
"188 72 OFFCURVE",
"152 108 OFFCURVE"
);
}
);
width = 716;
},
{
associatedMasterId = "B309FD91-69BF-47D2-8142-D25EBE917F3C";
background = {
paths = (
{
closed = 1;
nodes = (
"517 19 OFFCURVE",
"573 75 OFFCURVE",
"573 238 CURVE",
"573 393 LINE",
"573 556 OFFCURVE",
"517 612 OFFCURVE",
"361 612 CURVE",
"301 612 LINE",
"149 614 OFFCURVE",
"89 559 OFFCURVE",
"89 395 CURVE",
"89 239 LINE",
"89 75 OFFCURVE",
"149 19 OFFCURVE",
"300 19 CURVE",
"361 19 LINE"
);
}
);
};
layerId = "2B4F77D4-7597-4F96-B407-A9C76C28CCF9";
name = "Light Jul 19 16, 17:33";
paths = (
{
closed = 1;
nodes = (
"570 427 LINE",
"570 552 OFFCURVE",
"510 613 OFFCURVE",
"386 613 CURVE",
"274 613 LINE",
"150 613 OFFCURVE",
"90 552 OFFCURVE",
"90 427 CURVE",
"90 206 LINE",
"90 81 OFFCURVE",
"150 20 OFFCURVE",
"274 20 CURVE",
"386 20 LINE",
"510 20 OFFCURVE",
"570 81 OFFCURVE",
"570 206 CURVE"
);
}
);
width = 660;
},
{
associatedMasterId = "B309FD91-69BF-47D2-8142-D25EBE917F3C";
background = {
paths = (
{
closed = 1;
nodes = (
"489 -9 OFFCURVE",
"582 80 OFFCURVE",
"582 227 CURVE SMOOTH",
"582 409 LINE SMOOTH",
"582 556 OFFCURVE",
"489 645 OFFCURVE",
"360 645 CURVE SMOOTH",
"231 645 OFFCURVE",
"138 556 OFFCURVE",
"138 409 CURVE SMOOTH",
"138 227 LINE SMOOTH",
"138 80 OFFCURVE",
"231 -9 OFFCURVE",
"360 -9 CURVE SMOOTH"
);
},
{
closed = 1;
nodes = (
"248 33 OFFCURVE",
"180 106 OFFCURVE",
"180 227 CURVE SMOOTH",
"180 409 LINE SMOOTH",
"180 530 OFFCURVE",
"248 603 OFFCURVE",
"360 603 CURVE SMOOTH",
"472 603 OFFCURVE",
"540 530 OFFCURVE",
"540 409 CURVE SMOOTH",
"540 227 LINE SMOOTH",
"540 106 OFFCURVE",
"472 33 OFFCURVE",
"360 33 CURVE SMOOTH"
);
}
);
};
layerId = "90212B93-9A79-4612-A98C-454B205796C7";
name = "SemiLight Jul 19 16, 17:33";
paths = (
{
closed = 1;
nodes = (
"397 -1 LINE SMOOTH",
"533 -1 OFFCURVE",
"602 69 OFFCURVE",
"602 206 CURVE SMOOTH",
"602 427 LINE SMOOTH",
"602 564 OFFCURVE",
"533 634 OFFCURVE",
"397 634 CURVE SMOOTH",
"285 634 LINE SMOOTH",
"149 634 OFFCURVE",
"80 564 OFFCURVE",
"80 427 CURVE SMOOTH",
"80 206 LINE SMOOTH",
"80 69 OFFCURVE",
"149 -1 OFFCURVE",
"285 -1 CURVE SMOOTH"
);
},
{
closed = 1;
nodes = (
"173 41 OFFCURVE",
"122 92 OFFCURVE",
"122 206 CURVE SMOOTH",
"122 427 LINE SMOOTH",
"122 541 OFFCURVE",
"173 592 OFFCURVE",
"285 592 CURVE SMOOTH",
"397 592 LINE SMOOTH",
"509 592 OFFCURVE",
"560 541 OFFCURVE",
"560 427 CURVE SMOOTH",
"560 206 LINE SMOOTH",
"560 92 OFFCURVE",
"509 41 OFFCURVE",
"397 41 CURVE SMOOTH",
"285 41 LINE SMOOTH"
);
}
);
width = 682;
}
);
leftKerningGroup = O;
rightKerningGroup = O;
unicode = 004F;
},
{
color = 4;
glyphname = OE;
lastChange = "2016-07-29 19:26:19 +0000";
layers = (
{
background = {
paths = (
{
closed = 1;
nodes = (
"463 42 LINE",
"463 300 LINE",
"634 300 LINE SMOOTH",
"648 300 OFFCURVE",
"655 307 OFFCURVE",
"655 321 CURVE SMOOTH",
"655 335 OFFCURVE",
"648 342 OFFCURVE",
"634 342 CURVE SMOOTH",
"463 342 LINE",
"463 591 LINE",
"752 591 LINE SMOOTH",
"766 591 OFFCURVE",
"773 598 OFFCURVE",
"773 612 CURVE SMOOTH",
"773 626 OFFCURVE",
"766 633 OFFCURVE",
"752 633 CURVE SMOOTH",
"442 633 LINE SMOOTH",
"428 633 OFFCURVE",
"421 626 OFFCURVE",
"421 612 CURVE SMOOTH",
"421 21 LINE SMOOTH",
"421 7 OFFCURVE",
"428 0 OFFCURVE",
"442 0 CURVE SMOOTH",
"752 0 LINE SMOOTH",
"766 0 OFFCURVE",
"773 7 OFFCURVE",
"773 21 CURVE SMOOTH",
"773 35 OFFCURVE",
"766 42 OFFCURVE",
"752 42 CURVE SMOOTH"
);
}
);
};
layerId = "B309FD91-69BF-47D2-8142-D25EBE917F3C";
paths = (
{
closed = 1;
nodes = (
"463 42 LINE",
"463 300 LINE",
"634 300 LINE SMOOTH",
"648 300 OFFCURVE",
"655 307 OFFCURVE",
"655 321 CURVE SMOOTH",
"655 335 OFFCURVE",
"648 342 OFFCURVE",
"634 342 CURVE SMOOTH",
"463 342 LINE",
"463 591 LINE",
"752 591 LINE SMOOTH",
"766 591 OFFCURVE",
"773 598 OFFCURVE",
"773 612 CURVE SMOOTH",
"773 626 OFFCURVE",
"766 633 OFFCURVE",
"752 633 CURVE SMOOTH",
"282 633 LINE SMOOTH",
"141 633 OFFCURVE",
"80 573 OFFCURVE",
"80 430 CURVE SMOOTH",
"80 203 LINE SMOOTH",
"80 61 OFFCURVE",
"141 0 OFFCURVE",
"283 0 CURVE SMOOTH",
"752 0 LINE SMOOTH",
"766 0 OFFCURVE",
"773 7 OFFCURVE",
"773 21 CURVE SMOOTH",
"773 35 OFFCURVE",
"766 42 OFFCURVE",
"752 42 CURVE SMOOTH"
);
},
{
closed = 1;
nodes = (
"122 430 LINE SMOOTH",
"122 549 OFFCURVE",
"164 591 OFFCURVE",
"282 591 CURVE SMOOTH",
"421 591 LINE",
"421 42 LINE",
"283 42 LINE SMOOTH",
"165 42 OFFCURVE",
"122 85 OFFCURVE",
"122 203 CURVE SMOOTH"
);
}
);
width = 808;
},
{
background = {
paths = (
{
closed = 1;
nodes = (
"482 42 LINE",
"482 300 LINE",
"653 300 LINE SMOOTH",
"667 300 OFFCURVE",
"674 307 OFFCURVE",
"674 321 CURVE SMOOTH",
"674 335 OFFCURVE",
"667 342 OFFCURVE",
"653 342 CURVE SMOOTH",
"482 342 LINE",
"482 591 LINE",
"771 591 LINE SMOOTH",
"785 591 OFFCURVE",
"792 598 OFFCURVE",
"792 612 CURVE SMOOTH",
"792 626 OFFCURVE",
"785 633 OFFCURVE",
"771 633 CURVE SMOOTH",
"301 633 LINE SMOOTH",
"160 633 OFFCURVE",
"99 573 OFFCURVE",
"99 430 CURVE SMOOTH",
"99 203 LINE SMOOTH",
"99 61 OFFCURVE",
"160 0 OFFCURVE",
"302 0 CURVE SMOOTH",
"771 0 LINE SMOOTH",
"785 0 OFFCURVE",
"792 7 OFFCURVE",
"792 21 CURVE SMOOTH",
"792 35 OFFCURVE",
"785 42 OFFCURVE",
"771 42 CURVE SMOOTH"
);
},
{
closed = 1;
nodes = (
"141 430 LINE SMOOTH",
"141 549 OFFCURVE",
"183 591 OFFCURVE",
"301 591 CURVE SMOOTH",
"440 591 LINE",
"440 42 LINE",
"302 42 LINE SMOOTH",
"184 42 OFFCURVE",
"141 85 OFFCURVE",
"141 203 CURVE SMOOTH"
);
}
);
};
layerId = "3776B938-A14A-42B9-91A8-ACB6A1608662";
paths = (
{
closed = 1;
nodes = (
"492 72 LINE",
"492 300 LINE",
"663 300 LINE SMOOTH",
"686 300 OFFCURVE",
"699 313 OFFCURVE",
"699 336 CURVE SMOOTH",
"699 359 OFFCURVE",
"686 372 OFFCURVE",
"663 372 CURVE SMOOTH",
"492 372 LINE",
"492 593 LINE",
"781 593 LINE SMOOTH",
"804 593 OFFCURVE",
"817 606 OFFCURVE",
"817 629 CURVE SMOOTH",
"817 652 OFFCURVE",
"804 665 OFFCURVE",
"781 665 CURVE SMOOTH",
"298 665 LINE SMOOTH",
"149 665 OFFCURVE",
"80 599 OFFCURVE",
"80 448 CURVE SMOOTH",
"80 218 LINE SMOOTH",
"80 68 OFFCURVE",
"148 0 OFFCURVE",
"298 0 CURVE SMOOTH",
"781 0 LINE SMOOTH",
"804 0 OFFCURVE",
"817 13 OFFCURVE",
"817 36 CURVE SMOOTH",
"817 59 OFFCURVE",
"804 72 OFFCURVE",
"781 72 CURVE SMOOTH"
);
},
{
closed = 1;
nodes = (
"152 448 LINE SMOOTH",
"152 558 OFFCURVE",
"188 593 OFFCURVE",
"298 593 CURVE SMOOTH",
"420 593 LINE",
"420 72 LINE",
"298 72 LINE SMOOTH",
"188 72 OFFCURVE",
"152 108 OFFCURVE",
"152 218 CURVE SMOOTH"
);
}
);
width = 867;
}
);
leftKerningGroup = O;
leftMetricsKey = O;
rightKerningGroup = E;
rightMetricsKey = E;
unicode = 0152;
},
{
color = 4;
glyphname = P;
lastChange = "2016-07-29 19:52:54 +0000";
layers = (
{
anchors = (
{
name = bottom;
position = "{110, 0}";
},
{
name = top;
position = "{270, 633}";
}
);
background = {
anchors = (
{
name = bottom;
position = "{270, 0}";
},
{
name = top;
position = "{270, 633}";
}
);
paths = (
{
closed = 0;
nodes = (
"111 299 LINE",
"345 299 LINE",
"445 299 OFFCURVE",
"492 348 OFFCURVE",
"492 446 CURVE",
"492 476 LINE",
"492 574 OFFCURVE",
"445 623 OFFCURVE",
"345 623 CURVE",
"111 623 LINE",
"111 22 LINE"
);
},
{
closed = 1;
nodes = (
"123 1 OFFCURVE",
"132 10 OFFCURVE",
"132 22 CURVE SMOOTH",
"132 267 LINE",
"345 267 LINE SMOOTH",
"456 267 OFFCURVE",
"513 324 OFFCURVE",
"513 435 CURVE SMOOTH",
"513 465 LINE SMOOTH",
"513 576 OFFCURVE",
"456 633 OFFCURVE",
"345 633 CURVE SMOOTH",
"111 633 LINE SMOOTH",
"97 633 OFFCURVE",
"90 626 OFFCURVE",
"90 612 CURVE SMOOTH",
"90 22 LINE SMOOTH",
"90 10 OFFCURVE",
"99 1 OFFCURVE",
"111 1 CURVE SMOOTH"
);
},
{
closed = 1;
nodes = (
"132 591 LINE",
"345 591 LINE SMOOTH",
"432 591 OFFCURVE",
"471 552 OFFCURVE",
"471 465 CURVE SMOOTH",
"471 435 LINE SMOOTH",
"471 348 OFFCURVE",
"432 309 OFFCURVE",
"345 309 CURVE SMOOTH",
"132 309 LINE"
);
}
);
};
layerId = "B309FD91-69BF-47D2-8142-D25EBE917F3C";
paths = (
{
closed = 1;
nodes = (
"132 21 CURVE SMOOTH",
"132 591 LINE",
"345 591 LINE SMOOTH",
"432 591 OFFCURVE",
"471 552 OFFCURVE",
"471 465 CURVE SMOOTH",
"471 435 LINE SMOOTH",
"471 348 OFFCURVE",
"432 309 OFFCURVE",
"345 309 CURVE SMOOTH",
"132 309 LINE SMOOTH",
"118 309 OFFCURVE",
"111 302 OFFCURVE",
"111 288 CURVE SMOOTH",
"111 274 OFFCURVE",
"118 267 OFFCURVE",
"132 267 CURVE SMOOTH",
"345 267 LINE SMOOTH",
"456 267 OFFCURVE",
"513 324 OFFCURVE",
"513 435 CURVE SMOOTH",
"513 465 LINE SMOOTH",
"513 576 OFFCURVE",
"456 633 OFFCURVE",
"345 633 CURVE SMOOTH",
"111 633 LINE SMOOTH",
"97 633 OFFCURVE",
"90 626 OFFCURVE",
"90 612 CURVE SMOOTH",
"90 21 LINE SMOOTH",
"90 7 OFFCURVE",
"97 0 OFFCURVE",
"111 0 CURVE SMOOTH",
"125 0 OFFCURVE",
"132 7 OFFCURVE"
);
}
);
width = 543;
},
{
anchors = (
{
name = bottom;
position = "{302, 0}";
},
{
name = top;
position = "{302, 665}";
}
);
background = {
paths = (
{
closed = 0;
nodes = (
"136 305 LINE",
"370 305 LINE",
"470 305 OFFCURVE",
"517 354 OFFCURVE",
"517 452 CURVE",
"517 482 LINE",
"517 580 OFFCURVE",
"470 629 OFFCURVE",
"370 629 CURVE",
"136 629 LINE",
"136 0 LINE"
);
}
);
};
layerId = "3776B938-A14A-42B9-91A8-ACB6A1608662";
paths = (
{
closed = 1;
nodes = (
"172 36 CURVE SMOOTH",
"172 593 LINE",
"370 593 LINE SMOOTH",
"448.878 593 OFFCURVE",
"481 560.878 OFFCURVE",
"481 482 CURVE SMOOTH",
"481 452 LINE SMOOTH",
"481 373.122 OFFCURVE",
"448.878 341 OFFCURVE",
"370 341 CURVE SMOOTH",
"172 341 LINE SMOOTH",
"148.6 341 OFFCURVE",
"136 328.4 OFFCURVE",
"136 305 CURVE SMOOTH",
"136 281.6 OFFCURVE",
"148.6 269 OFFCURVE",
"172 269 CURVE SMOOTH",
"370 269 LINE SMOOTH",
"488.984 269 OFFCURVE",
"553 333.016 OFFCURVE",
"553 452 CURVE SMOOTH",
"553 482 LINE SMOOTH",
"553 600.984 OFFCURVE",
"488.984 665 OFFCURVE",
"370 665 CURVE SMOOTH",
"136 665 LINE SMOOTH",
"112.6 665 OFFCURVE",
"100 652.4 OFFCURVE",
"100 629 CURVE SMOOTH",
"100 36 LINE SMOOTH",
"100 12.6 OFFCURVE",
"112.6 0 OFFCURVE",
"136 0 CURVE SMOOTH",
"159 0 OFFCURVE",
"172 13 OFFCURVE"
);
}
);
width = 593;
}
);
leftKerningGroup = H;
leftMetricsKey = H;
rightKerningGroup = P;
unicode = 0050;
},
{
color = 4;
glyphname = Thorn;
lastChange = "2016-07-29 20:03:06 +0000";
layers = (
{
background = {
paths = (
{
closed = 1;
nodes = (
"297 178 LINE SMOOTH",
"408 178 OFFCURVE",
"465 235 OFFCURVE",
"465 346 CURVE SMOOTH",
"465 376 LINE SMOOTH",
"465 487 OFFCURVE",
"408 544 OFFCURVE",
"297 544 CURVE SMOOTH",
"132 544 LINE SMOOTH",
"118 544 OFFCURVE",
"111 537 OFFCURVE",
"111 523 CURVE SMOOTH",
"111 509 OFFCURVE",
"118 502 OFFCURVE",
"132 502 CURVE SMOOTH",
"297 502 LINE SMOOTH",
"384 502 OFFCURVE",
"423 463 OFFCURVE",
"423 376 CURVE SMOOTH",
"423 346 LINE SMOOTH",
"423 259 OFFCURVE",
"384 220 OFFCURVE",
"297 220 CURVE SMOOTH",
"132 220 LINE SMOOTH",
"118 220 OFFCURVE",
"111 213 OFFCURVE",
"111 199 CURVE SMOOTH",
"111 185 OFFCURVE",
"118 178 OFFCURVE",
"132 178 CURVE SMOOTH"
);
},
{
closed = 1;
nodes = (
"125 0 OFFCURVE",
"132 7 OFFCURVE",
"132 21 CURVE SMOOTH",
"132 612 LINE SMOOTH",
"132 626 OFFCURVE",
"125 633 OFFCURVE",
"111 633 CURVE SMOOTH",
"97 633 OFFCURVE",
"90 626 OFFCURVE",
"90 612 CURVE SMOOTH",
"90 21 LINE SMOOTH",
"90 7 OFFCURVE",
"97 0 OFFCURVE",
"111 0 CURVE SMOOTH"
);
}
);
};
layerId = "B309FD91-69BF-47D2-8142-D25EBE917F3C";
paths = (
{
closed = 1;
nodes = (
"297 178 LINE SMOOTH",
"408 178 OFFCURVE",
"465 235 OFFCURVE",
"465 346 CURVE SMOOTH",
"465 376 LINE SMOOTH",
"465 487 OFFCURVE",
"408 544 OFFCURVE",
"297 544 CURVE SMOOTH",
"132 544 LINE SMOOTH",
"118 544 OFFCURVE",
"111 537 OFFCURVE",
"111 523 CURVE SMOOTH",
"111 509 OFFCURVE",
"118 502 OFFCURVE",
"132 502 CURVE SMOOTH",
"297 502 LINE SMOOTH",
"384 502 OFFCURVE",
"423 463 OFFCURVE",
"423 376 CURVE SMOOTH",
"423 346 LINE SMOOTH",
"423 259 OFFCURVE",
"384 220 OFFCURVE",
"297 220 CURVE SMOOTH",
"132 220 LINE SMOOTH",
"118 220 OFFCURVE",
"111 213 OFFCURVE",
"111 199 CURVE SMOOTH",
"111 185 OFFCURVE",
"118 178 OFFCURVE",
"132 178 CURVE SMOOTH"
);
},
{
closed = 1;
nodes = (
"125 0 OFFCURVE",
"132 7 OFFCURVE",
"132 21 CURVE SMOOTH",
"132 612 LINE SMOOTH",
"132 626 OFFCURVE",
"125 633 OFFCURVE",
"111 633 CURVE SMOOTH",
"97 633 OFFCURVE",
"90 626 OFFCURVE",
"90 612 CURVE SMOOTH",
"90 21 LINE SMOOTH",
"90 7 OFFCURVE",
"97 0 OFFCURVE",
"111 0 CURVE SMOOTH"
);
}
);
width = 495;
},
{
background = {
paths = (
{
closed = 0;
nodes = (
"136 206 LINE",
"322 206 LINE",
"422 206 OFFCURVE",
"469 255 OFFCURVE",
"469 353 CURVE",
"469 383 LINE",
"469 481 OFFCURVE",
"422 530 OFFCURVE",
"322 530 CURVE",
"136 530 LINE"
);
},
{
closed = 0;
nodes = (
"136 665 LINE",
"136 0 LINE"
);
}
);
};
layerId = "3776B938-A14A-42B9-91A8-ACB6A1608662";
paths = (
{
closed = 1;
nodes = (
"322 170 LINE SMOOTH",
"441 170 OFFCURVE",
"505 234 OFFCURVE",
"505 353 CURVE SMOOTH",
"505 383 LINE SMOOTH",
"505 502 OFFCURVE",
"441 566 OFFCURVE",
"322 566 CURVE SMOOTH",
"172 566 LINE SMOOTH",
"149 566 OFFCURVE",
"136 553 OFFCURVE",
"136 530 CURVE SMOOTH",
"136 507 OFFCURVE",
"149 494 OFFCURVE",
"172 494 CURVE SMOOTH",
"322 494 LINE SMOOTH",
"401 494 OFFCURVE",
"433 462 OFFCURVE",
"433 383 CURVE SMOOTH",
"433 353 LINE SMOOTH",
"433 274 OFFCURVE",
"401 242 OFFCURVE",
"322 242 CURVE SMOOTH",
"172 242 LINE SMOOTH",
"149 242 OFFCURVE",
"136 229 OFFCURVE",
"136 206 CURVE SMOOTH",
"136 183 OFFCURVE",
"149 170 OFFCURVE",
"172 170 CURVE SMOOTH"
);
},
{
closed = 1;
nodes = (
"159 0 OFFCURVE",
"172 13 OFFCURVE",
"172 36 CURVE SMOOTH",
"172 629 LINE SMOOTH",
"172 652 OFFCURVE",
"159 665 OFFCURVE",
"136 665 CURVE SMOOTH",
"113 665 OFFCURVE",
"100 652 OFFCURVE",
"100 629 CURVE SMOOTH",
"100 36 LINE SMOOTH",
"100 13 OFFCURVE",
"113 0 OFFCURVE",
"136 0 CURVE SMOOTH"
);
}
);
width = 545;
}
);
leftKerningGroup = H;
leftMetricsKey = H;
rightKerningGroup = P;
rightMetricsKey = P;
unicode = 00DE;
},
{
color = 4;
glyphname = Q;
lastChange = "2016-07-29 20:03:16 +0000";
layers = (
{
anchors = (
{
name = bottom;
position = "{343, 0}";
},
{
name = top;
position = "{343, 633}";
}
);
background = {
paths = (
{
closed = 1;
nodes = (
"607.715 -18.412 OFFCURVE",
"607.784 -8.017 OFFCURVE",
"598.195 1.698 CURVE SMOOTH",
"476.698 124.805 LINE SMOOTH",
"467.11 134.52 OFFCURVE",
"456.715 134.588 OFFCURVE",
"447 125 CURVE SMOOTH",
"437.285 115.412 OFFCURVE",
"437.216 105.017 OFFCURVE",
"446.805 95.302 CURVE SMOOTH",
"568.302 -27.805 LINE SMOOTH",
"577.89 -37.52 OFFCURVE",
"588.285 -37.588 OFFCURVE",
"598 -28 CURVE SMOOTH"
);
}
);
};
components = (
{
name = O;
}
);
layerId = "B309FD91-69BF-47D2-8142-D25EBE917F3C";
paths = (
{
closed = 1;
nodes = (
"598.195 1.698 CURVE SMOOTH",
"476.698 124.805 LINE SMOOTH",
"467.11 134.52 OFFCURVE",
"456.715 134.588 OFFCURVE",
"447 125 CURVE SMOOTH",
"437.285 115.412 OFFCURVE",
"437.216 105.017 OFFCURVE",
"446.805 95.302 CURVE SMOOTH",
"568.302 -27.805 LINE SMOOTH",
"577.89 -37.52 OFFCURVE",
"588.285 -37.588 OFFCURVE",
"598 -28 CURVE SMOOTH",
"608 -18 OFFCURVE",
"608 -8 OFFCURVE"
);
}
);
width = 686;
},
{
anchors = (
{
name = bottom;
position = "{358, 0}";
},
{
name = top;
position = "{358, 665}";
}
);
background = {
paths = (
{
closed = 1;
nodes = (
"607.715 -18.412 OFFCURVE",
"607.784 -8.017 OFFCURVE",
"598.195 1.698 CURVE SMOOTH",
"476.698 124.805 LINE SMOOTH",
"467.11 134.52 OFFCURVE",
"456.715 134.588 OFFCURVE",
"447 125 CURVE SMOOTH",
"437.285 115.412 OFFCURVE",
"437.216 105.017 OFFCURVE",
"446.805 95.302 CURVE SMOOTH",
"568.302 -27.805 LINE SMOOTH",
"577.89 -37.52 OFFCURVE",
"588.285 -37.588 OFFCURVE",
"598 -28 CURVE SMOOTH"
);
}
);
};
components = (
{
name = O;
}
);
layerId = "3776B938-A14A-42B9-91A8-ACB6A1608662";
paths = (
{
closed = 1;
nodes = (
"630 -15 CURVE SMOOTH",
"472 150 LINE SMOOTH",
"457 164 OFFCURVE",
"442 165 OFFCURVE",
"427 151 CURVE SMOOTH",
"413 137 OFFCURVE",
"413 121 OFFCURVE",
"426 107 CURVE SMOOTH",
"584 -58 LINE SMOOTH",
"599 -72 OFFCURVE",
"614 -72 OFFCURVE",
"628 -59 CURVE SMOOTH",
"643 -45 OFFCURVE",
"643 -29 OFFCURVE"
);
}
);
width = 720;
}
);
leftKerningGroup = O;
leftMetricsKey = O;
rightKerningGroup = O;
rightMetricsKey = O;
unicode = 0051;
},
{
color = 4;
glyphname = R;
lastChange = "2016-07-29 20:03:16 +0000";
layers = (
{
anchors = (
{
name = bottom;
position = "{291, 0}";
},
{
name = top;
position = "{291, 633}";
}
);
background = {
paths = (
{
closed = 1;
nodes = (
"533 11 OFFCURVE",
"535 21 OFFCURVE",
"527 33 CURVE SMOOTH",
"363 294 LINE",
"356 306 OFFCURVE",
"346 308 OFFCURVE",
"334 301 CURVE SMOOTH",
"322 294 OFFCURVE",
"320 284 OFFCURVE",
"327 272 CURVE",
"492 10 LINE SMOOTH",
"499 -1 OFFCURVE",
"509 -3 OFFCURVE",
"521 4 CURVE SMOOTH"
);
}
);
};
components = (
{
name = P;
}
);
layerId = "B309FD91-69BF-47D2-8142-D25EBE917F3C";
paths = (
{
closed = 1;
nodes = (
"532 28 CURVE SMOOTH",
"363 294 LINE",
"356 306 OFFCURVE",
"346 308 OFFCURVE",
"334 301 CURVE SMOOTH",
"322 294 OFFCURVE",
"320 284 OFFCURVE",
"327 272 CURVE",
"497 5 LINE SMOOTH",
"504 -6 OFFCURVE",
"514 -8 OFFCURVE",
"526 -1 CURVE SMOOTH",
"538 6 OFFCURVE",
"540 16 OFFCURVE"
);
}
);
width = 582;
},
{
anchors = (
{
name = bottom;
position = "{307, 0}";
},
{
name = top;
position = "{307, 665}";
}
);
background = {
paths = (
{
closed = 1;
nodes = (
"532 28 CURVE SMOOTH",
"363 294 LINE",
"356 306 OFFCURVE",
"346 308 OFFCURVE",
"334 301 CURVE SMOOTH",
"322 294 OFFCURVE",
"320 284 OFFCURVE",
"327 272 CURVE",
"497 5 LINE SMOOTH",
"504 -6 OFFCURVE",
"514 -8 OFFCURVE",
"526 -1 CURVE SMOOTH",
"538 6 OFFCURVE",
"540 16 OFFCURVE"
);
}
);
};
components = (
{
name = P;
}
);
layerId = "3776B938-A14A-42B9-91A8-ACB6A1608662";
paths = (
{
closed = 1;
nodes = (
"549 47 CURVE SMOOTH",
"392 304 LINE SMOOTH",
"379 325 OFFCURVE",
"363 329 OFFCURVE",
"343 317 CURVE SMOOTH",
"323 305 OFFCURVE",
"318 287 OFFCURVE",
"330 267 CURVE SMOOTH",
"487 10 LINE SMOOTH",
"499 -9 OFFCURVE",
"517 -14 OFFCURVE",
"536 -2 CURVE SMOOTH",
"555 10 OFFCURVE",
"560 28 OFFCURVE"
);
}
);
width = 613;
}
);
leftKerningGroup = H;
leftMetricsKey = H;
rightKerningGroup = R;
unicode = 0052;
},
{
color = 4;
glyphname = S;
lastChange = "2016-07-29 18:05:46 +0000";
layers = (
{
anchors = (
{
name = bottom;
position = "{326, 0}";
},
{
name = top;
position = "{326, 633}";
}
);
background = {
paths = (
{
closed = 1;
nodes = (
"363 -8 LINE SMOOTH",
"478 -8 OFFCURVE",
"524 66 OFFCURVE",
"524 154 CURVE SMOOTH",
"524 247 OFFCURVE",
"483 303 OFFCURVE",
"401 324 CURVE",
"184 376 LINE SMOOTH",
"148 385 OFFCURVE",
"120 428 OFFCURVE",
"120 485 CURVE SMOOTH",
"120 541 OFFCURVE",
"151 602 OFFCURVE",
"222 602 CURVE SMOOTH",
"316 602 LINE SMOOTH",
"429 602 OFFCURVE",
"481 593 OFFCURVE",
"481 471 CURVE SMOOTH",
"481 434 OFFCURVE",
"524 434 OFFCURVE",
"524 471 CURVE SMOOTH",
"524 544 OFFCURVE",
"505 591 OFFCURVE",
"466 614 CURVE SMOOTH",
"426 638 OFFCURVE",
"385 644 OFFCURVE",
"316 644 CURVE SMOOTH",
"240 644 LINE SMOOTH",
"125 644 OFFCURVE",
"78 572 OFFCURVE",
"78 484 CURVE SMOOTH",
"78 395 OFFCURVE",
"111 350 OFFCURVE",
"202 329 CURVE",
"418 276 LINE",
"488 277 OFFCURVE",
"528 36 OFFCURVE",
"380 34 CURVE",
"287 34 LINE SMOOTH",
"162 34 OFFCURVE",
"121 52 OFFCURVE",
"121 167 CURVE SMOOTH",
"121 186 OFFCURVE",
"114 195 OFFCURVE",
"101 195 CURVE SMOOTH",
"86 195 OFFCURVE",
"78 186 OFFCURVE",
"78 167 CURVE SMOOTH",
"78 94 OFFCURVE",
"97 45 OFFCURVE",
"136 22 CURVE SMOOTH",
"176 -2 OFFCURVE",
"218 -8 OFFCURVE",
"287 -8 CURVE SMOOTH"
);
}
);
};
guideLines = (
{
angle = 90;
position = "{105, 208}";
},
{
angle = 90;
position = "{503, 208}";
}
);
layerId = "B309FD91-69BF-47D2-8142-D25EBE917F3C";
paths = (
{
closed = 1;
nodes = (
"398 1 LINE SMOOTH",
"519 1 OFFCURVE",
"572 54 OFFCURVE",
"572 174 CURVE SMOOTH",
"572 294 OFFCURVE",
"519 347 OFFCURVE",
"398 347 CURVE SMOOTH",
"257 347 LINE SMOOTH",
"166 347 OFFCURVE",
"134 379 OFFCURVE",
"134 469 CURVE SMOOTH",
"134 559 OFFCURVE",
"166 591 OFFCURVE",
"256 591 CURVE SMOOTH",
"403 591 LINE SMOOTH",
"493 591 OFFCURVE",
"525 559 OFFCURVE",
"525 470 CURVE SMOOTH",
"525 458 OFFCURVE",
"534 449 OFFCURVE",
"546 449 CURVE SMOOTH",
"558 449 OFFCURVE",
"567 458 OFFCURVE",
"567 470 CURVE SMOOTH",
"567 583 OFFCURVE",
"517 633 OFFCURVE",
"403 633 CURVE SMOOTH",
"256 633 LINE SMOOTH",
"142 633 OFFCURVE",
"92 583 OFFCURVE",
"92 469 CURVE SMOOTH",
"92 355 OFFCURVE",
"142 305 OFFCURVE",
"257 305 CURVE SMOOTH",
"398 305 LINE SMOOTH",
"496 305 OFFCURVE",
"530 271 OFFCURVE",
"530 174 CURVE SMOOTH",
"530 77 OFFCURVE",
"496 43 OFFCURVE",
"398 43 CURVE SMOOTH",
"254 43 LINE SMOOTH",
"156 43 OFFCURVE",
"122 77 OFFCURVE",
"122 174 CURVE SMOOTH",
"122 186 OFFCURVE",
"113 195 OFFCURVE",
"101 195 CURVE SMOOTH",
"89 195 OFFCURVE",
"80 186 OFFCURVE",
"80 174 CURVE SMOOTH",
"80 54 OFFCURVE",
"133 1 OFFCURVE",
"254 1 CURVE SMOOTH"
);
}
);
width = 652;
},
{
anchors = (
{
name = bottom;
position = "{345, 0}";
},
{
name = top;
position = "{345, 665}";
}
);
background = {
paths = (
{
closed = 0;
nodes = (
"551.418 487 LINE",
"551.418 588 OFFCURVE",
"510.418 629 OFFCURVE",
"408.418 629 CURVE",
"281.418 629 LINE",
"179.418 629 OFFCURVE",
"138.418 588 OFFCURVE",
"138.418 486 CURVE",
"138.418 384 OFFCURVE",
"179.418 342 OFFCURVE",
"282.418 342 CURVE SMOOTH",
"411.418 342 LINE SMOOTH",
"520.418 342 OFFCURVE",
"564.418 297 OFFCURVE",
"564.418 188 CURVE SMOOTH",
"564.418 79 OFFCURVE",
"520.418 36 OFFCURVE",
"411.418 36 CURVE SMOOTH",
"267.418 36 LINE",
"158.418 36 OFFCURVE",
"114.418 79 OFFCURVE",
"114.418 188 CURVE"
);
}
);
};
layerId = "3776B938-A14A-42B9-91A8-ACB6A1608662";
paths = (
{
closed = 1;
nodes = (
"411.418 0 LINE SMOOTH",
"540.724 0 OFFCURVE",
"600.418 59.351 OFFCURVE",
"600.418 188 CURVE SMOOTH",
"600.418 317.304 OFFCURVE",
"540.069 378 OFFCURVE",
"411.418 378 CURVE SMOOTH",
"282.418 378 LINE SMOOTH",
"199.699 378 OFFCURVE",
"174.418 403.941 OFFCURVE",
"174.418 486 CURVE SMOOTH",
"174.418 567.56 OFFCURVE",
"199.198 593 OFFCURVE",
"281.418 593 CURVE SMOOTH",
"408.418 593 LINE SMOOTH",
"477.045 593 OFFCURVE",
"505.694 575.302 OFFCURVE",
"513.258 522.423 CURVE SMOOTH",
"516.56 499.262 OFFCURVE",
"527.399 487 OFFCURVE",
"550.294 487 CURVE SMOOTH",
"574.254 487 OFFCURVE",
"588.178 500.379 OFFCURVE",
"585.36 524.423 CURVE SMOOTH",
"574.147 619.899 OFFCURVE",
"516.914 665 OFFCURVE",
"408.418 665 CURVE SMOOTH",
"281.418 665 LINE SMOOTH",
"159.438 665 OFFCURVE",
"102.418 607.98 OFFCURVE",
"102.418 486 CURVE SMOOTH",
"102.418 363.52 OFFCURVE",
"159.938 306 OFFCURVE",
"282.418 306 CURVE SMOOTH",
"411.418 306 LINE SMOOTH",
"499.569 306 OFFCURVE",
"528.418 277.61 OFFCURVE",
"528.418 188 CURVE SMOOTH",
"528.418 99.853 OFFCURVE",
"501.032 72 OFFCURVE",
"411.418 72 CURVE SMOOTH",
"267.418 72 LINE SMOOTH",
"191.192 72 OFFCURVE",
"159.99 92.152 OFFCURVE",
"152.368 152.423 CURVE SMOOTH",
"149.434 175.681 OFFCURVE",
"138.374 188 OFFCURVE",
"115.427 188 CURVE SMOOTH",
"91.537 188 OFFCURVE",
"77.724 174.667 OFFCURVE",
"80.309 150.628 CURVE SMOOTH",
"91.381 47.812 OFFCURVE",
"151.36 0 OFFCURVE",
"267.418 0 CURVE SMOOTH"
);
}
);
width = 680.418;
},
{
associatedMasterId = "B309FD91-69BF-47D2-8142-D25EBE917F3C";
background = {
paths = (
{
closed = 1;
nodes = (
"347 -8 LINE SMOOTH",
"461.667 -8 OFFCURVE",
"508 66 OFFCURVE",
"508 154 CURVE SMOOTH",
"508 246.667 OFFCURVE",
"467 303.333 OFFCURVE",
"385 324 CURVE",
"168 376 LINE SMOOTH",
"132 385.333 OFFCURVE",
"104 427.833 OFFCURVE",
"104 484.5 CURVE SMOOTH",
"104 541.167 OFFCURVE",
"135.333 602 OFFCURVE",
"206 602 CURVE SMOOTH",
"300 602 LINE SMOOTH",
"412.528 602 OFFCURVE",
"465 593.277 OFFCURVE",
"465 471 CURVE SMOOTH",
"465 433.667 OFFCURVE",
"508 433.667 OFFCURVE",
"508 471 CURVE SMOOTH",
"508 543.667 OFFCURVE",
"488.667 591.333 OFFCURVE",
"450 614 CURVE SMOOTH",
"410 638 OFFCURVE",
"369.333 644 OFFCURVE",
"300 644 CURVE SMOOTH",
"224 644 LINE SMOOTH",
"109.333 644 OFFCURVE",
"62 572.167 OFFCURVE",
"62 483.5 CURVE SMOOTH",
"62 394.833 OFFCURVE",
"95.333 350.333 OFFCURVE",
"186 329 CURVE",
"402 276 LINE",
"471.686 276.902 OFFCURVE",
"512.353 36.235 OFFCURVE",
"364 34 CURVE",
"271 34 LINE SMOOTH",
"145.667 34 OFFCURVE",
"105 52.333 OFFCURVE",
"105 167 CURVE SMOOTH",
"105 185.667 OFFCURVE",
"98.333 195 OFFCURVE",
"85 195 CURVE SMOOTH",
"69.667 195 OFFCURVE",
"62 185.667 OFFCURVE",
"62 167 CURVE SMOOTH",
"62 93.667 OFFCURVE",
"81.333 45.333 OFFCURVE",
"120 22 CURVE SMOOTH",
"160 -2 OFFCURVE",
"201.667 -8 OFFCURVE",
"271 -8 CURVE SMOOTH"
);
}
);
};
layerId = "A5FB1257-C48F-4A19-9F0C-792F24D46AB7";
name = "Light Jul 19 16, 17:44";
paths = (
{
closed = 0;
nodes = (
"497 176 LINE",
"497 239 OFFCURVE",
"463 280 OFFCURVE",
"392 298 CURVE SMOOTH",
"197 348 LINE SMOOTH",
"131 365 OFFCURVE",
"79 402 OFFCURVE",
"79 450 CURVE SMOOTH",
"79 570 OFFCURVE",
"120 612 OFFCURVE",
"235 612 CURVE",
"321 612 LINE",
"436 612 OFFCURVE",
"477 570 OFFCURVE",
"477 450 CURVE"
);
},
{
closed = 0;
nodes = (
"60 205 LINE",
"60 67 OFFCURVE",
"110 20 OFFCURVE",
"237 20 CURVE",
"366 20 LINE",
"497 20 OFFCURVE",
"544 67 OFFCURVE",
"544 204 CURVE"
);
}
);
width = 600;
}
);
leftKerningGroup = S;
leftMetricsKey = O;
rightKerningGroup = S;
rightMetricsKey = O;
unicode = 0053;
},
{
color = 4;
glyphname = Germandbls;
lastChange = "2016-07-29 18:05:46 +0000";
layers = (
{
layerId = "B309FD91-69BF-47D2-8142-D25EBE917F3C";
paths = (
{
closed = 1;
nodes = (
"125 0 OFFCURVE",
"132 7 OFFCURVE",
"132 21 CURVE SMOOTH",
"132 480 LINE SMOOTH",
"132 570 OFFCURVE",
"164 602 OFFCURVE",
"254 602 CURVE SMOOTH",
"262 602 LINE SMOOTH",
"349 602 OFFCURVE",
"381 572 OFFCURVE",
"383 489 CURVE",
"300 398 LINE",
"300 362 LINE",
"395 298 OFFCURVE",
"431 240 OFFCURVE",
"431 160 CURVE SMOOTH",
"431 73 OFFCURVE",
"400 42 OFFCURVE",
"313 42 CURVE SMOOTH",
"243 42 LINE SMOOTH",
"229 42 OFFCURVE",
"222 35 OFFCURVE",
"222 21 CURVE SMOOTH",
"222 7 OFFCURVE",
"229 0 OFFCURVE",
"243 0 CURVE SMOOTH",
"313 0 LINE SMOOTH",
"424 0 OFFCURVE",
"473 49 OFFCURVE",
"473 160 CURVE SMOOTH",
"473 248 OFFCURVE",
"434 316 OFFCURVE",
"343 383 CURVE",
"415 462 LINE SMOOTH",
"422 470 OFFCURVE",
"425 477 OFFCURVE",
"425 488 CURVE SMOOTH",
"423 596 OFFCURVE",
"372 644 OFFCURVE",
"262 644 CURVE SMOOTH",
"254 644 LINE SMOOTH",
"140 644 OFFCURVE",
"90 594 OFFCURVE",
"90 480 CURVE SMOOTH",
"90 21 LINE SMOOTH",
"90 7 OFFCURVE",
"97 0 OFFCURVE",
"111 0 CURVE SMOOTH"
);
}
);
width = 553;
},
{
layerId = "3776B938-A14A-42B9-91A8-ACB6A1608662";
paths = (
{
closed = 1;
nodes = (
"156 -14 OFFCURVE",
"172 2 OFFCURVE",
"172 22 CURVE SMOOTH",
"172 480 LINE SMOOTH",
"172 562 OFFCURVE",
"197 587 OFFCURVE",
"279 587 CURVE SMOOTH",
"287 587 LINE SMOOTH",
"363 587 OFFCURVE",
"390 565 OFFCURVE",
"393 495 CURVE",
"316 407 LINE",
"316 350 LINE",
"407 288 OFFCURVE",
"441 236 OFFCURVE",
"441 161 CURVE SMOOTH",
"441 82 OFFCURVE",
"417 58 OFFCURVE",
"338 58 CURVE SMOOTH",
"268 58 LINE SMOOTH",
"248 58 OFFCURVE",
"232 42 OFFCURVE",
"232 22 CURVE SMOOTH",
"232 2 OFFCURVE",
"248 -14 OFFCURVE",
"268 -14 CURVE SMOOTH",
"338 -14 LINE SMOOTH",
"457 -14 OFFCURVE",
"513 42 OFFCURVE",
"513 161 CURVE SMOOTH",
"513 250 OFFCURVE",
"476 318 OFFCURVE",
"391 385 CURVE",
"448 448 LINE SMOOTH",
"460 462 OFFCURVE",
"465 474 OFFCURVE",
"465 493 CURVE SMOOTH",
"461 606 OFFCURVE",
"404 659 OFFCURVE",
"287 659 CURVE SMOOTH",
"279 659 LINE SMOOTH",
"157 659 OFFCURVE",
"100 602 OFFCURVE",
"100 480 CURVE SMOOTH",
"100 22 LINE SMOOTH",
"100 2 OFFCURVE",
"116 -14 OFFCURVE",
"136 -14 CURVE SMOOTH"
);
}
);
width = 593;
},
{
associatedMasterId = "B309FD91-69BF-47D2-8142-D25EBE917F3C";
layerId = "DE537F18-D2A1-44D3-AF68-E118FD8FED4C";
name = "SemiLight Jul 22 16, 16:30";
paths = (
{
closed = 1;
nodes = (
"61.598 1 OFFCURVE",
"71 10.402 OFFCURVE",
"71 22 CURVE SMOOTH",
"71 480 LINE SMOOTH",
"71 570.333 OFFCURVE",
"102.667 602 OFFCURVE",
"193 602 CURVE SMOOTH",
"219 602 LINE SMOOTH",
"305.407 602 OFFCURVE",
"337.863 572.374 OFFCURVE",
"339.897 489.596 CURVE",
"194.156 343.854 LINE SMOOTH",
"180.836 330.534 OFFCURVE",
"186.027 318 OFFCURVE",
"204.865 318 CURVE SMOOTH",
"269 318 LINE SMOOTH",
"366.331 318 OFFCURVE",
"400 284.331 OFFCURVE",
"400 187 CURVE SMOOTH",
"400 174 LINE SMOOTH",
"400 76.669 OFFCURVE",
"366.331 43 OFFCURVE",
"269 43 CURVE SMOOTH",
"182 43 LINE SMOOTH",
"170.402 43 OFFCURVE",
"161 33.598 OFFCURVE",
"161 22 CURVE SMOOTH",
"161 10.402 OFFCURVE",
"170.402 1 OFFCURVE",
"182 1 CURVE SMOOTH",
"269 1 LINE SMOOTH",
"389.712 1 OFFCURVE",
"442 53.288 OFFCURVE",
"442 174 CURVE SMOOTH",
"442 187 LINE SMOOTH",
"442 307.712 OFFCURVE",
"389.712 360 OFFCURVE",
"269.698 360 CURVE",
"371.207 461.508 LINE SMOOTH",
"378.815 469.116 OFFCURVE",
"382.139 476.644 OFFCURVE",
"381.941 487.594 CURVE SMOOTH",
"379.993 595.677 OFFCURVE",
"329.491 644 OFFCURVE",
"219 644 CURVE SMOOTH",
"193 644 LINE SMOOTH",
"79.287 644 OFFCURVE",
"29 593.713 OFFCURVE",
"29 480 CURVE SMOOTH",
"29 22 LINE SMOOTH",
"29 10.402 OFFCURVE",
"38.402 1 OFFCURVE",
"50 1 CURVE SMOOTH"
);
}
);
width = 600;
},
{
associatedMasterId = "B309FD91-69BF-47D2-8142-D25EBE917F3C";
layerId = "9F99A1D4-C2D4-40F4-AA3E-06B5EE35CF22";
name = "Light Jul 22 16, 16:30";
paths = (
{
closed = 0;
nodes = (
"50 22 LINE",
"50 480 LINE",
"50 582 OFFCURVE",
"91 623 OFFCURVE",
"193 623 CURVE",
"219 623 LINE",
"320 623 OFFCURVE",
"361 582 OFFCURVE",
"361 481 CURVE",
"219 339 LINE",
"269 339 LINE SMOOTH",
"378 339 OFFCURVE",
"421 296 OFFCURVE",
"421 187 CURVE",
"421 174 LINE",
"421 65 OFFCURVE",
"378 22 OFFCURVE",
"269 22 CURVE SMOOTH",
"182 22 LINE"
);
}
);
width = 471;
}
);
leftKerningGroup = H;
leftMetricsKey = n;
rightKerningGroup = Germandbls;
rightMetricsKey = o;
unicode = 1E9E;
},
{
color = 4;
glyphname = Schwa;
lastChange = "2016-07-29 18:05:46 +0000";
layers = (
{
layerId = "B309FD91-69BF-47D2-8142-D25EBE917F3C";
paths = (
{
closed = 1;
nodes = (
"403 1 LINE SMOOTH",
"545 1 OFFCURVE",
"606 62 OFFCURVE",
"606 204 CURVE SMOOTH",
"606 430 LINE SMOOTH",
"606 572 OFFCURVE",
"545 633 OFFCURVE",
"403 633 CURVE SMOOTH",
"283 633 LINE SMOOTH",
"141 633 OFFCURVE",
"80 572 OFFCURVE",
"80 430 CURVE SMOOTH",
"80 418 OFFCURVE",
"89 409 OFFCURVE",
"101 409 CURVE SMOOTH",
"113 409 OFFCURVE",
"122 418 OFFCURVE",
"122 430 CURVE SMOOTH",
"122 548 OFFCURVE",
"165 591 OFFCURVE",
"283 591 CURVE SMOOTH",
"403 591 LINE SMOOTH",
"521 591 OFFCURVE",
"564 548 OFFCURVE",
"564 430 CURVE SMOOTH",
"564 288 LINE",
"80 288 LINE",
"80 204 LINE SMOOTH",
"80 62 OFFCURVE",
"141 1 OFFCURVE",
"283 1 CURVE SMOOTH"
);
},
{
closed = 1;
nodes = (
"165 43 OFFCURVE",
"122 86 OFFCURVE",
"122 204 CURVE SMOOTH",
"122 246 LINE",
"564 246 LINE",
"564 204 LINE SMOOTH",
"564 86 OFFCURVE",
"521 43 OFFCURVE",
"403 43 CURVE SMOOTH",
"283 43 LINE SMOOTH"
);
}
);
width = 686;
},
{
layerId = "3776B938-A14A-42B9-91A8-ACB6A1608662";
paths = (
{
closed = 1;
nodes = (
"418 0 LINE SMOOTH",
"568 0 OFFCURVE",
"636 68 OFFCURVE",
"636 218 CURVE SMOOTH",
"636 444 LINE SMOOTH",
"636 594 OFFCURVE",
"568 662 OFFCURVE",
"418 662 CURVE SMOOTH",
"298 662 LINE SMOOTH",
"148 662 OFFCURVE",
"80 594 OFFCURVE",
"80 444 CURVE SMOOTH",
"80 424 OFFCURVE",
"96 408 OFFCURVE",
"116 408 CURVE SMOOTH",
"136 408 OFFCURVE",
"152 424 OFFCURVE",
"152 444 CURVE SMOOTH",
"152 554 OFFCURVE",
"188 590 OFFCURVE",
"298 590 CURVE SMOOTH",
"418 590 LINE SMOOTH",
"528 590 OFFCURVE",
"564 554 OFFCURVE",
"564 444 CURVE SMOOTH",
"564 317 LINE",
"80 317 LINE",
"80 218 LINE SMOOTH",
"80 68 OFFCURVE",
"148 0 OFFCURVE",
"298 0 CURVE SMOOTH"
);
},
{
closed = 1;
nodes = (
"188 72 OFFCURVE",
"152 108 OFFCURVE",
"152 218 CURVE SMOOTH",
"152 245 LINE",
"564 245 LINE",
"564 218 LINE SMOOTH",
"564 108 OFFCURVE",
"528 72 OFFCURVE",
"418 72 CURVE SMOOTH",
"298 72 LINE SMOOTH"
);
}
);
width = 716;
}
);
leftKerningGroup = O;
leftMetricsKey = O;
rightKerningGroup = O;
rightMetricsKey = O;
unicode = 018F;
},
{
color = 4;
glyphname = T;
lastChange = "2016-07-29 19:44:25 +0000";
layers = (
{
anchors = (
{
name = bottom;
position = "{276, 0}";
},
{
name = center;
position = "{276, 317}";
},
{
name = top;
position = "{276, 633}";
}
);
background = {
paths = (
{
closed = 0;
nodes = (
"276 613 LINE",
"276 20 LINE"
);
},
{
closed = 0;
nodes = (
"36 613 LINE",
"519 613 LINE"
);
}
);
};
layerId = "B309FD91-69BF-47D2-8142-D25EBE917F3C";
paths = (
{
closed = 1;
nodes = (
"297 20 CURVE SMOOTH",
"297 592 LINE",
"516 592 LINE SMOOTH",
"528 592 OFFCURVE",
"537 601 OFFCURVE",
"537 613 CURVE SMOOTH",
"537 625 OFFCURVE",
"528 634 OFFCURVE",
"516 634 CURVE SMOOTH",
"36 634 LINE SMOOTH",
"24 634 OFFCURVE",
"15 625 OFFCURVE",
"15 613 CURVE SMOOTH",
"15 601 OFFCURVE",
"24 592 OFFCURVE",
"36 592 CURVE SMOOTH",
"255 592 LINE",
"255 20 LINE SMOOTH",
"255 8 OFFCURVE",
"264 -1 OFFCURVE",
"276 -1 CURVE SMOOTH",
"288 -1 OFFCURVE",
"297 8 OFFCURVE"
);
}
);
width = 552;
},
{
anchors = (
{
name = bottom;
position = "{298, 0}";
},
{
name = center;
position = "{298, 333}";
},
{
name = top;
position = "{298, 665}";
}
);
background = {
anchors = (
{
name = bottom;
position = "{298, 0}";
},
{
name = center;
position = "{298, 317}";
},
{
name = top;
position = "{298, 633}";
}
);
paths = (
{
closed = 0;
nodes = (
"298 629 LINE",
"298 0 LINE"
);
},
{
closed = 0;
nodes = (
"25 629 LINE",
"571 629 LINE"
);
}
);
};
layerId = "3776B938-A14A-42B9-91A8-ACB6A1608662";
paths = (
{
closed = 1;
nodes = (
"334 36 CURVE SMOOTH",
"334 593 LINE",
"535 593 LINE SMOOTH",
"558.4 593 OFFCURVE",
"571 605.6 OFFCURVE",
"571 629 CURVE SMOOTH",
"571 652.4 OFFCURVE",
"558.4 665 OFFCURVE",
"535 665 CURVE SMOOTH",
"61 665 LINE SMOOTH",
"37.6 665 OFFCURVE",
"25 652.4 OFFCURVE",
"25 629 CURVE SMOOTH",
"25 605.6 OFFCURVE",
"37.6 593 OFFCURVE",
"61 593 CURVE SMOOTH",
"262 593 LINE",
"262 36 LINE SMOOTH",
"262 12.6 OFFCURVE",
"274.6 0 OFFCURVE",
"298 0 CURVE SMOOTH",
"321 0 OFFCURVE",
"334 13 OFFCURVE"
);
}
);
width = 596;
}
);
leftKerningGroup = T;
rightKerningGroup = T;
unicode = 0054;
},
{
color = 4;
glyphname = U;
lastChange = "2016-07-29 19:52:54 +0000";
layers = (
{
anchors = (
{
name = bottom;
position = "{343, 0}";
},
{
name = ogonek;
position = "{556, 59}";
},
{
name = top;
position = "{343, 633}";
},
{
name = topright;
position = "{585, 633}";
}
);
background = {
paths = (
{
closed = 0;
nodes = (
"101 612 LINE",
"101 204 LINE",
"101 74 OFFCURVE",
"153 22 OFFCURVE",
"283 22 CURVE",
"403 22 LINE",
"533 22 OFFCURVE",
"585 74 OFFCURVE",
"585 204 CURVE",
"585 612 LINE"
);
}
);
};
guideLines = (
{
angle = 90;
position = "{343, 612}";
}
);
layerId = "B309FD91-69BF-47D2-8142-D25EBE917F3C";
paths = (
{
closed = 1;
nodes = (
"403 0 LINE SMOOTH",
"545 0 OFFCURVE",
"606 61 OFFCURVE",
"606 203 CURVE SMOOTH",
"606 612 LINE SMOOTH",
"606 624 OFFCURVE",
"597 633 OFFCURVE",
"585 633 CURVE SMOOTH",
"573 633 OFFCURVE",
"564 624 OFFCURVE",
"564 612 CURVE SMOOTH",
"564 203 LINE SMOOTH",
"564 85 OFFCURVE",
"521 42 OFFCURVE",
"403 42 CURVE SMOOTH",
"283 42 LINE SMOOTH",
"165 42 OFFCURVE",
"122 85 OFFCURVE",
"122 203 CURVE SMOOTH",
"122 612 LINE SMOOTH",
"122 624 OFFCURVE",
"113 633 OFFCURVE",
"101 633 CURVE SMOOTH",
"89 633 OFFCURVE",
"80 624 OFFCURVE",
"80 612 CURVE SMOOTH",
"80 203 LINE SMOOTH",
"80 61 OFFCURVE",
"141 0 OFFCURVE",
"283 0 CURVE SMOOTH"
);
}
);
width = 686;
},
{
anchors = (
{
name = bottom;
position = "{368, 0}";
},
{
name = ogonek;
position = "{575, 59}";
},
{
name = top;
position = "{368, 665}";
},
{
name = topright;
position = "{610, 665}";
}
);
background = {
paths = (
{
closed = 0;
nodes = (
"126 665 LINE",
"126 218 LINE",
"126 88 OFFCURVE",
"178 36 OFFCURVE",
"308 36 CURVE",
"428 36 LINE",
"558 36 OFFCURVE",
"610 88 OFFCURVE",
"610 218 CURVE",
"610 665 LINE"
);
}
);
};
layerId = "3776B938-A14A-42B9-91A8-ACB6A1608662";
paths = (
{
closed = 1;
nodes = (
"428 0 LINE SMOOTH",
"577.965 0 OFFCURVE",
"646 68.035 OFFCURVE",
"646 218 CURVE SMOOTH",
"646 629 LINE SMOOTH",
"646 652.4 OFFCURVE",
"633.4 665 OFFCURVE",
"610 665 CURVE SMOOTH",
"586.6 665 OFFCURVE",
"574 652.4 OFFCURVE",
"574 629 CURVE SMOOTH",
"574 218 LINE SMOOTH",
"574 108.152 OFFCURVE",
"537.848 72 OFFCURVE",
"428 72 CURVE SMOOTH",
"308 72 LINE SMOOTH",
"198.152 72 OFFCURVE",
"162 108.152 OFFCURVE",
"162 218 CURVE SMOOTH",
"162 629 LINE SMOOTH",
"162 652.4 OFFCURVE",
"149.4 665 OFFCURVE",
"126 665 CURVE SMOOTH",
"102.6 665 OFFCURVE",
"90 652.4 OFFCURVE",
"90 629 CURVE SMOOTH",
"90 218 LINE SMOOTH",
"90 68.035 OFFCURVE",
"158.035 0 OFFCURVE",
"308 0 CURVE SMOOTH"
);
}
);
width = 736;
}
);
leftKerningGroup = U;
leftMetricsKey = "=H-10";
rightKerningGroup = U;
rightMetricsKey = "=H-10";
unicode = 0055;
},
{
color = 4;
glyphname = V;
lastChange = "2016-07-29 19:02:32 +0000";
layers = (
{
anchors = (
{
name = bottom;
position = "{288, 0}";
},
{
name = top;
position = "{288, 633}";
}
);
background = {
paths = (
{
closed = 1;
nodes = (
"246 0 LINE",
"471 617 LINE SMOOTH",
"476 631 OFFCURVE",
"475 652 OFFCURVE",
"453 652 CURVE SMOOTH",
"444 652 OFFCURVE",
"436 645 OFFCURVE",
"431 632 CURVE SMOOTH",
"223 60 LINE",
"15 632 LINE",
"9 645 OFFCURVE",
"2 652 OFFCURVE",
"-5 652 CURVE SMOOTH",
"-18 652 OFFCURVE",
"-26 645 OFFCURVE",
"-28 632 CURVE",
"-28 628 OFFCURVE",
"-27 623 OFFCURVE",
"-25 617 CURVE SMOOTH",
"200 0 LINE"
);
}
);
};
guideLines = (
{
angle = 90;
position = "{288, 318}";
}
);
layerId = "B309FD91-69BF-47D2-8142-D25EBE917F3C";
paths = (
{
closed = 1;
nodes = (
"291 0 LINE",
"300 0 OFFCURVE",
"307 5 OFFCURVE",
"310 13 CURVE SMOOTH",
"574 603 LINE SMOOTH",
"582 621 OFFCURVE",
"570 633 OFFCURVE",
"555 633 CURVE SMOOTH",
"546 633 OFFCURVE",
"539 628 OFFCURVE",
"536 620 CURVE SMOOTH",
"288 66 LINE",
"40 620 LINE SMOOTH",
"37 628 OFFCURVE",
"30 633 OFFCURVE",
"21 633 CURVE SMOOTH",
"8 633 OFFCURVE",
"-6 621 OFFCURVE",
"2 603 CURVE SMOOTH",
"266 13 LINE SMOOTH",
"269 5 OFFCURVE",
"276 0 OFFCURVE",
"285 0 CURVE"
);
}
);
width = 576;
},
{
anchors = (
{
name = bottom;
position = "{303, 0}";
},
{
name = top;
position = "{305, 665}";
}
);
background = {
paths = (
{
closed = 0;
nodes = (
"572 648 LINE",
"308 36 LINE",
"302 36 LINE",
"38 648 LINE"
);
}
);
};
layerId = "3776B938-A14A-42B9-91A8-ACB6A1608662";
paths = (
{
closed = 1;
nodes = (
"305 0 LINE SMOOTH",
"323 0 OFFCURVE",
"335 10 OFFCURVE",
"343 27 CURVE SMOOTH",
"596 614 LINE SMOOTH",
"605 635 OFFCURVE",
"598 652 OFFCURVE",
"577 661 CURVE SMOOTH",
"555 670 OFFCURVE",
"539 664 OFFCURVE",
"530 642 CURVE",
"307 114 LINE",
"80 642 LINE SMOOTH",
"71 664 OFFCURVE",
"54 670 OFFCURVE",
"33 661 CURVE SMOOTH",
"11 652 OFFCURVE",
"5 635 OFFCURVE",
"14 614 CURVE SMOOTH",
"266 27 LINE SMOOTH",
"274 9 OFFCURVE",
"285 0 OFFCURVE",
"301 0 CURVE"
);
}
);
width = 610;
}
);
leftKerningGroup = V;
rightKerningGroup = V;
unicode = 0056;
},
{
color = 4;
glyphname = W;
lastChange = "2016-07-29 19:54:50 +0000";
layers = (
{
anchors = (
{
name = bottom;
position = "{410, 0}";
},
{
name = top;
position = "{410, 633}";
}
);
background = {
paths = (
{
closed = 1;
nodes = (
"240 0 LINE",
"415 565 LINE",
"591 0 LINE",
"641 0 LINE",
"833 617 LINE",
"847 631 OFFCURVE",
"820 678 OFFCURVE",
"793 632 CURVE",
"617 60 LINE",
"440 630 LINE SMOOTH",
"431 659 OFFCURVE",
"401 659 OFFCURVE",
"392 630 CURVE SMOOTH",
"216 60 LINE",
"38 632 LINE SMOOTH",
"34 645 OFFCURVE",
"28 652 OFFCURVE",
"19 652 CURVE SMOOTH",
"8 652 OFFCURVE",
"-5 642 OFFCURVE",
"-5 634 CURVE SMOOTH",
"-5 629 OFFCURVE",
"2 621 OFFCURVE",
"3 617 CURVE SMOOTH",
"191 0 LINE"
);
}
);
};
guideLines = (
{
angle = 90;
position = "{411.22, 312.973}";
}
);
layerId = "B309FD91-69BF-47D2-8142-D25EBE917F3C";
paths = (
{
closed = 1;
nodes = (
"221 0 LINE",
"232 0 OFFCURVE",
"238 5 OFFCURVE",
"241 15 CURVE SMOOTH",
"423 600 LINE",
"397 600 LINE",
"579 15 LINE SMOOTH",
"582 5 OFFCURVE",
"588 0 OFFCURVE",
"599 0 CURVE",
"605 0 LINE",
"615 0 OFFCURVE",
"622 5 OFFCURVE",
"625 15 CURVE SMOOTH",
"819 605 LINE SMOOTH",
"823 618 OFFCURVE",
"819 633 OFFCURVE",
"799 633 CURVE SMOOTH",
"789 633 OFFCURVE",
"782 628 OFFCURVE",
"779 618 CURVE SMOOTH",
"588 38 LINE",
"615 38 LINE",
"435 618 LINE SMOOTH",
"432 628 OFFCURVE",
"426 633 OFFCURVE",
"415 633 CURVE",
"405 633 LINE",
"394 633 OFFCURVE",
"388 628 OFFCURVE",
"385 618 CURVE SMOOTH",
"205 38 LINE",
"232 38 LINE",
"41 618 LINE SMOOTH",
"38 628 OFFCURVE",
"31 633 OFFCURVE",
"21 633 CURVE SMOOTH",
"3 633 OFFCURVE",
"-3 617 OFFCURVE",
"1 605 CURVE SMOOTH",
"195 15 LINE SMOOTH",
"198 5 OFFCURVE",
"205 0 OFFCURVE",
"215 0 CURVE"
);
}
);
width = 820;
},
{
anchors = (
{
name = bottom;
position = "{432, 0}";
},
{
name = top;
position = "{432, 665}";
}
);
guideLines = (
{
angle = 90;
position = "{432, 313}";
}
);
layerId = "3776B938-A14A-42B9-91A8-ACB6A1608662";
paths = (
{
closed = 1;
nodes = (
"236 0 LINE",
"258 0 OFFCURVE",
"266 10 OFFCURVE",
"273 30 CURVE SMOOTH",
"431 538 LINE",
"423 552 LINE",
"585 30 LINE SMOOTH",
"591 10 OFFCURVE",
"603 0 OFFCURVE",
"622 0 CURVE",
"625 0 LINE",
"644 0 OFFCURVE",
"655 11 OFFCURVE",
"662 30 CURVE SMOOTH",
"850 617 LINE SMOOTH",
"857 639 OFFCURVE",
"849 655 OFFCURVE",
"827 662 CURVE SMOOTH",
"804 669 OFFCURVE",
"789 662 OFFCURVE",
"782 639 CURVE SMOOTH",
"614 113 LINE",
"631 113 LINE",
"472 635 LINE SMOOTH",
"466 654 OFFCURVE",
"453 665 OFFCURVE",
"433 665 CURVE",
"432 665 LINE",
"410 665 OFFCURVE",
"397 655 OFFCURVE",
"391 635 CURVE SMOOTH",
"232 113 LINE",
"249 113 LINE",
"81 639 LINE SMOOTH",
"73 662 OFFCURVE",
"58 670 OFFCURVE",
"36 662 CURVE SMOOTH",
"13 654 OFFCURVE",
"6 639 OFFCURVE",
"13 617 CURVE SMOOTH",
"201 30 LINE SMOOTH",
"207 9 OFFCURVE",
"217 0 OFFCURVE",
"234 0 CURVE"
);
}
);
width = 863;
}
);
leftKerningGroup = V;
leftMetricsKey = V;
rightKerningGroup = V;
rightMetricsKey = V;
unicode = 0057;
},
{
color = 4;
glyphname = X;
lastChange = "2016-07-29 19:44:25 +0000";
layers = (
{
anchors = (
{
name = bottom;
position = "{272, 0}";
},
{
name = top;
position = "{270, 633}";
}
);
background = {
paths = (
{
closed = 1;
nodes = (
"73 0 OFFCURVE",
"80 4 OFFCURVE",
"84 9 CURVE SMOOTH",
"276 291 LINE",
"476 9 LINE SMOOTH",
"480 4 OFFCURVE",
"486 0 OFFCURVE",
"493 0 CURVE SMOOTH",
"505 0 OFFCURVE",
"514 9 OFFCURVE",
"514 21 CURVE SMOOTH",
"514 26 OFFCURVE",
"512 30 OFFCURVE",
"510 33 CURVE SMOOTH",
"304 323 LINE",
"503 600 LINE SMOOTH",
"505 603 OFFCURVE",
"507 607 OFFCURVE",
"507 612 CURVE SMOOTH",
"507 624 OFFCURVE",
"498 633 OFFCURVE",
"486 633 CURVE SMOOTH",
"479 633 OFFCURVE",
"473 629 OFFCURVE",
"469 624 CURVE SMOOTH",
"278 360 LINE",
"90 624 LINE SMOOTH",
"86 629 OFFCURVE",
"80 633 OFFCURVE",
"73 633 CURVE SMOOTH",
"61 633 OFFCURVE",
"52 624 OFFCURVE",
"52 612 CURVE SMOOTH",
"52 607 OFFCURVE",
"54 603 OFFCURVE",
"56 600 CURVE SMOOTH",
"250 327 LINE",
"49 33 LINE SMOOTH",
"46 29 OFFCURVE",
"45 25 OFFCURVE",
"45 21 CURVE SMOOTH",
"45 9 OFFCURVE",
"54 0 OFFCURVE",
"66 0 CURVE SMOOTH"
);
}
);
};
guideLines = (
{
angle = 90;
position = "{271, 475}";
}
);
layerId = "B309FD91-69BF-47D2-8142-D25EBE917F3C";
paths = (
{
closed = 1;
nodes = (
"72 11 CURVE SMOOTH",
"270 299 LINE",
"478 10 LINE SMOOTH",
"486 -1 OFFCURVE",
"496 -3 OFFCURVE",
"507 5 CURVE SMOOTH",
"518 13 OFFCURVE",
"520 23 OFFCURVE",
"512 34 CURVE SMOOTH",
"299 331 LINE",
"496 599 LINE SMOOTH",
"504 610 OFFCURVE",
"503 620 OFFCURVE",
"492 628 CURVE SMOOTH",
"481 636 OFFCURVE",
"470 635 OFFCURVE",
"462 624 CURVE SMOOTH",
"272 368 LINE",
"90 623 LINE SMOOTH",
"82 634 OFFCURVE",
"71 636 OFFCURVE",
"60 628 CURVE SMOOTH",
"49 620 OFFCURVE",
"47 610 OFFCURVE",
"55 599 CURVE SMOOTH",
"244 335 LINE",
"37 34 LINE SMOOTH",
"30 23 OFFCURVE",
"32 13 OFFCURVE",
"43 5 CURVE SMOOTH",
"54 -3 OFFCURVE",
"64 -1 OFFCURVE"
);
}
);
width = 559;
},
{
anchors = (
{
name = bottom;
position = "{302, 0}";
},
{
name = top;
position = "{302, 665}";
}
);
background = {
paths = (
{
closed = 0;
nodes = (
"69.869 1.594 LINE",
"300.258 340 LINE"
);
},
{
closed = 0;
nodes = (
"68.288 662.026 LINE",
"534.781 4.294 LINE"
);
},
{
closed = 0;
nodes = (
"303.258 336 LINE",
"538.088 662.026 LINE"
);
}
);
};
guideLines = (
{
angle = 90;
position = "{302, 490}";
}
);
layerId = "3776B938-A14A-42B9-91A8-ACB6A1608662";
paths = (
{
closed = 1;
nodes = (
"124 17 CURVE SMOOTH",
"299 275 LINE",
"483 17 LINE SMOOTH",
"496 -2 OFFCURVE",
"514 -5 OFFCURVE",
"533 8 CURVE SMOOTH",
"552 22 OFFCURVE",
"555 40 OFFCURVE",
"542 59 CURVE SMOOTH",
"346 334 LINE",
"543 606 LINE SMOOTH",
"557 625 OFFCURVE",
"554 642 OFFCURVE",
"535 656 CURVE SMOOTH",
"516 670 OFFCURVE",
"499 667 OFFCURVE",
"485 648 CURVE SMOOTH",
"302 396 LINE",
"122 648 LINE SMOOTH",
"109 667 OFFCURVE",
"91 670 OFFCURVE",
"72 657 CURVE",
"53 643 OFFCURVE",
"50 626 OFFCURVE",
"63 607 CURVE SMOOTH",
"255 337 LINE",
"65 58 LINE SMOOTH",
"52 39 OFFCURVE",
"55 21 OFFCURVE",
"74 8 CURVE SMOOTH",
"94 -5 OFFCURVE",
"111 -2 OFFCURVE"
);
}
);
width = 606.501;
}
);
leftKerningGroup = X;
rightKerningGroup = X;
unicode = 0058;
},
{
color = 4;
glyphname = Y;
lastChange = "2016-07-29 19:44:25 +0000";
layers = (
{
anchors = (
{
name = bottom;
position = "{249, 0}";
},
{
name = top;
position = "{249, 633}";
},
{
name = topleft;
position = "{14, 633}";
}
);
background = {
paths = (
{
closed = 0;
nodes = (
"247 0 LINE",
"247 259 LINE"
);
},
{
closed = 0;
nodes = (
"7 633 LINE",
"245 259 LINE",
"249 259 LINE",
"487 633 LINE"
);
}
);
};
layerId = "B309FD91-69BF-47D2-8142-D25EBE917F3C";
paths = (
{
closed = 1;
nodes = (
"455 623 CURVE SMOOTH",
"247 295 LINE",
"40 622 LINE",
"33 634 OFFCURVE",
"22 636 OFFCURVE",
"11 629 CURVE SMOOTH",
"-1 621 OFFCURVE",
"-3 611 OFFCURVE",
"4 600 CURVE",
"226 250 LINE",
"226 21 LINE SMOOTH",
"226 7 OFFCURVE",
"233 0 OFFCURVE",
"247 0 CURVE SMOOTH",
"261 0 OFFCURVE",
"268 7 OFFCURVE",
"268 21 CURVE SMOOTH",
"268 250 LINE",
"490 600 LINE",
"498 612 OFFCURVE",
"496 622 OFFCURVE",
"484 629 CURVE SMOOTH",
"472 636 OFFCURVE",
"462 634 OFFCURVE"
);
}
);
width = 494;
},
{
anchors = (
{
name = bottom;
position = "{283, 0}";
},
{
name = top;
position = "{283, 665}";
},
{
name = topleft;
position = "{30, 665}";
}
);
background = {
paths = (
{
closed = 0;
nodes = (
"280 0 LINE",
"280 259 LINE"
);
},
{
closed = 0;
nodes = (
"28 654 LINE",
"279 259 LINE",
"281 259 LINE",
"536 654 LINE"
);
}
);
};
layerId = "3776B938-A14A-42B9-91A8-ACB6A1608662";
paths = (
{
closed = 1;
nodes = (
"489 647 CURVE SMOOTH",
"280 324 LINE",
"78 647 LINE SMOOTH",
"66 666 OFFCURVE",
"48 670 OFFCURVE",
"28 658 CURVE",
"9 645 OFFCURVE",
"5 628 OFFCURVE",
"17 608 CURVE SMOOTH",
"244 247 LINE",
"244 36 LINE SMOOTH",
"244 13 OFFCURVE",
"257 0 OFFCURVE",
"280 0 CURVE SMOOTH",
"303 0 OFFCURVE",
"316 13 OFFCURVE",
"316 36 CURVE SMOOTH",
"316 247 LINE",
"549 608 LINE SMOOTH",
"562 627 OFFCURVE",
"558 645 OFFCURVE",
"538 657 CURVE",
"519 670 OFFCURVE",
"501 666 OFFCURVE"
);
}
);
width = 567;
}
);
leftKerningGroup = Y;
leftMetricsKey = V;
rightKerningGroup = Y;
rightMetricsKey = V;
unicode = 0059;
},
{
color = 4;
glyphname = Z;
lastChange = "2016-07-29 19:55:11 +0000";
layers = (
{
anchors = (
{
name = bottom;
position = "{309, 0}";
},
{
name = top;
position = "{318, 633}";
}
);
background = {
paths = (
{
closed = 1;
nodes = (
"403 0 LINE SMOOTH",
"490 0 OFFCURVE",
"538 41 OFFCURVE",
"545 121 CURVE SMOOTH",
"546 135 OFFCURVE",
"538 143 OFFCURVE",
"525 143 CURVE SMOOTH",
"524 143 LINE SMOOTH",
"511 143 OFFCURVE",
"504 136 OFFCURVE",
"503 122 CURVE",
"497 66 OFFCURVE",
"466 42 OFFCURVE",
"403 42 CURVE SMOOTH",
"87 42 LINE",
"97 23 LINE",
"514 584 LINE SMOOTH",
"521 593 OFFCURVE",
"523 600 OFFCURVE",
"523 612 CURVE SMOOTH",
"523 626 OFFCURVE",
"516 633 OFFCURVE",
"502 633 CURVE SMOOTH",
"172 633 LINE SMOOTH",
"85 633 OFFCURVE",
"37 592 OFFCURVE",
"30 512 CURVE SMOOTH",
"29 498 OFFCURVE",
"37 490 OFFCURVE",
"50 490 CURVE SMOOTH",
"64 490 OFFCURVE",
"71 497 OFFCURVE",
"72 511 CURVE",
"78 567 OFFCURVE",
"109 591 OFFCURVE",
"172 591 CURVE SMOOTH",
"487 591 LINE",
"474 601 LINE",
"58 47 LINE SMOOTH",
"50 38 OFFCURVE",
"47 31 OFFCURVE",
"47 21 CURVE SMOOTH",
"47 7 OFFCURVE",
"55 0 OFFCURVE",
"70 0 CURVE SMOOTH"
);
}
);
};
layerId = "B309FD91-69BF-47D2-8142-D25EBE917F3C";
paths = (
{
closed = 1;
nodes = (
"413 0 LINE SMOOTH",
"500 0 OFFCURVE",
"549 41 OFFCURVE",
"555 121 CURVE SMOOTH",
"556 135 OFFCURVE",
"548 143 OFFCURVE",
"534 143 CURVE SMOOTH",
"521 143 OFFCURVE",
"514 136 OFFCURVE",
"513 122 CURVE",
"507 66 OFFCURVE",
"476 42 OFFCURVE",
"413 42 CURVE SMOOTH",
"97 42 LINE",
"107 23 LINE",
"524 584 LINE SMOOTH",
"531 593 OFFCURVE",
"533 600 OFFCURVE",
"533 612 CURVE SMOOTH",
"533 626 OFFCURVE",
"526 633 OFFCURVE",
"512 633 CURVE SMOOTH",
"182 633 LINE SMOOTH",
"95 633 OFFCURVE",
"46 592 OFFCURVE",
"40 512 CURVE SMOOTH",
"39 498 OFFCURVE",
"47 490 OFFCURVE",
"60 490 CURVE SMOOTH",
"74 490 OFFCURVE",
"81 497 OFFCURVE",
"82 511 CURVE",
"88 567 OFFCURVE",
"119 591 OFFCURVE",
"182 591 CURVE SMOOTH",
"497 591 LINE",
"484 601 LINE",
"68 47 LINE SMOOTH",
"61 37 OFFCURVE",
"57 31 OFFCURVE",
"57 21 CURVE SMOOTH",
"57 7 OFFCURVE",
"65 0 OFFCURVE",
"80 0 CURVE SMOOTH"
);
}
);
width = 595;
},
{
anchors = (
{
name = bottom;
position = "{339, 0}";
},
{
name = top;
position = "{349, 665}";
}
);
background = {
paths = (
{
closed = 0;
nodes = (
"83 507 LINE",
"83 590 OFFCURVE",
"123 629 OFFCURVE",
"205 629 CURVE",
"538 629 LINE",
"538 626 LINE",
"97 37 LINE",
"97 36 LINE",
"456 36 LINE",
"538 36 OFFCURVE",
"578 75 OFFCURVE",
"578 158 CURVE"
);
}
);
};
layerId = "3776B938-A14A-42B9-91A8-ACB6A1608662";
paths = (
{
closed = 1;
nodes = (
"456 0 LINE SMOOTH",
"546 0 OFFCURVE",
"599 42 OFFCURVE",
"612 120 CURVE SMOOTH",
"615 144 OFFCURVE",
"601 158 OFFCURVE",
"577 158 CURVE SMOOTH",
"554 158 OFFCURVE",
"544 146 OFFCURVE",
"539 124 CURVE SMOOTH",
"531 87 OFFCURVE",
"506 72 OFFCURVE",
"456 72 CURVE SMOOTH",
"156 72 LINE",
"157 64 LINE",
"560 594 LINE SMOOTH",
"570 608 OFFCURVE",
"574 618 OFFCURVE",
"574 629 CURVE SMOOTH",
"574 652 OFFCURVE",
"562 665 OFFCURVE",
"538 665 CURVE SMOOTH",
"205 665 LINE SMOOTH",
"116 665 OFFCURVE",
"63 623 OFFCURVE",
"50 545 CURVE SMOOTH",
"46 521 OFFCURVE",
"61 507 OFFCURVE",
"85 507 CURVE SMOOTH",
"108 507 OFFCURVE",
"118 519 OFFCURVE",
"123 541 CURVE SMOOTH",
"131 578 OFFCURVE",
"156 593 OFFCURVE",
"205 593 CURVE SMOOTH",
"487 593 LINE",
"482 603 LINE",
"76 69 LINE SMOOTH",
"66 55 OFFCURVE",
"61 45 OFFCURVE",
"61 36 CURVE SMOOTH",
"61 13 OFFCURVE",
"74 0 OFFCURVE",
"97 0 CURVE SMOOTH"
);
}
);
width = 662;
},
{
associatedMasterId = "B309FD91-69BF-47D2-8142-D25EBE917F3C";
background = {
paths = (
{
closed = 1;
nodes = (
"459 0 LINE SMOOTH",
"499 0 OFFCURVE",
"499 42 OFFCURVE",
"459 42 CURVE SMOOTH",
"95 42 LINE",
"489 590 LINE",
"489 636 LINE",
"76 636 LINE SMOOTH",
"34.667 636 OFFCURVE",
"34.667 594 OFFCURVE",
"76 594 CURVE SMOOTH",
"442 594 LINE",
"46 44 LINE",
"46 0 LINE"
);
}
);
};
layerId = "52802D77-C2F4-4B06-9B2A-694C3984C552";
name = "Light Jul 18 16, 18:09";
paths = (
{
closed = 0;
nodes = (
"72 19 LINE",
"362 19 LINE",
"444 19 OFFCURVE",
"484 59 OFFCURVE",
"484 142 CURVE"
);
},
{
closed = 0;
nodes = (
"61 19 LINE",
"477 612 LINE"
);
},
{
closed = 0;
nodes = (
"57 489 LINE",
"57 572 OFFCURVE",
"97 612 OFFCURVE",
"179 612 CURVE",
"470 612 LINE"
);
}
);
width = 600;
},
{
associatedMasterId = "B309FD91-69BF-47D2-8142-D25EBE917F3C";
background = {
paths = (
{
closed = 1;
nodes = (
"459 0 LINE SMOOTH",
"499 0 OFFCURVE",
"499 42 OFFCURVE",
"459 42 CURVE SMOOTH",
"95 42 LINE",
"489 590 LINE",
"489 636 LINE",
"76 636 LINE SMOOTH",
"34.667 636 OFFCURVE",
"34.667 594 OFFCURVE",
"76 594 CURVE SMOOTH",
"442 594 LINE",
"46 44 LINE",
"46 0 LINE"
);
}
);
};
layerId = "73E9ECED-BEFE-40CD-A01D-CD1E3ECDCE74";
name = "SemiLight Jul 18 16, 18:09";
paths = (
{
closed = 1;
nodes = (
"93 0 LINE",
"471 0 LINE SMOOTH",
"485 0 OFFCURVE",
"492 7 OFFCURVE",
"492 21 CURVE SMOOTH",
"492 35 OFFCURVE",
"485 42 OFFCURVE",
"471 42 CURVE SMOOTH",
"56 42 LINE",
"81 20 LINE",
"494.071 599.768 LINE SMOOTH",
"497 604 OFFCURVE",
"498 607.436 OFFCURVE",
"498 612 CURVE SMOOTH",
"498 623.598 OFFCURVE",
"491 633 OFFCURVE",
"477 633 CURVE",
"69 633 LINE SMOOTH",
"55 633 OFFCURVE",
"48 626 OFFCURVE",
"48 612 CURVE SMOOTH",
"48 598 OFFCURVE",
"55 591 OFFCURVE",
"69 591 CURVE SMOOTH",
"482 591 LINE",
"454 607 LINE",
"44 33 LINE SMOOTH",
"42 30 OFFCURVE",
"40 26 OFFCURVE",
"40 21 CURVE SMOOTH",
"40 9 OFFCURVE",
"49 0 OFFCURVE",
"61 0 CURVE"
);
}
);
width = 600;
}
);
leftKerningGroup = Z;
rightKerningGroup = Z;
unicode = 005A;
},
{
color = 1;
glyphname = Iacute_J.loclNLD;
lastChange = "2016-07-29 20:03:06 +0000";
layers = (
{
guideLines = (
{
angle = 90;
position = "{472, 659}";
},
{
angle = 90;
position = "{122, 659}";
}
);
layerId = "B309FD91-69BF-47D2-8142-D25EBE917F3C";
paths = (
{
closed = 1;
nodes = (
"299 0 LINE SMOOTH",
"428 0 OFFCURVE",
"482 54 OFFCURVE",
"482 183 CURVE SMOOTH",
"482 612 LINE SMOOTH",
"482 626 OFFCURVE",
"475 633 OFFCURVE",
"461 633 CURVE SMOOTH",
"447 633 OFFCURVE",
"440 626 OFFCURVE",
"440 612 CURVE SMOOTH",
"440 183 LINE SMOOTH",
"440 77 OFFCURVE",
"405 42 OFFCURVE",
"299 42 CURVE SMOOTH",
"272 42 LINE SMOOTH",
"174 42 OFFCURVE",
"136 72 OFFCURVE",
"132 162 CURVE SMOOTH",
"131 176 OFFCURVE",
"124 183 OFFCURVE",
"110 183 CURVE SMOOTH",
"96 183 OFFCURVE",
"89 175 OFFCURVE",
"90 161 CURVE SMOOTH",
"95 48 OFFCURVE",
"150 0 OFFCURVE",
"272 0 CURVE SMOOTH"
);
},
{
closed = 1;
nodes = (
"124 249 OFFCURVE",
"133 258 OFFCURVE",
"133 270 CURVE SMOOTH",
"133 613 LINE SMOOTH",
"133 625 OFFCURVE",
"124 634 OFFCURVE",
"112 634 CURVE SMOOTH",
"100 634 OFFCURVE",
"91 625 OFFCURVE",
"91 613 CURVE SMOOTH",
"91 270 LINE SMOOTH",
"91 258 OFFCURVE",
"100 249 OFFCURVE",
"112 249 CURVE SMOOTH"
);
},
{
closed = 1;
nodes = (
"108 686 OFFCURVE",
"119 687 OFFCURVE",
"128 698 CURVE SMOOTH",
"218 804 LINE",
"226 815 OFFCURVE",
"225 825 OFFCURVE",
"215 834 CURVE SMOOTH",
"205 843 OFFCURVE",
"194 842 OFFCURVE",
"185 831 CURVE SMOOTH",
"95 725 LINE",
"87 714 OFFCURVE",
"88 704 OFFCURVE",
"98 695 CURVE SMOOTH"
);
},
{
closed = 1;
nodes = (
"459 686 OFFCURVE",
"470 687 OFFCURVE",
"479 698 CURVE SMOOTH",
"569 804 LINE",
"577 815 OFFCURVE",
"576 825 OFFCURVE",
"566 834 CURVE SMOOTH",
"556 843 OFFCURVE",
"545 842 OFFCURVE",
"536 831 CURVE SMOOTH",
"446 725 LINE",
"438 714 OFFCURVE",
"439 704 OFFCURVE",
"449 695 CURVE SMOOTH"
);
}
);
width = 594;
},
{
guideLines = (
{
angle = 90;
position = "{126, 676}";
},
{
position = "{343, 705}";
}
);
layerId = "3776B938-A14A-42B9-91A8-ACB6A1608662";
paths = (
{
closed = 1;
nodes = (
"365 0 LINE SMOOTH",
"502 0 OFFCURVE",
"563 60 OFFCURVE",
"563 198 CURVE SMOOTH",
"563 629 LINE SMOOTH",
"563 652 OFFCURVE",
"550 665 OFFCURVE",
"527 665 CURVE SMOOTH",
"503 665 OFFCURVE",
"491 652 OFFCURVE",
"491 629 CURVE SMOOTH",
"491 198 LINE SMOOTH",
"491 100 OFFCURVE",
"462 72 OFFCURVE",
"365 72 CURVE SMOOTH",
"298 72 LINE SMOOTH",
"214 72 OFFCURVE",
"181 93 OFFCURVE",
"173 162 CURVE SMOOTH",
"171 186 OFFCURVE",
"159 198 OFFCURVE",
"136 198 CURVE SMOOTH",
"113 198 OFFCURVE",
"99 185 OFFCURVE",
"101 161 CURVE SMOOTH",
"112 49 OFFCURVE",
"173 0 OFFCURVE",
"298 0 CURVE SMOOTH"
);
},
{
closed = 1;
nodes = (
"160 248 OFFCURVE",
"172 260 OFFCURVE",
"172 284 CURVE SMOOTH",
"172 629 LINE SMOOTH",
"172 653 OFFCURVE",
"160 665 OFFCURVE",
"136 665 CURVE SMOOTH",
"112 665 OFFCURVE",
"100 653 OFFCURVE",
"100 629 CURVE SMOOTH",
"100 284 LINE SMOOTH",
"100 260 OFFCURVE",
"112 248 OFFCURVE",
"136 248 CURVE SMOOTH"
);
},
{
closed = 1;
nodes = (
"135 701 OFFCURVE",
"151 702 OFFCURVE",
"164 718 CURVE SMOOTH",
"242 811 LINE SMOOTH",
"255 827 OFFCURVE",
"254 843 OFFCURVE",
"238 856 CURVE SMOOTH",
"222 869 OFFCURVE",
"206 868 OFFCURVE",
"193 852 CURVE SMOOTH",
"115 759 LINE SMOOTH",
"102 743 OFFCURVE",
"103 727 OFFCURVE",
"119 714 CURVE SMOOTH"
);
},
{
closed = 1;
nodes = (
"535 701 OFFCURVE",
"551 702 OFFCURVE",
"564 718 CURVE SMOOTH",
"642 811 LINE SMOOTH",
"655 827 OFFCURVE",
"654 843 OFFCURVE",
"638 856 CURVE SMOOTH",
"622 869 OFFCURVE",
"606 868 OFFCURVE",
"593 852 CURVE SMOOTH",
"515 759 LINE SMOOTH",
"502 743 OFFCURVE",
"503 727 OFFCURVE",
"519 714 CURVE SMOOTH"
);
}
);
width = 643;
}
);
leftKerningGroup = H;
leftMetricsKey = H;
rightKerningGroup = U;
},
{
color = 4;
glyphname = a;
lastChange = "2016-07-30 22:24:54 +0000";
layers = (
{
associatedMasterId = "B309FD91-69BF-47D2-8142-D25EBE917F3C";
background = {
paths = (
{
closed = 1;
nodes = (
"452 -7 OFFCURVE",
"462 3 OFFCURVE",
"462 23 CURVE SMOOTH",
"462 337 LINE SMOOTH",
"462 430.333 OFFCURVE",
"440.333 461 OFFCURVE",
"367 461 CURVE SMOOTH",
"212 461 LINE SMOOTH",
"122.667 461 OFFCURVE",
"60 426 OFFCURVE",
"60 354 CURVE SMOOTH",
"60 334 OFFCURVE",
"71 324 OFFCURVE",
"81 324 CURVE SMOOTH",
"92 324 OFFCURVE",
"102 334 OFFCURVE",
"102 354 CURVE SMOOTH",
"102 397.333 OFFCURVE",
"141 419 OFFCURVE",
"219 419 CURVE SMOOTH",
"360 419 LINE SMOOTH",
"405.333 419 OFFCURVE",
"420 400.667 OFFCURVE",
"420 354 CURVE SMOOTH",
"420 290 LINE",
"268 290 LINE SMOOTH",
"215.333 290 OFFCURVE",
"173 284 OFFCURVE",
"141 272 CURVE SMOOTH",
"87 252 OFFCURVE",
"60 199.333 OFFCURVE",
"60 114 CURVE SMOOTH",
"60 82 OFFCURVE",
"69.333 54.667 OFFCURVE",
"88 32 CURVE SMOOTH",
"106.667 10.667 OFFCURVE",
"131.333 0 OFFCURVE",
"162 0 CURVE SMOOTH",
"255 0 LINE SMOOTH",
"329 0 OFFCURVE",
"384 24 OFFCURVE",
"420 72 CURVE",
"420 23 LINE SMOOTH",
"420 3 OFFCURVE",
"431 -7 OFFCURVE",
"441 -7 CURVE SMOOTH"
);
},
{
closed = 1;
nodes = (
"123 42 OFFCURVE",
"103 86 OFFCURVE",
"103 133 CURVE SMOOTH",
"103 152 OFFCURVE",
"106 170 OFFCURVE",
"111.5 187 CURVE SMOOTH",
"131.338 243.382 OFFCURVE",
"183.796 248 OFFCURVE",
"268 248 CURVE SMOOTH",
"420 248 LINE",
"420 228 LINE SMOOTH",
"420 108 OFFCURVE",
"360.333 42 OFFCURVE",
"255 42 CURVE SMOOTH",
"162 42 LINE SMOOTH"
);
}
);
};
layerId = "10B218E2-C40F-4A90-81B3-DE104A9C37B1";
name = "Regular Jun 28 16, 13:38";
paths = (
{
closed = 0;
nodes = (
"439 0 LINE",
"439 353 LINE",
"439 415 OFFCURVE",
"405 443 OFFCURVE",
"330 443 CURVE",
"209 443 LINE",
"119 443 OFFCURVE",
"78 410 OFFCURVE",
"78 338 CURVE"
);
},
{
closed = 0;
nodes = (
"439 265 LINE",
"244 265 LINE SMOOTH",
"130 265 OFFCURVE",
"78 223 OFFCURVE",
"78 132 CURVE SMOOTH",
"78 48 OFFCURVE",
"126 10 OFFCURVE",
"231 10 CURVE",
"374 9 OFFCURVE",
"439 78 OFFCURVE",
"439 230 CURVE SMOOTH"
);
}
);
width = 600;
},
{
anchors = (
{
name = bottom;
position = "{294, 0}";
},
{
name = ogonek;
position = "{478, 0}";
},
{
name = top;
position = "{294, 461}";
}
);
background = {
guideLines = (
{
position = "{256, 440}";
}
);
paths = (
{
closed = 0;
nodes = (
"479 270 LINE",
"215 270 LINE",
"126 270 OFFCURVE",
"91 234 OFFCURVE",
"91 145 CURVE",
"91 56 OFFCURVE",
"126 21 OFFCURVE",
"215 21 CURVE",
"281 21 LINE",
"396 21 OFFCURVE",
"479 62 OFFCURVE",
"479 172 CURVE"
);
},
{
closed = 0;
nodes = (
"479 0 LINE",
"479 286 LINE",
"479 396 OFFCURVE",
"435 440 OFFCURVE",
"325 440 CURVE",
"257 440 LINE",
"144 440 OFFCURVE",
"99 409 OFFCURVE",
"99 330 CURVE"
);
}
);
};
layerId = "B309FD91-69BF-47D2-8142-D25EBE917F3C";
paths = (
{
closed = 1;
nodes = (
"500 21 CURVE SMOOTH",
"500 286 LINE SMOOTH",
"500 408 OFFCURVE",
"447 461 OFFCURVE",
"325 461 CURVE SMOOTH",
"257 461 LINE SMOOTH",
"143 461 OFFCURVE",
"87 428 OFFCURVE",
"79 352 CURVE SMOOTH",
"78 338 OFFCURVE",
"86 330 OFFCURVE",
"100 330 CURVE SMOOTH",
"113 330 OFFCURVE",
"119 337 OFFCURVE",
"121 350 CURVE SMOOTH",
"128 400 OFFCURVE",
"166 419 OFFCURVE",
"257 419 CURVE SMOOTH",
"325 419 LINE SMOOTH",
"423 419 OFFCURVE",
"458 384 OFFCURVE",
"458 286 CURVE SMOOTH",
"458 21 LINE SMOOTH",
"458 7 OFFCURVE",
"465 0 OFFCURVE",
"479 0 CURVE SMOOTH",
"493 0 OFFCURVE",
"500 7 OFFCURVE"
);
},
{
closed = 1;
nodes = (
"281 0 LINE SMOOTH",
"401 0 OFFCURVE",
"470 53 OFFCURVE",
"479 150 CURVE SMOOTH",
"479 164 OFFCURVE",
"479 172 OFFCURVE",
"478 172 CURVE SMOOTH",
"465 172 OFFCURVE",
"458 165 OFFCURVE",
"457 152 CURVE SMOOTH",
"448 79 OFFCURVE",
"390 42 OFFCURVE",
"281 42 CURVE SMOOTH",
"215 42 LINE SMOOTH",
"138 42 OFFCURVE",
"112 68 OFFCURVE",
"112 145 CURVE SMOOTH",
"112 223 OFFCURVE",
"138 249 OFFCURVE",
"215 249 CURVE SMOOTH",
"458 249 LINE SMOOTH",
"472 249 OFFCURVE",
"479 256 OFFCURVE",
"479 270 CURVE SMOOTH",
"479 284 OFFCURVE",
"472 291 OFFCURVE",
"458 291 CURVE SMOOTH",
"215 291 LINE SMOOTH",
"115 291 OFFCURVE",
"70 246 OFFCURVE",
"70 145 CURVE SMOOTH",
"70 44 OFFCURVE",
"114 0 OFFCURVE",
"215 0 CURVE SMOOTH"
);
}
);
width = 580;
},
{
anchors = (
{
name = bottom;
position = "{313, 0}";
},
{
name = ogonek;
position = "{484, 5}";
},
{
name = top;
position = "{313, 494}";
}
);
background = {
paths = (
{
closed = 0;
nodes = (
"504 284 LINE",
"240 284 LINE",
"151 284 OFFCURVE",
"116 249 OFFCURVE",
"116 160 CURVE",
"116 71 OFFCURVE",
"151 36 OFFCURVE",
"240 36 CURVE",
"306 36 LINE",
"421 36 OFFCURVE",
"504 77 OFFCURVE",
"504 187 CURVE"
);
},
{
closed = 0;
nodes = (
"504 0 LINE",
"504 304 LINE",
"504 414 OFFCURVE",
"460 458 OFFCURVE",
"350 458 CURVE",
"282 458 LINE",
"169 458 OFFCURVE",
"124 427 OFFCURVE",
"124 348 CURVE"
);
}
);
};
layerId = "3776B938-A14A-42B9-91A8-ACB6A1608662";
paths = (
{
closed = 1;
nodes = (
"540 36 CURVE SMOOTH",
"540 304 LINE SMOOTH",
"540 434 OFFCURVE",
"480 494 OFFCURVE",
"350 494 CURVE SMOOTH",
"282 494 LINE SMOOTH",
"168 494 OFFCURVE",
"106 460 OFFCURVE",
"91 385 CURVE SMOOTH",
"87 362 OFFCURVE",
"102 348 OFFCURVE",
"126 348 CURVE SMOOTH",
"147 348 OFFCURVE",
"156 356 OFFCURVE",
"165 380 CURVE SMOOTH",
"176 411 OFFCURVE",
"208 422 OFFCURVE",
"282 422 CURVE SMOOTH",
"350 422 LINE SMOOTH",
"440 422 OFFCURVE",
"468 394 OFFCURVE",
"468 304 CURVE SMOOTH",
"468 36 LINE SMOOTH",
"468 13 OFFCURVE",
"481 0 OFFCURVE",
"504 0 CURVE SMOOTH",
"527 0 OFFCURVE",
"540 13 OFFCURVE"
);
},
{
closed = 1;
nodes = (
"306 0 LINE SMOOTH",
"422 0 OFFCURVE",
"493 60 OFFCURVE",
"507 170 CURVE SMOOTH",
"508 181 OFFCURVE",
"506 187 OFFCURVE",
"503 187 CURVE SMOOTH",
"479 187 OFFCURVE",
"470 175 OFFCURVE",
"464 153 CURVE SMOOTH",
"450 99 OFFCURVE",
"399 72 OFFCURVE",
"306 72 CURVE SMOOTH",
"240 72 LINE SMOOTH",
"171 72 OFFCURVE",
"152 91 OFFCURVE",
"152 160 CURVE SMOOTH",
"152 229 OFFCURVE",
"171 248 OFFCURVE",
"240 248 CURVE SMOOTH",
"468 248 LINE SMOOTH",
"491 248 OFFCURVE",
"504 261 OFFCURVE",
"504 284 CURVE SMOOTH",
"504 307 OFFCURVE",
"491 320 OFFCURVE",
"468 320 CURVE SMOOTH",
"240 320 LINE SMOOTH",
"131 320 OFFCURVE",
"80 269 OFFCURVE",
"80 160 CURVE SMOOTH",
"80 51 OFFCURVE",
"131 0 OFFCURVE",
"240 0 CURVE SMOOTH"
);
}
);
width = 630;
},
{
associatedMasterId = "B309FD91-69BF-47D2-8142-D25EBE917F3C";
background = {
paths = (
{
closed = 1;
nodes = (
"943 0 LINE SMOOTH",
"1017 0 OFFCURVE",
"1072 24 OFFCURVE",
"1108 72 CURVE",
"1108 23 LINE SMOOTH",
"1108 -17 OFFCURVE",
"1150 -17 OFFCURVE",
"1150 23 CURVE SMOOTH",
"1150 337 LINE SMOOTH",
"1150 430 OFFCURVE",
"1128 461 OFFCURVE",
"1055 461 CURVE SMOOTH",
"900 461 LINE SMOOTH",
"811 461 OFFCURVE",
"748 426 OFFCURVE",
"748 354 CURVE SMOOTH",
"748 314 OFFCURVE",
"790 314 OFFCURVE",
"790 354 CURVE SMOOTH",
"790 397 OFFCURVE",
"829 419 OFFCURVE",
"907 419 CURVE SMOOTH",
"1048 419 LINE SMOOTH",
"1093 419 OFFCURVE",
"1108 401 OFFCURVE",
"1108 354 CURVE SMOOTH",
"1108 290 LINE",
"956 290 LINE SMOOTH",
"903 290 OFFCURVE",
"861 284 OFFCURVE",
"829 272 CURVE SMOOTH",
"775 252 OFFCURVE",
"748 199 OFFCURVE",
"748 114 CURVE SMOOTH",
"748 82 OFFCURVE",
"757 55 OFFCURVE",
"776 32 CURVE SMOOTH",
"794 10 OFFCURVE",
"819 0 OFFCURVE",
"850 0 CURVE SMOOTH"
);
},
{
closed = 1;
nodes = (
"796 42 OFFCURVE",
"778 126 OFFCURVE",
"800 187 CURVE SMOOTH",
"820 243 OFFCURVE",
"872 248 OFFCURVE",
"956 248 CURVE SMOOTH",
"1108 248 LINE",
"1108 228 LINE SMOOTH",
"1108 108 OFFCURVE",
"1048 42 OFFCURVE",
"943 42 CURVE SMOOTH",
"850 42 LINE SMOOTH"
);
},
{
closed = 1;
nodes = (
"188 461 LINE SMOOTH",
"66 461 OFFCURVE",
"17 422 OFFCURVE",
"17 325 CURVE SMOOTH",
"17 313 OFFCURVE",
"26 304 OFFCURVE",
"38 304 CURVE SMOOTH",
"50 304 OFFCURVE",
"59 313 OFFCURVE",
"59 325 CURVE SMOOTH",
"59 396 OFFCURVE",
"88 419 OFFCURVE",
"188 419 CURVE SMOOTH",
"279 419 LINE SMOOTH",
"376 419 OFFCURVE",
"407 387 OFFCURVE",
"407 284 CURVE SMOOTH",
"407 174 LINE SMOOTH",
"407 71 OFFCURVE",
"376 41 OFFCURVE",
"278 41 CURVE SMOOTH",
"188 41 LINE SMOOTH",
"88 41 OFFCURVE",
"59 64 OFFCURVE",
"59 135 CURVE SMOOTH",
"59 147 OFFCURVE",
"50 156 OFFCURVE",
"38 156 CURVE SMOOTH",
"26 156 OFFCURVE",
"17 147 OFFCURVE",
"17 135 CURVE SMOOTH",
"17 38 OFFCURVE",
"66 -1 OFFCURVE",
"188 -1 CURVE SMOOTH",
"278 -1 LINE SMOOTH",
"400 -1 OFFCURVE",
"449 48 OFFCURVE",
"449 174 CURVE SMOOTH",
"449 284 LINE SMOOTH",
"449 410 OFFCURVE",
"400 461 OFFCURVE",
"279 461 CURVE SMOOTH"
);
}
);
};
layerId = "5E1879F7-E9A6-47B0-9C84-4A6423DC8CF6";
name = "1";
paths = (
{
closed = 1;
nodes = (
"229 0 LINE SMOOTH",
"316 0 OFFCURVE",
"372 16 OFFCURVE",
"406 82 CURVE",
"406 19 LINE SMOOTH",
"406 5 OFFCURVE",
"413 -2 OFFCURVE",
"427 -2 CURVE SMOOTH",
"441 -2 OFFCURVE",
"448 5 OFFCURVE",
"448 19 CURVE SMOOTH",
"448 286 LINE SMOOTH",
"448 407 OFFCURVE",
"396 461 OFFCURVE",
"278 461 CURVE SMOOTH",
"221 461 LINE SMOOTH",
"103 461 OFFCURVE",
"50 420 OFFCURVE",
"50 325 CURVE SMOOTH",
"50 311 OFFCURVE",
"57 304 OFFCURVE",
"71 304 CURVE SMOOTH",
"85 304 OFFCURVE",
"92 311 OFFCURVE",
"92 325 CURVE SMOOTH",
"92 394 OFFCURVE",
"125 419 OFFCURVE",
"221 419 CURVE SMOOTH",
"278 419 LINE SMOOTH",
"369 419 OFFCURVE",
"404 386 OFFCURVE",
"406 295 CURVE",
"221 295 LINE SMOOTH",
"103 295 OFFCURVE",
"50 257 OFFCURVE",
"50 165 CURVE SMOOTH",
"50 50 OFFCURVE",
"102 0 OFFCURVE",
"222 0 CURVE SMOOTH"
);
},
{
closed = 1;
nodes = (
"125 42 OFFCURVE",
"92 74 OFFCURVE",
"92 165 CURVE SMOOTH",
"92 231 OFFCURVE",
"125 253 OFFCURVE",
"221 253 CURVE SMOOTH",
"406 253 LINE",
"405 84 OFFCURVE",
"366 42 OFFCURVE",
"229 42 CURVE SMOOTH",
"222 42 LINE SMOOTH"
);
}
);
width = 498;
},
{
associatedMasterId = "B309FD91-69BF-47D2-8142-D25EBE917F3C";
background = {
components = (
{
name = n;
transform = "{1, 0, 0, 1, -51, 0}";
}
);
paths = (
{
closed = 1;
nodes = (
"237 0 LINE SMOOTH",
"311 0 OFFCURVE",
"366 24 OFFCURVE",
"402 72 CURVE",
"402 23 LINE SMOOTH",
"402 -17 OFFCURVE",
"444 -17 OFFCURVE",
"444 23 CURVE SMOOTH",
"444 337 LINE SMOOTH",
"444 430 OFFCURVE",
"422 461 OFFCURVE",
"349 461 CURVE SMOOTH",
"194 461 LINE SMOOTH",
"105 461 OFFCURVE",
"42 426 OFFCURVE",
"42 354 CURVE SMOOTH",
"42 314 OFFCURVE",
"84 314 OFFCURVE",
"84 354 CURVE SMOOTH",
"84 397 OFFCURVE",
"123 419 OFFCURVE",
"201 419 CURVE SMOOTH",
"342 419 LINE SMOOTH",
"387 419 OFFCURVE",
"402 401 OFFCURVE",
"402 354 CURVE SMOOTH",
"402 290 LINE",
"250 290 LINE SMOOTH",
"197 290 OFFCURVE",
"155 284 OFFCURVE",
"123 272 CURVE SMOOTH",
"69 252 OFFCURVE",
"42 199 OFFCURVE",
"42 114 CURVE SMOOTH",
"42 82 OFFCURVE",
"51 55 OFFCURVE",
"70 32 CURVE SMOOTH",
"89 11 OFFCURVE",
"113 0 OFFCURVE",
"144 0 CURVE SMOOTH"
);
},
{
closed = 1;
nodes = (
"90 42 OFFCURVE",
"72 126 OFFCURVE",
"94 187 CURVE SMOOTH",
"113 243 OFFCURVE",
"166 248 OFFCURVE",
"250 248 CURVE SMOOTH",
"402 248 LINE",
"402 228 LINE SMOOTH",
"402 108 OFFCURVE",
"342 42 OFFCURVE",
"237 42 CURVE SMOOTH",
"144 42 LINE SMOOTH"
);
}
);
};
guideLines = (
{
angle = 90;
position = "{175, 164}";
},
{
angle = 90;
position = "{50, 269}";
},
{
position = "{201, 144}";
}
);
layerId = "FE29F521-D432-4C15-9EC3-B0597B32B4E0";
name = "2";
paths = (
{
closed = 0;
nodes = (
"439 270 LINE",
"175 270 LINE",
"86 270 OFFCURVE",
"51 235 OFFCURVE",
"51 146 CURVE",
"51 57 OFFCURVE",
"86 22 OFFCURVE",
"175 22 CURVE",
"241 22 LINE",
"356 22 OFFCURVE",
"439 62 OFFCURVE",
"439 172 CURVE"
);
},
{
closed = 0;
nodes = (
"439 20 LINE",
"439 287 LINE",
"439 397 OFFCURVE",
"395 441 OFFCURVE",
"285 441 CURVE",
"217 441 LINE",
"104 441 OFFCURVE",
"59 410 OFFCURVE",
"59 331 CURVE"
);
}
);
width = 489;
},
{
associatedMasterId = "B309FD91-69BF-47D2-8142-D25EBE917F3C";
background = {
components = (
{
name = n;
transform = "{1, 0, 0, 1, -51, 0}";
}
);
paths = (
{
closed = 1;
nodes = (
"237 0 LINE SMOOTH",
"311 0 OFFCURVE",
"366 24 OFFCURVE",
"402 72 CURVE",
"402 23 LINE SMOOTH",
"402 -17 OFFCURVE",
"444 -17 OFFCURVE",
"444 23 CURVE SMOOTH",
"444 337 LINE SMOOTH",
"444 430 OFFCURVE",
"422 461 OFFCURVE",
"349 461 CURVE SMOOTH",
"194 461 LINE SMOOTH",
"105 461 OFFCURVE",
"42 426 OFFCURVE",
"42 354 CURVE SMOOTH",
"42 314 OFFCURVE",
"84 314 OFFCURVE",
"84 354 CURVE SMOOTH",
"84 397 OFFCURVE",
"123 419 OFFCURVE",
"201 419 CURVE SMOOTH",
"342 419 LINE SMOOTH",
"387 419 OFFCURVE",
"402 401 OFFCURVE",
"402 354 CURVE SMOOTH",
"402 290 LINE",
"250 290 LINE SMOOTH",
"197 290 OFFCURVE",
"155 284 OFFCURVE",
"123 272 CURVE SMOOTH",
"69 252 OFFCURVE",
"42 199 OFFCURVE",
"42 114 CURVE SMOOTH",
"42 82 OFFCURVE",
"51 55 OFFCURVE",
"70 32 CURVE SMOOTH",
"89 11 OFFCURVE",
"113 0 OFFCURVE",
"144 0 CURVE SMOOTH"
);
},
{
closed = 1;
nodes = (
"90 42 OFFCURVE",
"72 126 OFFCURVE",
"94 187 CURVE SMOOTH",
"113 243 OFFCURVE",
"166 248 OFFCURVE",
"250 248 CURVE SMOOTH",
"402 248 LINE",
"402 228 LINE SMOOTH",
"402 108 OFFCURVE",
"342 42 OFFCURVE",
"237 42 CURVE SMOOTH",
"144 42 LINE SMOOTH"
);
}
);
};
guideLines = (
{
angle = 90;
position = "{248, 159}";
},
{
angle = 90;
position = "{50, 269}";
}
);
layerId = "DAEAEC8D-6269-4657-9C58-A664A98117A9";
name = "3";
paths = (
{
closed = 0;
nodes = (
"439 19 LINE",
"439 286 LINE",
"439 397 OFFCURVE",
"396 442 OFFCURVE",
"290 442 CURVE",
"165 442 LINE",
"83 442 OFFCURVE",
"50 409 OFFCURVE",
"50 327 CURVE"
);
},
{
closed = 0;
nodes = (
"439 269 LINE",
"201 269 LINE",
"94 269 OFFCURVE",
"51 236 OFFCURVE",
"51 153 CURVE",
"51 57 OFFCURVE",
"94 19 OFFCURVE",
"202 19 CURVE",
"241 19 LINE",
"382 19 OFFCURVE",
"439 62 OFFCURVE",
"439 259 CURVE"
);
}
);
width = 489;
},
{
anchors = (
{
name = bottom;
position = "{295, 0}";
},
{
name = ogonek;
position = "{489, 0}";
},
{
name = top;
position = "{295, 461}";
}
);
associatedMasterId = "B309FD91-69BF-47D2-8142-D25EBE917F3C";
background = {
guideLines = (
{
position = "{267, 440}";
}
);
paths = (
{
closed = 0;
nodes = (
"490 270 LINE",
"226 270 LINE",
"137 270 OFFCURVE",
"102 234 OFFCURVE",
"102 145 CURVE",
"102 56 OFFCURVE",
"137 21 OFFCURVE",
"226 21 CURVE",
"292 21 LINE",
"407 21 OFFCURVE",
"490 62 OFFCURVE",
"490 172 CURVE"
);
},
{
closed = 0;
nodes = (
"490 0 LINE",
"490 287 LINE",
"490 397 OFFCURVE",
"446 441 OFFCURVE",
"336 441 CURVE",
"268 441 LINE",
"155 441 OFFCURVE",
"110 410 OFFCURVE",
"110 331 CURVE"
);
}
);
};
layerId = "3E794BEC-C68A-4D09-980F-3738CAE20019";
name = "2";
paths = (
{
closed = 1;
nodes = (
"501 0 OFFCURVE",
"510 9 OFFCURVE",
"510 21 CURVE SMOOTH",
"510 287 LINE SMOOTH",
"510 408 OFFCURVE",
"457 461 OFFCURVE",
"335 461 CURVE SMOOTH",
"267 461 LINE SMOOTH",
"143 461 OFFCURVE",
"88 422 OFFCURVE",
"88 330 CURVE SMOOTH",
"88 318 OFFCURVE",
"97 309 OFFCURVE",
"109 309 CURVE SMOOTH",
"121 309 OFFCURVE",
"130 318 OFFCURVE",
"130 330 CURVE SMOOTH",
"130 395 OFFCURVE",
"164 419 OFFCURVE",
"267 419 CURVE SMOOTH",
"335 419 LINE SMOOTH",
"432 419 OFFCURVE",
"467 385 OFFCURVE",
"468 291 CURVE",
"225 291 LINE SMOOTH",
"124 291 OFFCURVE",
"80 247 OFFCURVE",
"80 146 CURVE SMOOTH",
"80 45 OFFCURVE",
"124 1 OFFCURVE",
"225 1 CURVE SMOOTH",
"291 1 LINE SMOOTH",
"372 1 OFFCURVE",
"431 20 OFFCURVE",
"468 67 CURVE",
"468 21 LINE SMOOTH",
"468 9 OFFCURVE",
"477 0 OFFCURVE",
"489 0 CURVE SMOOTH"
);
},
{
closed = 1;
nodes = (
"148 43 OFFCURVE",
"122 69 OFFCURVE",
"122 146 CURVE SMOOTH",
"122 223 OFFCURVE",
"148 249 OFFCURVE",
"225 249 CURVE SMOOTH",
"468 249 LINE",
"468 172 LINE SMOOTH",
"468 86 OFFCURVE",
"410 43 OFFCURVE",
"291 43 CURVE SMOOTH",
"225 43 LINE SMOOTH"
);
}
);
width = 590;
}
);
leftKerningGroup = a;
leftMetricsKey = "=n-20";
rightKerningGroup = n;
rightMetricsKey = n;
unicode = 0061;
},
{
color = 4;
glyphname = ae;
lastChange = "2016-07-29 19:26:12 +0000";
layers = (
{
anchors = (
{
name = bottom;
position = "{455, 0}";
},
{
name = top;
position = "{455, 461}";
}
);
layerId = "B309FD91-69BF-47D2-8142-D25EBE917F3C";
paths = (
{
closed = 1;
nodes = (
"669 -1 LINE SMOOTH",
"787 -1 OFFCURVE",
"840 40 OFFCURVE",
"840 135 CURVE SMOOTH",
"840 147 OFFCURVE",
"831 156 OFFCURVE",
"819 156 CURVE SMOOTH",
"807 156 OFFCURVE",
"798 147 OFFCURVE",
"798 135 CURVE SMOOTH",
"798 66 OFFCURVE",
"765 41 OFFCURVE",
"669 41 CURVE SMOOTH",
"608 41 LINE SMOOTH",
"514 41 OFFCURVE",
"480 77 OFFCURVE",
"480 176 CURVE SMOOTH",
"480 249 LINE",
"819 249 LINE SMOOTH",
"832 249 OFFCURVE",
"840 256 OFFCURVE",
"840 270 CURVE SMOOTH",
"840 402 OFFCURVE",
"787 461 OFFCURVE",
"669 461 CURVE SMOOTH",
"609 461 LINE SMOOTH",
"533 462 OFFCURVE",
"484 437 OFFCURVE",
"459 382 CURVE",
"433 437 OFFCURVE",
"383 462 OFFCURVE",
"305 462 CURVE SMOOTH",
"267 462 LINE SMOOTH",
"143 462 OFFCURVE",
"88 423 OFFCURVE",
"88 331 CURVE SMOOTH",
"88 319 OFFCURVE",
"97 310 OFFCURVE",
"109 310 CURVE SMOOTH",
"121 310 OFFCURVE",
"130 319 OFFCURVE",
"130 331 CURVE SMOOTH",
"130 396 OFFCURVE",
"164 420 OFFCURVE",
"267 420 CURVE SMOOTH",
"305 420 LINE SMOOTH",
"402 420 OFFCURVE",
"437 386 OFFCURVE",
"438 291 CURVE",
"225 291 LINE SMOOTH",
"124 291 OFFCURVE",
"80 247 OFFCURVE",
"80 146 CURVE SMOOTH",
"80 45 OFFCURVE",
"124 1 OFFCURVE",
"225 1 CURVE SMOOTH",
"261 1 LINE SMOOTH",
"356 1 OFFCURVE",
"421 31 OFFCURVE",
"455 88 CURVE",
"478 27 OFFCURVE",
"528 -1 OFFCURVE",
"608 -1 CURVE SMOOTH"
);
},
{
closed = 1;
nodes = (
"148 43 OFFCURVE",
"122 69 OFFCURVE",
"122 146 CURVE SMOOTH",
"122 223 OFFCURVE",
"148 249 OFFCURVE",
"225 249 CURVE SMOOTH",
"438 249 LINE",
"438 172 LINE SMOOTH",
"438 86 OFFCURVE",
"380 43 OFFCURVE",
"261 43 CURVE SMOOTH",
"225 43 LINE SMOOTH"
);
},
{
closed = 1;
nodes = (
"481 386 OFFCURVE",
"515 420 OFFCURVE",
"609 419 CURVE SMOOTH",
"669 419 LINE SMOOTH",
"757 419 OFFCURVE",
"793 384 OFFCURVE",
"798 291 CURVE",
"480 291 LINE"
);
}
);
width = 910;
},
{
anchors = (
{
name = bottom;
position = "{484, 0}";
},
{
name = top;
position = "{484, 494}";
}
);
guideLines = (
{
angle = 90;
position = "{484, 458}";
}
);
layerId = "3776B938-A14A-42B9-91A8-ACB6A1608662";
paths = (
{
closed = 1;
nodes = (
"694 -16 LINE SMOOTH",
"820 -16 OFFCURVE",
"880 31 OFFCURVE",
"880 135 CURVE SMOOTH",
"880 155 OFFCURVE",
"864 171 OFFCURVE",
"844 171 CURVE SMOOTH",
"824 171 OFFCURVE",
"808 155 OFFCURVE",
"808 135 CURVE SMOOTH",
"808 76 OFFCURVE",
"783 56 OFFCURVE",
"694 56 CURVE SMOOTH",
"633 56 LINE SMOOTH",
"548 56 OFFCURVE",
"520 84 OFFCURVE",
"520 176 CURVE SMOOTH",
"520 234 LINE",
"843 234 LINE SMOOTH",
"867 234 OFFCURVE",
"880 247 OFFCURVE",
"880 270 CURVE SMOOTH",
"880 410 OFFCURVE",
"821 476 OFFCURVE",
"694 476 CURVE SMOOTH",
"634 476 LINE SMOOTH",
"563 477 OFFCURVE",
"514 452 OFFCURVE",
"484 399 CURVE",
"453 452 OFFCURVE",
"402 477 OFFCURVE",
"330 477 CURVE SMOOTH",
"292 477 LINE SMOOTH",
"160 477 OFFCURVE",
"98 432 OFFCURVE",
"98 331 CURVE SMOOTH",
"98 311 OFFCURVE",
"114 295 OFFCURVE",
"134 295 CURVE SMOOTH",
"154 295 OFFCURVE",
"170 311 OFFCURVE",
"170 331 CURVE SMOOTH",
"170 386 OFFCURVE",
"196 405 OFFCURVE",
"292 405 CURVE SMOOTH",
"330 405 LINE SMOOTH",
"413 405 OFFCURVE",
"443 381 OFFCURVE",
"448 306 CURVE",
"250 306 LINE SMOOTH",
"141 306 OFFCURVE",
"90 255 OFFCURVE",
"90 146 CURVE SMOOTH",
"90 37 OFFCURVE",
"141 -14 OFFCURVE",
"250 -14 CURVE SMOOTH",
"286 -14 LINE SMOOTH",
"373 -14 OFFCURVE",
"438 15 OFFCURVE",
"477 71 CURVE",
"507 12 OFFCURVE",
"558 -16 OFFCURVE",
"633 -16 CURVE SMOOTH"
);
},
{
closed = 1;
nodes = (
"181 58 OFFCURVE",
"162 77 OFFCURVE",
"162 146 CURVE SMOOTH",
"162 215 OFFCURVE",
"181 234 OFFCURVE",
"250 234 CURVE SMOOTH",
"448 234 LINE",
"448 172 LINE SMOOTH",
"448 95 OFFCURVE",
"398 58 OFFCURVE",
"286 58 CURVE SMOOTH",
"250 58 LINE SMOOTH"
);
},
{
closed = 1;
nodes = (
"525 381 OFFCURVE",
"554 405 OFFCURVE",
"634 404 CURVE SMOOTH",
"694 404 LINE SMOOTH",
"768 404 OFFCURVE",
"799 379 OFFCURVE",
"806 306 CURVE",
"521 306 LINE"
);
}
);
width = 950;
}
);
leftKerningGroup = a;
leftMetricsKey = a;
rightKerningGroup = e;
rightMetricsKey = e;
unicode = 00E6;
},
{
color = 4;
glyphname = b;
lastChange = "2016-07-30 22:15:03 +0000";
layers = (
{
anchors = (
{
name = bottom;
position = "{324, 0}";
},
{
name = top;
position = "{324, 461}";
}
);
background = {
paths = (
{
closed = 1;
nodes = (
"504 0 LINE SMOOTH",
"644 0 OFFCURVE",
"711 35 OFFCURVE",
"711 175 CURVE SMOOTH",
"711 286 LINE SMOOTH",
"711 426 OFFCURVE",
"644 461 OFFCURVE",
"504 461 CURVE SMOOTH",
"475 461 LINE SMOOTH",
"402 461 OFFCURVE",
"346 437 OFFCURVE",
"309 389 CURVE",
"309 612 LINE SMOOTH",
"309 633 OFFCURVE",
"301 643 OFFCURVE",
"286 643 CURVE SMOOTH",
"273 643 OFFCURVE",
"267 633 OFFCURVE",
"267 612 CURVE SMOOTH",
"267 23 LINE SMOOTH",
"267 -17 OFFCURVE",
"309 -17 OFFCURVE",
"309 23 CURVE SMOOTH",
"309 72 LINE",
"346 24 OFFCURVE",
"402 0 OFFCURVE",
"475 0 CURVE SMOOTH"
);
},
{
closed = 1;
nodes = (
"368 42 OFFCURVE",
"309 108 OFFCURVE",
"309 228 CURVE SMOOTH",
"309 232 LINE SMOOTH",
"309 352 OFFCURVE",
"368 419 OFFCURVE",
"475 419 CURVE SMOOTH",
"504 419 LINE SMOOTH",
"615 419 OFFCURVE",
"669 408 OFFCURVE",
"669 286 CURVE SMOOTH",
"669 175 LINE SMOOTH",
"669 53 OFFCURVE",
"615 42 OFFCURVE",
"504 42 CURVE SMOOTH",
"475 42 LINE SMOOTH"
);
},
{
closed = 1;
nodes = (
"655 0 OFFCURVE",
"704 51 OFFCURVE",
"704 177 CURVE SMOOTH",
"704 286 LINE SMOOTH",
"704 412 OFFCURVE",
"655 460 OFFCURVE",
"533 461 CURVE SMOOTH",
"314 462 LINE",
"314 739 LINE SMOOTH",
"314 754 OFFCURVE",
"308 760 OFFCURVE",
"293 760 CURVE SMOOTH",
"278 760 OFFCURVE",
"272 754 OFFCURVE",
"272 739 CURVE SMOOTH",
"272 21 LINE SMOOTH",
"272 6 OFFCURVE",
"278 0 OFFCURVE",
"293 0 CURVE SMOOTH",
"308 0 OFFCURVE",
"314 6 OFFCURVE",
"314 21 CURVE SMOOTH",
"314 58 LINE",
"342 12 OFFCURVE",
"384 0 OFFCURVE",
"443 0 CURVE SMOOTH",
"534 0 LINE SMOOTH"
);
},
{
closed = 1;
nodes = (
"438 42 LINE SMOOTH",
"339 42 OFFCURVE",
"309 73 OFFCURVE",
"309 176 CURVE SMOOTH",
"309 420 LINE",
"528 419 LINE SMOOTH",
"620 419 OFFCURVE",
"657 382 OFFCURVE",
"657 286 CURVE SMOOTH",
"657 177 LINE SMOOTH",
"657 81 OFFCURVE",
"620 42 OFFCURVE",
"529 42 CURVE SMOOTH"
);
}
);
};
layerId = "B309FD91-69BF-47D2-8142-D25EBE917F3C";
paths = (
{
closed = 1;
nodes = (
"347 0 LINE SMOOTH",
"468.712 0 OFFCURVE",
"522 53.288 OFFCURVE",
"522 175 CURVE SMOOTH",
"522 287 LINE SMOOTH",
"522 408.712 OFFCURVE",
"468.712 462 OFFCURVE",
"347 462 CURVE SMOOTH",
"309 462 LINE SMOOTH",
"176.628 462 OFFCURVE",
"120.545 410.04 OFFCURVE",
"111.019 312.515 CURVE SMOOTH",
"109.668 298.663 OFFCURVE",
"97.634 291 OFFCURVE",
"111.507 291 CURVE SMOOTH",
"124.987 291 OFFCURVE",
"132.219 297.937 OFFCURVE",
"132.167 311.336 CURVE SMOOTH",
"131.89 383.972 OFFCURVE",
"199.573 420 OFFCURVE",
"309 420 CURVE SMOOTH",
"347 420 LINE SMOOTH",
"445.331 420 OFFCURVE",
"480 385.331 OFFCURVE",
"480 287 CURVE SMOOTH",
"480 175 LINE SMOOTH",
"480 76.669 OFFCURVE",
"445.331 42 OFFCURVE",
"347 42 CURVE SMOOTH",
"309 42 LINE SMOOTH",
"199.573 42 OFFCURVE",
"130.89 78.028 OFFCURVE",
"132.167 150.664 CURVE SMOOTH",
"132.403 164.061 OFFCURVE",
"124.987 171 OFFCURVE",
"111.613 171 CURVE SMOOTH",
"97.634 171 OFFCURVE",
"109.668 163.337 OFFCURVE",
"111.019 149.485 CURVE SMOOTH",
"120.533 51.959 OFFCURVE",
"176.628 0 OFFCURVE",
"309 0 CURVE SMOOTH"
);
},
{
closed = 1;
nodes = (
"132 21 CURVE SMOOTH",
"132 669 LINE SMOOTH",
"132 682.65 OFFCURVE",
"124.65 690 OFFCURVE",
"111 690 CURVE SMOOTH",
"97.35 690 OFFCURVE",
"90 682.65 OFFCURVE",
"90 669 CURVE SMOOTH",
"90 21 LINE SMOOTH",
"90 7.35 OFFCURVE",
"97.35 0 OFFCURVE",
"111 0 CURVE SMOOTH",
"125 0 OFFCURVE",
"132 7 OFFCURVE"
);
}
);
width = 602;
},
{
anchors = (
{
name = bottom;
position = "{352, 0}";
},
{
name = top;
position = "{352, 494}";
}
);
background = {
paths = (
{
closed = 0;
nodes = (
"136 700 LINE",
"136 0 LINE"
);
},
{
closed = 0;
nodes = (
"136 186 LINE",
"136 76 OFFCURVE",
"219 36 OFFCURVE",
"334 36 CURVE",
"372 36 LINE",
"482 36 OFFCURVE",
"526 80 OFFCURVE",
"526 190 CURVE",
"526 304 LINE",
"526 414 OFFCURVE",
"482 458 OFFCURVE",
"372 458 CURVE",
"334 458 LINE",
"219 458 OFFCURVE",
"136 418 OFFCURVE",
"136 308 CURVE"
);
}
);
};
layerId = "3776B938-A14A-42B9-91A8-ACB6A1608662";
paths = (
{
closed = 1;
nodes = (
"372 0 LINE SMOOTH",
"501.975 0 OFFCURVE",
"562 60.025 OFFCURVE",
"562 190 CURVE SMOOTH",
"562 304 LINE SMOOTH",
"562 433.975 OFFCURVE",
"501.975 494 OFFCURVE",
"372 494 CURVE SMOOTH",
"334 494 LINE SMOOTH",
"212.371 494 OFFCURVE",
"147.78 441.864 OFFCURVE",
"132.981 345.344 CURVE SMOOTH",
"131.268 321.516 OFFCURVE",
"127.472 308 OFFCURVE",
"138.073 308 CURVE SMOOTH",
"160.532 308 OFFCURVE",
"171.793 318.925 OFFCURVE",
"171.793 341.49 CURVE SMOOTH",
"171.793 395.844 OFFCURVE",
"239.793 422 OFFCURVE",
"334 422 CURVE SMOOTH",
"372 422 LINE SMOOTH",
"461.549 422 OFFCURVE",
"490 394.209 OFFCURVE",
"490 304 CURVE SMOOTH",
"490 190 LINE SMOOTH",
"490 100.451 OFFCURVE",
"462.209 72 OFFCURVE",
"372 72 CURVE SMOOTH",
"334 72 LINE SMOOTH",
"239.793 72 OFFCURVE",
"171.793 98.233 OFFCURVE",
"171.793 152.51 CURVE SMOOTH",
"171.793 175.075 OFFCURVE",
"160.532 186 OFFCURVE",
"137.463 186 CURVE SMOOTH",
"127.366 186 OFFCURVE",
"131.308 172.484 OFFCURVE",
"132.981 148.656 CURVE SMOOTH",
"147.78 52.136 OFFCURVE",
"212.371 0 OFFCURVE",
"334 0 CURVE SMOOTH"
);
},
{
closed = 1;
nodes = (
"172 36 CURVE SMOOTH",
"172 664 LINE SMOOTH",
"172 687.4 OFFCURVE",
"159.4 700 OFFCURVE",
"136 700 CURVE SMOOTH",
"112.6 700 OFFCURVE",
"100 687.4 OFFCURVE",
"100 664 CURVE SMOOTH",
"100 36 LINE SMOOTH",
"100 12.6 OFFCURVE",
"112.6 0 OFFCURVE",
"136 0 CURVE SMOOTH",
"159 0 OFFCURVE",
"172 13 OFFCURVE"
);
}
);
width = 642;
}
);
leftKerningGroup = h;
leftMetricsKey = n;
rightKerningGroup = o;
rightMetricsKey = o;
unicode = 0062;
},
{
color = 4;
glyphname = c;
lastChange = "2016-07-30 22:01:40 +0000";
layers = (
{
anchors = (
{
name = bottom;
position = "{298, 0}";
},
{
name = top;
position = "{298, 461}";
}
);
background = {
paths = (
{
closed = 1;
nodes = (
"388 1 LINE SMOOTH",
"510 1 OFFCURVE",
"563 54 OFFCURVE",
"563 176 CURVE SMOOTH",
"563 286 LINE SMOOTH",
"563 408 OFFCURVE",
"510 461 OFFCURVE",
"388 461 CURVE SMOOTH",
"306 461 LINE SMOOTH",
"184 461 OFFCURVE",
"131 409 OFFCURVE",
"131 286 CURVE SMOOTH",
"131 175 LINE SMOOTH",
"131 54 OFFCURVE",
"184 1 OFFCURVE",
"306 1 CURVE SMOOTH"
);
},
{
closed = 1;
nodes = (
"208 43 OFFCURVE",
"173 78 OFFCURVE",
"173 175 CURVE SMOOTH",
"173 286 LINE SMOOTH",
"173 385 OFFCURVE",
"208 419 OFFCURVE",
"306 419 CURVE SMOOTH",
"388 419 LINE SMOOTH",
"486 419 OFFCURVE",
"521 384 OFFCURVE",
"521 286 CURVE SMOOTH",
"521 176 LINE SMOOTH",
"521 78 OFFCURVE",
"486 43 OFFCURVE",
"388 43 CURVE SMOOTH",
"306 43 LINE SMOOTH"
);
}
);
};
layerId = "B309FD91-69BF-47D2-8142-D25EBE917F3C";
paths = (
{
closed = 1;
nodes = (
"337 0 LINE SMOOTH",
"434.567 0 OFFCURVE",
"483.151 31.818 OFFCURVE",
"490.892 103.363 CURVE SMOOTH",
"492.396 117.279 OFFCURVE",
"484.344 125 OFFCURVE",
"470.453 125 CURVE SMOOTH",
"456.988 125 OFFCURVE",
"450.56 117.959 OFFCURVE",
"448.75 104.645 CURVE SMOOTH",
"442.507 58.861 OFFCURVE",
"411.981 42 OFFCURVE",
"337 42 CURVE SMOOTH",
"255 42 LINE SMOOTH",
"156.669 42 OFFCURVE",
"122 76.669 OFFCURVE",
"122 175 CURVE SMOOTH",
"122 287 LINE",
"122 385.57 OFFCURVE",
"156.543 419.894 OFFCURVE",
"254.809 419 CURVE SMOOTH",
"337 419 LINE SMOOTH",
"411.981 419 OFFCURVE",
"442.507 402.139 OFFCURVE",
"448.75 356.355 CURVE SMOOTH",
"450.56 343.041 OFFCURVE",
"456.988 336 OFFCURVE",
"470.342 336 CURVE SMOOTH",
"484.344 336 OFFCURVE",
"492.396 343.721 OFFCURVE",
"490.892 357.637 CURVE SMOOTH",
"483.151 429.182 OFFCURVE",
"434.567 461 OFFCURVE",
"337 461 CURVE SMOOTH",
"255 461 LINE SMOOTH",
"133.417 462.106 OFFCURVE",
"80 409.046 OFFCURVE",
"80 287 CURVE SMOOTH",
"80 175 LINE SMOOTH",
"80 53.288 OFFCURVE",
"133.288 0 OFFCURVE",
"255 0 CURVE SMOOTH"
);
}
);
width = 551;
},
{
anchors = (
{
name = bottom;
position = "{312, 0}";
},
{
name = top;
position = "{311, 494}";
}
);
background = {
paths = (
{
closed = 0;
nodes = (
"486 354 LINE",
"486 428.286 OFFCURVE",
"447.714 458 OFFCURVE",
"352 458 CURVE",
"270 458 LINE",
"160 459 OFFCURVE",
"116 415.286 OFFCURVE",
"116 305 CURVE",
"116 190 LINE",
"116 80 OFFCURVE",
"160 36 OFFCURVE",
"270 36 CURVE",
"352 36 LINE",
"447.714 36 OFFCURVE",
"486 65.714 OFFCURVE",
"486 140 CURVE"
);
}
);
};
layerId = "3776B938-A14A-42B9-91A8-ACB6A1608662";
paths = (
{
closed = 1;
nodes = (
"352 0 LINE SMOOTH",
"450.391 0 OFFCURVE",
"505.152 32.523 OFFCURVE",
"518.668 102.419 CURVE SMOOTH",
"523.265 126.319 OFFCURVE",
"508.488 140 OFFCURVE",
"484.38 140 CURVE SMOOTH",
"461.2 140 OFFCURVE",
"453.011 128.458 OFFCURVE",
"445.511 107.243 CURVE SMOOTH",
"436.106 81.191 OFFCURVE",
"410.198 72 OFFCURVE",
"352 72 CURVE SMOOTH",
"270 72 LINE SMOOTH",
"180.451 72 OFFCURVE",
"152 99.791 OFFCURVE",
"152 190 CURVE SMOOTH",
"152 305 LINE",
"152 395.417 OFFCURVE",
"180.237 422.815 OFFCURVE",
"269.673 422.001 CURVE SMOOTH",
"352 422 LINE SMOOTH",
"410.198 422 OFFCURVE",
"436.106 412.809 OFFCURVE",
"445.511 386.757 CURVE SMOOTH",
"453.011 365.542 OFFCURVE",
"461.2 354 OFFCURVE",
"483.426 354 CURVE SMOOTH",
"508.488 354 OFFCURVE",
"523.265 367.681 OFFCURVE",
"518.668 391.581 CURVE SMOOTH",
"505.152 461.477 OFFCURVE",
"450.391 494 OFFCURVE",
"352 494 CURVE SMOOTH",
"270 494 LINE SMOOTH",
"139.901 495.184 OFFCURVE",
"80 435.03 OFFCURVE",
"80 305 CURVE SMOOTH",
"80 190 LINE SMOOTH",
"80 60.025 OFFCURVE",
"140.025 0 OFFCURVE",
"270 0 CURVE SMOOTH"
);
}
);
width = 580;
},
{
associatedMasterId = "B309FD91-69BF-47D2-8142-D25EBE917F3C";
background = {
paths = (
{
closed = 1;
nodes = (
"371 0 LINE SMOOTH",
"455 0 OFFCURVE",
"466 49 OFFCURVE",
"466 110 CURVE SMOOTH",
"466 127 OFFCURVE",
"459 136 OFFCURVE",
"445 137 CURVE",
"431 137 OFFCURVE",
"424 126 OFFCURVE",
"424 105 CURVE SMOOTH",
"424 83 OFFCURVE",
"420 67 OFFCURVE",
"411 57 CURVE SMOOTH",
"402 47 OFFCURVE",
"387 42 OFFCURVE",
"364 42 CURVE SMOOTH",
"230 42 LINE SMOOTH",
"117 42 OFFCURVE",
"64 53 OFFCURVE",
"64 175 CURVE SMOOTH",
"64 286 LINE SMOOTH",
"64 408 OFFCURVE",
"117 419 OFFCURVE",
"230 419 CURVE SMOOTH",
"364 419 LINE SMOOTH",
"409 419 OFFCURVE",
"424 399 OFFCURVE",
"424 356 CURVE SMOOTH",
"424 335 OFFCURVE",
"431 324 OFFCURVE",
"445 324 CURVE SMOOTH",
"473 324 OFFCURVE",
"471 385 OFFCURVE",
"450 429 CURVE SMOOTH",
"440 450 OFFCURVE",
"415 461 OFFCURVE",
"375 461 CURVE",
"374 461 OFFCURVE",
"372 461 OFFCURVE",
"371 461 CURVE",
"230 461 LINE SMOOTH",
"89 461 OFFCURVE",
"22 426 OFFCURVE",
"22 286 CURVE SMOOTH",
"22 175 LINE SMOOTH",
"22 35 OFFCURVE",
"89 0 OFFCURVE",
"230 0 CURVE SMOOTH"
);
}
);
};
layerId = "AE6912A3-148A-478D-A454-8113B9A86CB2";
name = "Light Jul 19 16, 17:36";
paths = (
{
closed = 0;
nodes = (
"440 325 LINE",
"440 410 OFFCURVE",
"400 440 OFFCURVE",
"290 440 CURVE",
"200 440 LINE",
"92 441 OFFCURVE",
"50 402 OFFCURVE",
"50 286 CURVE",
"50 176 LINE",
"50 60 OFFCURVE",
"92 20 OFFCURVE",
"199 20 CURVE",
"290 20 LINE",
"400 20 OFFCURVE",
"440 50 OFFCURVE",
"440 135 CURVE"
);
}
);
width = 490;
},
{
associatedMasterId = "B309FD91-69BF-47D2-8142-D25EBE917F3C";
background = {
paths = (
{
closed = 1;
nodes = (
"422 0 LINE SMOOTH",
"506 0 OFFCURVE",
"517 49 OFFCURVE",
"517 110 CURVE SMOOTH",
"517 127 OFFCURVE",
"510 136 OFFCURVE",
"496 137 CURVE",
"482 137 OFFCURVE",
"475 126 OFFCURVE",
"475 105 CURVE SMOOTH",
"475 83 OFFCURVE",
"471 67 OFFCURVE",
"462 57 CURVE SMOOTH",
"453 47 OFFCURVE",
"438 42 OFFCURVE",
"415 42 CURVE SMOOTH",
"281 42 LINE SMOOTH",
"168 42 OFFCURVE",
"115 53 OFFCURVE",
"115 175 CURVE SMOOTH",
"115 286 LINE SMOOTH",
"115 408 OFFCURVE",
"168 419 OFFCURVE",
"281 419 CURVE SMOOTH",
"415 419 LINE SMOOTH",
"460 419 OFFCURVE",
"475 399 OFFCURVE",
"475 356 CURVE SMOOTH",
"475 335 OFFCURVE",
"482 324 OFFCURVE",
"496 324 CURVE SMOOTH",
"524 324 OFFCURVE",
"522 385 OFFCURVE",
"501 429 CURVE SMOOTH",
"491 450 OFFCURVE",
"466 461 OFFCURVE",
"426 461 CURVE",
"425 461 OFFCURVE",
"423 461 OFFCURVE",
"422 461 CURVE",
"281 461 LINE SMOOTH",
"140 461 OFFCURVE",
"73 426 OFFCURVE",
"73 286 CURVE SMOOTH",
"73 175 LINE SMOOTH",
"73 35 OFFCURVE",
"140 0 OFFCURVE",
"281 0 CURVE SMOOTH"
);
},
{
closed = 1;
nodes = (
"341 -1 LINE SMOOTH",
"463 -1 OFFCURVE",
"512 49 OFFCURVE",
"512 175 CURVE SMOOTH",
"512 285 LINE SMOOTH",
"512 411 OFFCURVE",
"463 461 OFFCURVE",
"341 461 CURVE SMOOTH",
"251 461 LINE SMOOTH",
"129 461 OFFCURVE",
"80 412 OFFCURVE",
"80 286 CURVE SMOOTH",
"80 176 LINE SMOOTH",
"80 51 OFFCURVE",
"129 -1 OFFCURVE",
"250 -1 CURVE SMOOTH"
);
},
{
closed = 1;
nodes = (
"153 41 OFFCURVE",
"122 73 OFFCURVE",
"122 176 CURVE SMOOTH",
"122 286 LINE SMOOTH",
"122 389 OFFCURVE",
"153 419 OFFCURVE",
"251 419 CURVE SMOOTH",
"341 419 LINE SMOOTH",
"440 419 OFFCURVE",
"470 388 OFFCURVE",
"470 285 CURVE SMOOTH",
"470 175 LINE SMOOTH",
"470 72 OFFCURVE",
"440 41 OFFCURVE",
"341 41 CURVE SMOOTH",
"250 41 LINE SMOOTH"
);
}
);
};
layerId = "A60EC719-CF2A-412C-A8E0-5286508F9CB3";
name = "SemiLight Jul 19 16, 17:38";
paths = (
{
closed = 1;
nodes = (
"341 -1 LINE SMOOTH",
"463 -1 OFFCURVE",
"512 38 OFFCURVE",
"512 135 CURVE SMOOTH",
"512 147 OFFCURVE",
"503 156 OFFCURVE",
"491 156 CURVE SMOOTH",
"479 156 OFFCURVE",
"470 147 OFFCURVE",
"470 135 CURVE SMOOTH",
"470 64 OFFCURVE",
"441 41 OFFCURVE",
"341 41 CURVE SMOOTH",
"250 41 LINE SMOOTH",
"153 41 OFFCURVE",
"122 73 OFFCURVE",
"122 176 CURVE SMOOTH",
"122 286 LINE SMOOTH",
"122 389 OFFCURVE",
"153 420 OFFCURVE",
"251 419 CURVE SMOOTH",
"341 419 LINE SMOOTH",
"441 419 OFFCURVE",
"470 396 OFFCURVE",
"470 325 CURVE SMOOTH",
"470 313 OFFCURVE",
"479 304 OFFCURVE",
"491 304 CURVE SMOOTH",
"503 304 OFFCURVE",
"512 313 OFFCURVE",
"512 325 CURVE SMOOTH",
"512 422 OFFCURVE",
"463 461 OFFCURVE",
"341 461 CURVE SMOOTH",
"251 461 LINE SMOOTH",
"129 462 OFFCURVE",
"80 412 OFFCURVE",
"80 286 CURVE SMOOTH",
"80 176 LINE SMOOTH",
"80 50 OFFCURVE",
"129 -1 OFFCURVE",
"250 -1 CURVE SMOOTH"
);
}
);
width = 567;
}
);
leftKerningGroup = o;
leftMetricsKey = o;
rightKerningGroup = c;
rightMetricsKey = "=o-20";
unicode = 0063;
},
{
color = 4;
glyphname = d;
lastChange = "2016-07-29 19:44:25 +0000";
layers = (
{
anchors = (
{
name = bottom;
position = "{270, 0}";
},
{
name = center;
position = "{454.249, 571}";
},
{
name = top;
position = "{323.022, 461}";
},
{
name = topright;
position = "{553, 461}";
}
);
background = {
paths = (
{
closed = 1;
nodes = (
"307 0 LINE SMOOTH",
"381 0 OFFCURVE",
"436 24 OFFCURVE",
"472 72 CURVE",
"472 23 LINE SMOOTH",
"472 -17 OFFCURVE",
"514 -17 OFFCURVE",
"514 23 CURVE SMOOTH",
"514 612 LINE SMOOTH",
"514 633 OFFCURVE",
"508 643 OFFCURVE",
"495 643 CURVE SMOOTH",
"480 643 OFFCURVE",
"472 633 OFFCURVE",
"472 612 CURVE SMOOTH",
"472 461 LINE",
"278 461 LINE SMOOTH",
"137 461 OFFCURVE",
"70 426 OFFCURVE",
"70 286 CURVE SMOOTH",
"70 175 LINE SMOOTH",
"70 35 OFFCURVE",
"137 0 OFFCURVE",
"278 0 CURVE SMOOTH"
);
},
{
closed = 1;
nodes = (
"165 42 OFFCURVE",
"112 53 OFFCURVE",
"112 175 CURVE SMOOTH",
"112 286 LINE SMOOTH",
"112 408 OFFCURVE",
"165 419 OFFCURVE",
"278 419 CURVE SMOOTH",
"472 419 LINE",
"472 228 LINE SMOOTH",
"472 108 OFFCURVE",
"412 42 OFFCURVE",
"307 42 CURVE SMOOTH",
"278 42 LINE SMOOTH"
);
}
);
};
layerId = "B309FD91-69BF-47D2-8142-D25EBE917F3C";
paths = (
{
closed = 1;
nodes = (
"293 0 LINE SMOOTH",
"425.372 0 OFFCURVE",
"481.467 51.959 OFFCURVE",
"490.981 149.485 CURVE SMOOTH",
"492.332 163.337 OFFCURVE",
"504.366 171 OFFCURVE",
"490.493 171 CURVE SMOOTH",
"477.013 171 OFFCURVE",
"469.833 164.063 OFFCURVE",
"469.833 150.664 CURVE SMOOTH",
"469.833 78.026 OFFCURVE",
"402.427 42 OFFCURVE",
"293 42 CURVE SMOOTH",
"255 42 LINE SMOOTH",
"156.669 42 OFFCURVE",
"122 76.669 OFFCURVE",
"122 175 CURVE SMOOTH",
"122 286 LINE SMOOTH",
"122 384.331 OFFCURVE",
"156.669 419 OFFCURVE",
"255 419 CURVE SMOOTH",
"470 419 LINE SMOOTH",
"483.65 419 OFFCURVE",
"491 426.35 OFFCURVE",
"491 440 CURVE SMOOTH",
"491 453.65 OFFCURVE",
"483.65 461 OFFCURVE",
"470 461 CURVE SMOOTH",
"255 461 LINE SMOOTH",
"133.288 461 OFFCURVE",
"80 407.712 OFFCURVE",
"80 286 CURVE SMOOTH",
"80 175 LINE SMOOTH",
"80 53.288 OFFCURVE",
"133.288 0 OFFCURVE",
"255 0 CURVE SMOOTH"
);
},
{
closed = 1;
nodes = (
"512 21 CURVE SMOOTH",
"512 669 LINE SMOOTH",
"512 682.65 OFFCURVE",
"504.65 690 OFFCURVE",
"491 690 CURVE SMOOTH",
"477.35 690 OFFCURVE",
"470 682.65 OFFCURVE",
"470 669 CURVE SMOOTH",
"470 21 LINE SMOOTH",
"470 7.35 OFFCURVE",
"477.35 0 OFFCURVE",
"491 0 CURVE SMOOTH",
"505 0 OFFCURVE",
"512 7 OFFCURVE"
);
}
);
width = 592;
},
{
anchors = (
{
name = bottom;
position = "{310, 0}";
},
{
name = center;
position = "{464, 588}";
},
{
name = top;
position = "{344.356, 494}";
},
{
name = topright;
position = "{588, 494}";
}
);
background = {
paths = (
{
closed = 0;
nodes = (
"506 0 LINE",
"506 700 LINE"
);
},
{
closed = 0;
nodes = (
"506 458 LINE",
"270 458 LINE",
"160 458 OFFCURVE",
"116 414 OFFCURVE",
"116 304 CURVE",
"116 190 LINE",
"116 80 OFFCURVE",
"160 36 OFFCURVE",
"270 36 CURVE",
"308 36 LINE",
"423 36 OFFCURVE",
"506 76 OFFCURVE",
"506 186 CURVE"
);
}
);
};
layerId = "3776B938-A14A-42B9-91A8-ACB6A1608662";
paths = (
{
closed = 1;
nodes = (
"308 0 LINE SMOOTH",
"441.157 0 OFFCURVE",
"492.818 52.136 OFFCURVE",
"509.019 148.656 CURVE SMOOTH",
"513.003 172.484 OFFCURVE",
"528.577 186 OFFCURVE",
"503.927 186 CURVE SMOOTH",
"481.468 186 OFFCURVE",
"470.207 175.075 OFFCURVE",
"470.207 152.51 CURVE SMOOTH",
"470.207 98.233 OFFCURVE",
"402.207 72 OFFCURVE",
"308 72 CURVE SMOOTH",
"270 72 LINE SMOOTH",
"180.451 72 OFFCURVE",
"152 99.791 OFFCURVE",
"152 190 CURVE SMOOTH",
"152 304 LINE SMOOTH",
"152 393.549 OFFCURVE",
"179.791 422 OFFCURVE",
"270 422 CURVE SMOOTH",
"470 422 LINE SMOOTH",
"493.4 422 OFFCURVE",
"506 434.6 OFFCURVE",
"506 458 CURVE SMOOTH",
"506 481.4 OFFCURVE",
"493.4 494 OFFCURVE",
"470 494 CURVE SMOOTH",
"270 494 LINE SMOOTH",
"140.025 494 OFFCURVE",
"80 433.975 OFFCURVE",
"80 304 CURVE SMOOTH",
"80 190 LINE SMOOTH",
"80 60.025 OFFCURVE",
"140.025 0 OFFCURVE",
"270 0 CURVE SMOOTH"
);
},
{
closed = 1;
nodes = (
"542 36 CURVE SMOOTH",
"542 664 LINE SMOOTH",
"542 687.4 OFFCURVE",
"529.4 700 OFFCURVE",
"506 700 CURVE SMOOTH",
"482.6 700 OFFCURVE",
"470 687.4 OFFCURVE",
"470 664 CURVE SMOOTH",
"470 36 LINE SMOOTH",
"470 12.6 OFFCURVE",
"482.6 0 OFFCURVE",
"506 0 CURVE SMOOTH",
"529 0 OFFCURVE",
"542 13 OFFCURVE"
);
}
);
width = 632;
},
{
associatedMasterId = "B309FD91-69BF-47D2-8142-D25EBE917F3C";
background = {
paths = (
{
closed = 1;
nodes = (
"299 0 LINE SMOOTH",
"373 0 OFFCURVE",
"428 24 OFFCURVE",
"464 72 CURVE",
"464 23 LINE SMOOTH",
"464 -17 OFFCURVE",
"506 -17 OFFCURVE",
"506 23 CURVE SMOOTH",
"506 612 LINE SMOOTH",
"506 632.667 OFFCURVE",
"499.667 643 OFFCURVE",
"487 643 CURVE SMOOTH",
"471.667 643 OFFCURVE",
"464 632.667 OFFCURVE",
"464 612 CURVE SMOOTH",
"464 461 LINE",
"270 461 LINE SMOOTH",
"128.667 461 OFFCURVE",
"62 426 OFFCURVE",
"62 286 CURVE SMOOTH",
"62 175 LINE SMOOTH",
"62 35 OFFCURVE",
"128.667 0 OFFCURVE",
"270 0 CURVE SMOOTH"
);
},
{
closed = 1;
nodes = (
"157.186 42 OFFCURVE",
"104 52.983 OFFCURVE",
"104 175 CURVE SMOOTH",
"104 286 LINE SMOOTH",
"104 408.017 OFFCURVE",
"157.186 419 OFFCURVE",
"270 419 CURVE SMOOTH",
"464 419 LINE",
"464 228 LINE SMOOTH",
"464 108 OFFCURVE",
"404.333 42 OFFCURVE",
"299 42 CURVE SMOOTH",
"270 42 LINE SMOOTH"
);
}
);
};
layerId = "C82BEC36-ED0D-41A8-A8F7-FD1DE0FF4EE5";
name = "Light Jul 15 16, 19:16";
paths = (
{
closed = 0;
nodes = (
"494 20 LINE",
"494 623 LINE"
);
},
{
closed = 1;
nodes = (
"292 441 LINE",
"147.7 441 OFFCURVE",
"90 401 OFFCURVE",
"90 301 CURVE",
"90 160 LINE",
"90 60 OFFCURVE",
"147.7 20 OFFCURVE",
"292 20 CURVE",
"436.3 20 OFFCURVE",
"494 60 OFFCURVE",
"494 160 CURVE",
"494 441 LINE"
);
}
);
width = 594;
},
{
associatedMasterId = "B309FD91-69BF-47D2-8142-D25EBE917F3C";
background = {
paths = (
{
closed = 1;
nodes = (
"299 0 LINE SMOOTH",
"373 0 OFFCURVE",
"428 24 OFFCURVE",
"464 72 CURVE",
"464 23 LINE SMOOTH",
"464 -17 OFFCURVE",
"506 -17 OFFCURVE",
"506 23 CURVE SMOOTH",
"506 612 LINE SMOOTH",
"506 632.667 OFFCURVE",
"499.667 643 OFFCURVE",
"487 643 CURVE SMOOTH",
"471.667 643 OFFCURVE",
"464 632.667 OFFCURVE",
"464 612 CURVE SMOOTH",
"464 461 LINE",
"270 461 LINE SMOOTH",
"128.667 461 OFFCURVE",
"62 426 OFFCURVE",
"62 286 CURVE SMOOTH",
"62 175 LINE SMOOTH",
"62 35 OFFCURVE",
"128.667 0 OFFCURVE",
"270 0 CURVE SMOOTH"
);
},
{
closed = 1;
nodes = (
"157.186 42 OFFCURVE",
"104 52.983 OFFCURVE",
"104 175 CURVE SMOOTH",
"104 286 LINE SMOOTH",
"104 408.017 OFFCURVE",
"157.186 419 OFFCURVE",
"270 419 CURVE SMOOTH",
"464 419 LINE",
"464 228 LINE SMOOTH",
"464 108 OFFCURVE",
"404.333 42 OFFCURVE",
"299 42 CURVE SMOOTH",
"270 42 LINE SMOOTH"
);
}
);
};
layerId = "B8555D2A-4484-4DC8-8C1D-140BB2894095";
name = "SemiLight Jul 15 16, 19:17";
paths = (
{
closed = 1;
nodes = (
"378.172 -1 OFFCURVE",
"437.371 13.785 OFFCURVE",
"473 46.245 CURVE",
"473 20 LINE SMOOTH",
"473 8.402 OFFCURVE",
"482.402 -1 OFFCURVE",
"494 -1 CURVE SMOOTH",
"505.598 -1 OFFCURVE",
"515 8.402 OFFCURVE",
"515 20 CURVE SMOOTH",
"515 623 LINE SMOOTH",
"515 634.598 OFFCURVE",
"505.598 644 OFFCURVE",
"494 644 CURVE SMOOTH",
"482.402 644 OFFCURVE",
"473 634.598 OFFCURVE",
"473 623 CURVE SMOOTH",
"473 462 LINE",
"292 462 LINE SMOOTH",
"132.7 462 OFFCURVE",
"69 416 OFFCURVE",
"69 301 CURVE SMOOTH",
"69 160 LINE SMOOTH",
"69 45 OFFCURVE",
"132.7 -1 OFFCURVE",
"292 -1 CURVE SMOOTH"
);
},
{
closed = 1;
nodes = (
"162.7 41 OFFCURVE",
"111 75 OFFCURVE",
"111 160 CURVE SMOOTH",
"111 301 LINE SMOOTH",
"111 386 OFFCURVE",
"162.7 420 OFFCURVE",
"292 420 CURVE SMOOTH",
"473 420 LINE",
"473 160 LINE SMOOTH",
"473 73.513 OFFCURVE",
"425.911 41 OFFCURVE",
"292 41 CURVE SMOOTH"
);
}
);
width = 600;
}
);
leftKerningGroup = o;
leftMetricsKey = o;
rightKerningGroup = d;
rightMetricsKey = n;
unicode = 0064;
},
{
color = 4;
glyphname = eth;
lastChange = "2016-07-29 18:05:46 +0000";
layers = (
{
guideLines = (
{
angle = 90;
position = "{512, 280}";
},
{
angle = 90;
position = "{470, 280}";
}
);
layerId = "B309FD91-69BF-47D2-8142-D25EBE917F3C";
paths = (
{
closed = 1;
nodes = (
"153 712 LINE SMOOTH",
"139 716 OFFCURVE",
"130 710 OFFCURVE",
"127 697 CURVE SMOOTH",
"124 684 OFFCURVE",
"129 675 OFFCURVE",
"142 671 CURVE",
"373 613 LINE SMOOTH",
"426 599 OFFCURVE",
"455 540 OFFCURVE",
"465 413 CURVE",
"437 446 OFFCURVE",
"392 462 OFFCURVE",
"337 462 CURVE SMOOTH",
"255 462 LINE SMOOTH",
"133 463 OFFCURVE",
"80 410 OFFCURVE",
"80 287 CURVE SMOOTH",
"80 175 LINE SMOOTH",
"80 54 OFFCURVE",
"133 1 OFFCURVE",
"255 1 CURVE SMOOTH",
"337 1 LINE SMOOTH",
"459 1 OFFCURVE",
"512 54 OFFCURVE",
"512 176 CURVE SMOOTH",
"512 311 LINE SMOOTH",
"510 531 OFFCURVE",
"472 631 OFFCURVE",
"383 653 CURVE SMOOTH"
);
},
{
closed = 1;
nodes = (
"470 78 OFFCURVE",
"435 43 OFFCURVE",
"337 43 CURVE SMOOTH",
"255 43 LINE SMOOTH",
"157 43 OFFCURVE",
"122 78 OFFCURVE",
"122 175 CURVE SMOOTH",
"122 287 LINE SMOOTH",
"122 386 OFFCURVE",
"157 421 OFFCURVE",
"255 420 CURVE SMOOTH",
"337 420 LINE SMOOTH",
"416 420 OFFCURVE",
"470 394 OFFCURVE",
"470 311 CURVE SMOOTH",
"470 176 LINE"
);
},
{
closed = 1;
nodes = (
"361 711 LINE SMOOTH",
"371 721 OFFCURVE",
"371 731 OFFCURVE",
"362 741 CURVE SMOOTH",
"353 751 OFFCURVE",
"342 751 OFFCURVE",
"332 742 CURVE SMOOTH",
"179 599 LINE SMOOTH",
"169 589 OFFCURVE",
"169 579 OFFCURVE",
"178 569 CURVE SMOOTH",
"187 559 OFFCURVE",
"198 559 OFFCURVE",
"208 568 CURVE SMOOTH"
);
}
);
width = 592;
},
{
background = {
paths = (
{
closed = 1;
nodes = (
"153 712 LINE SMOOTH",
"139 716 OFFCURVE",
"130 710 OFFCURVE",
"127 697 CURVE SMOOTH",
"124 684 OFFCURVE",
"129 675 OFFCURVE",
"142 671 CURVE",
"373 613 LINE SMOOTH",
"426 599 OFFCURVE",
"455 540 OFFCURVE",
"465 413 CURVE",
"437 446 OFFCURVE",
"392 462 OFFCURVE",
"337 462 CURVE SMOOTH",
"255 462 LINE SMOOTH",
"133 463 OFFCURVE",
"80 410 OFFCURVE",
"80 287 CURVE SMOOTH",
"80 175 LINE SMOOTH",
"80 54 OFFCURVE",
"133 1 OFFCURVE",
"255 1 CURVE SMOOTH",
"337 1 LINE SMOOTH",
"459 1 OFFCURVE",
"512 54 OFFCURVE",
"512 176 CURVE SMOOTH",
"512 311 LINE SMOOTH",
"510 531 OFFCURVE",
"472 631 OFFCURVE",
"383 653 CURVE SMOOTH"
);
},
{
closed = 1;
nodes = (
"470 78 OFFCURVE",
"435 43 OFFCURVE",
"337 43 CURVE SMOOTH",
"255 43 LINE SMOOTH",
"157 43 OFFCURVE",
"122 78 OFFCURVE",
"122 175 CURVE SMOOTH",
"122 287 LINE SMOOTH",
"122 386 OFFCURVE",
"157 421 OFFCURVE",
"255 420 CURVE SMOOTH",
"337 420 LINE SMOOTH",
"416 420 OFFCURVE",
"470 394 OFFCURVE",
"470 311 CURVE SMOOTH",
"470 176 LINE"
);
},
{
closed = 1;
nodes = (
"361 711 LINE SMOOTH",
"371 721 OFFCURVE",
"371 731 OFFCURVE",
"362 741 CURVE SMOOTH",
"353 751 OFFCURVE",
"342 751 OFFCURVE",
"332 742 CURVE SMOOTH",
"179 599 LINE SMOOTH",
"169 589 OFFCURVE",
"169 579 OFFCURVE",
"178 569 CURVE SMOOTH",
"187 559 OFFCURVE",
"198 559 OFFCURVE",
"208 568 CURVE SMOOTH"
);
}
);
};
layerId = "3776B938-A14A-42B9-91A8-ACB6A1608662";
paths = (
{
closed = 1;
nodes = (
"169 727 LINE SMOOTH",
"146 733 OFFCURVE",
"131 724 OFFCURVE",
"125 701 CURVE SMOOTH",
"119 678 OFFCURVE",
"128 663 OFFCURVE",
"151 657 CURVE SMOOTH",
"384 598 LINE SMOOTH",
"426 588 OFFCURVE",
"452 555 OFFCURVE",
"463 449 CURVE",
"434 479 OFFCURVE",
"397 494 OFFCURVE",
"352 494 CURVE SMOOTH",
"270 494 LINE SMOOTH",
"140 494 OFFCURVE",
"80 435 OFFCURVE",
"80 304 CURVE SMOOTH",
"80 189 LINE SMOOTH",
"80 60 OFFCURVE",
"140 0 OFFCURVE",
"270 0 CURVE SMOOTH",
"352 0 LINE SMOOTH",
"482 0 OFFCURVE",
"542 60 OFFCURVE",
"542 190 CURVE SMOOTH",
"542 331 LINE SMOOTH",
"538 547 OFFCURVE",
"498 645 OFFCURVE",
"402 668 CURVE SMOOTH"
);
},
{
closed = 1;
nodes = (
"470 100 OFFCURVE",
"442 72 OFFCURVE",
"352 72 CURVE SMOOTH",
"270 72 LINE SMOOTH",
"180 72 OFFCURVE",
"152 100 OFFCURVE",
"152 189 CURVE SMOOTH",
"152 304 LINE SMOOTH",
"152 395 OFFCURVE",
"180 422 OFFCURVE",
"270 422 CURVE SMOOTH",
"352 422 LINE SMOOTH",
"442 422 OFFCURVE",
"470 394 OFFCURVE",
"470 304 CURVE SMOOTH",
"470 190 LINE SMOOTH"
);
},
{
closed = 1;
nodes = (
"394 701 LINE SMOOTH",
"409 715 OFFCURVE",
"409 731 OFFCURVE",
"395 746 CURVE SMOOTH",
"381 761 OFFCURVE",
"365 762 OFFCURVE",
"350 747 CURVE SMOOTH",
"201 607 LINE SMOOTH",
"186 593 OFFCURVE",
"186 577 OFFCURVE",
"200 562 CURVE SMOOTH",
"214 547 OFFCURVE",
"230 546 OFFCURVE",
"245 561 CURVE SMOOTH"
);
}
);
width = 622;
}
);
leftKerningGroup = o;
leftMetricsKey = o;
rightKerningGroup = o;
rightMetricsKey = o;
unicode = 00F0;
},
{
color = 4;
glyphname = e;
lastChange = "2016-07-30 22:19:19 +0000";
layers = (
{
anchors = (
{
name = bottom;
position = "{304, 0}";
},
{
name = ogonek;
position = "{471, 44}";
},
{
name = top;
position = "{304, 461}";
}
);
background = {
paths = (
{
closed = 1;
nodes = (
"341 -1 LINE SMOOTH",
"463 -1 OFFCURVE",
"512 49 OFFCURVE",
"512 175 CURVE SMOOTH",
"512 285 LINE SMOOTH",
"512 411 OFFCURVE",
"463 461 OFFCURVE",
"341 461 CURVE SMOOTH",
"251 461 LINE SMOOTH",
"129 462 OFFCURVE",
"80 412 OFFCURVE",
"80 286 CURVE SMOOTH",
"80 176 LINE SMOOTH",
"80 51 OFFCURVE",
"129 -1 OFFCURVE",
"250 -1 CURVE SMOOTH"
);
},
{
closed = 1;
nodes = (
"153 41 OFFCURVE",
"122 73 OFFCURVE",
"122 176 CURVE SMOOTH",
"122 286 LINE SMOOTH",
"122 389 OFFCURVE",
"153 420 OFFCURVE",
"251 419 CURVE SMOOTH",
"341 419 LINE SMOOTH",
"440 419 OFFCURVE",
"470 388 OFFCURVE",
"470 285 CURVE SMOOTH",
"470 175 LINE SMOOTH",
"470 72 OFFCURVE",
"440 41 OFFCURVE",
"341 41 CURVE SMOOTH",
"250 41 LINE SMOOTH"
);
}
);
};
layerId = "B309FD91-69BF-47D2-8142-D25EBE917F3C";
paths = (
{
closed = 1;
nodes = (
"337 0 LINE SMOOTH",
"449.215 0 OFFCURVE",
"503.63 37.727 OFFCURVE",
"511.102 123.416 CURVE SMOOTH",
"512.315 137.331 OFFCURVE",
"504.401 145 OFFCURVE",
"490.555 145 CURVE SMOOTH",
"477.072 145 OFFCURVE",
"470.403 137.865 OFFCURVE",
"469.029 124.4 CURVE SMOOTH",
"462.887 64.282 OFFCURVE",
"426.759 42 OFFCURVE",
"337 42 CURVE SMOOTH",
"255 42 LINE SMOOTH",
"156.789 42 OFFCURVE",
"122 76.55 OFFCURVE",
"122 174 CURVE SMOOTH",
"122 286 LINE SMOOTH",
"122 385.308 OFFCURVE",
"156.567 419.894 OFFCURVE",
"254.809 419 CURVE SMOOTH",
"337 419 LINE SMOOTH",
"435.331 419 OFFCURVE",
"470 384.331 OFFCURVE",
"470 286 CURVE SMOOTH",
"470 257.352 LINE",
"121.997 257.352 LINE SMOOTH",
"108.347 257.352 OFFCURVE",
"100.997 250.002 OFFCURVE",
"100.997 236.352 CURVE SMOOTH",
"100.997 222.702 OFFCURVE",
"108.347 215.352 OFFCURVE",
"121.997 215.352 CURVE SMOOTH",
"491 215.352 LINE SMOOTH",
"504.65 215.352 OFFCURVE",
"512 222.702 OFFCURVE",
"512 236.352 CURVE SMOOTH",
"512 286 LINE",
"512 407.712 OFFCURVE",
"458.712 461 OFFCURVE",
"337 461 CURVE SMOOTH",
"255 461 LINE SMOOTH",
"133.398 462.106 OFFCURVE",
"80 408.742 OFFCURVE",
"80 286 CURVE SMOOTH",
"80 174 LINE SMOOTH",
"80 53.127 OFFCURVE",
"133.45 0 OFFCURVE",
"255 0 CURVE SMOOTH"
);
}
);
width = 592;
},
{
anchors = (
{
name = bottom;
position = "{314, 0}";
},
{
name = ogonek;
position = "{491, 61}";
},
{
name = top;
position = "{314, 494}";
}
);
background = {
paths = (
{
closed = 0;
nodes = (
"506 160 LINE",
"506 71 OFFCURVE",
"462 36 OFFCURVE",
"352 36 CURVE",
"270 36 LINE",
"160 36 OFFCURVE",
"116 80 OFFCURVE",
"116 189 CURVE",
"116 304 LINE",
"116 415 OFFCURVE",
"160 459 OFFCURVE",
"270 458 CURVE",
"352 458 LINE",
"462 458 OFFCURVE",
"506 414 OFFCURVE",
"506 304 CURVE",
"506 254 LINE",
"116 254 LINE"
);
}
);
};
layerId = "3776B938-A14A-42B9-91A8-ACB6A1608662";
paths = (
{
closed = 1;
nodes = (
"352 0 LINE SMOOTH",
"465 0 OFFCURVE",
"526 39 OFFCURVE",
"539 123 CURVE SMOOTH",
"543 147 OFFCURVE",
"529 160 OFFCURVE",
"505 160 CURVE SMOOTH",
"482 160 OFFCURVE",
"472 148 OFFCURVE",
"467 126 CURVE SMOOTH",
"457 86 OFFCURVE",
"426 72 OFFCURVE",
"352 72 CURVE SMOOTH",
"270 72 LINE SMOOTH",
"180 72 OFFCURVE",
"152 100 OFFCURVE",
"152 189 CURVE SMOOTH",
"152 304 LINE SMOOTH",
"152 395 OFFCURVE",
"180 423 OFFCURVE",
"270 422 CURVE SMOOTH",
"352 422 LINE SMOOTH",
"442 422 OFFCURVE",
"470 394 OFFCURVE",
"470 304 CURVE SMOOTH",
"470 290 LINE",
"152 290 LINE SMOOTH",
"129 290 OFFCURVE",
"116 278 OFFCURVE",
"116 254 CURVE SMOOTH",
"116 231 OFFCURVE",
"129 218 OFFCURVE",
"152 218 CURVE SMOOTH",
"506 218 LINE SMOOTH",
"529 218 OFFCURVE",
"542 231 OFFCURVE",
"542 254 CURVE SMOOTH",
"542 304 LINE",
"542 434 OFFCURVE",
"482 494 OFFCURVE",
"352 494 CURVE SMOOTH",
"270 494 LINE SMOOTH",
"140 495 OFFCURVE",
"80 435 OFFCURVE",
"80 304 CURVE SMOOTH",
"80 189 LINE SMOOTH",
"80 60 OFFCURVE",
"140 0 OFFCURVE",
"270 0 CURVE SMOOTH"
);
}
);
width = 622;
},
{
associatedMasterId = "B309FD91-69BF-47D2-8142-D25EBE917F3C";
background = {
paths = (
{
closed = 1;
nodes = (
"411 0 LINE SMOOTH",
"495 0 OFFCURVE",
"506 48.667 OFFCURVE",
"506 110 CURVE SMOOTH",
"506 127.333 OFFCURVE",
"499 136.333 OFFCURVE",
"485 137 CURVE",
"471 137 OFFCURVE",
"464 126.167 OFFCURVE",
"464 104.5 CURVE SMOOTH",
"464 82.833 OFFCURVE",
"459.667 67 OFFCURVE",
"451 57 CURVE SMOOTH",
"442.333 47 OFFCURVE",
"426.667 42 OFFCURVE",
"404 42 CURVE SMOOTH",
"270 42 LINE SMOOTH",
"157.186 42 OFFCURVE",
"104 52.983 OFFCURVE",
"104 175 CURVE SMOOTH",
"104 250 LINE",
"506 250 LINE",
"506 286 LINE SMOOTH",
"506 426 OFFCURVE",
"439 461 OFFCURVE",
"299 461 CURVE SMOOTH",
"270 461 LINE SMOOTH",
"128.667 461 OFFCURVE",
"62 426 OFFCURVE",
"62 286 CURVE SMOOTH",
"62 175 LINE SMOOTH",
"62 35 OFFCURVE",
"128.667 0 OFFCURVE",
"270 0 CURVE SMOOTH"
);
},
{
closed = 1;
nodes = (
"104 400 OFFCURVE",
"147.333 419 OFFCURVE",
"270 419 CURVE SMOOTH",
"299 419 LINE SMOOTH",
"420.333 419 OFFCURVE",
"464 400 OFFCURVE",
"464 292 CURVE",
"104 292 LINE"
);
}
);
};
layerId = "7ED84003-3BA5-4C2B-BC29-69D0B689B9E0";
name = "Light Jul 15 16, 20:20";
paths = (
{
closed = 0;
nodes = (
"90 231 LINE",
"400 231 LINE",
"460 231 OFFCURVE",
"487 259 OFFCURVE",
"487 331 CURVE",
"487 408 OFFCURVE",
"424 443 OFFCURVE",
"290 443 CURVE",
"153 443 OFFCURVE",
"90 406 OFFCURVE",
"90 324 CURVE SMOOTH",
"90 182 LINE",
"90 71 OFFCURVE",
"135 20 OFFCURVE",
"233 20 CURVE",
"366 20 LINE",
"450 20 OFFCURVE",
"489 50 OFFCURVE",
"489 117 CURVE"
);
}
);
width = 593;
}
);
leftKerningGroup = o;
leftMetricsKey = o;
rightKerningGroup = o;
rightMetricsKey = o;
unicode = 0065;
},
{
color = 4;
glyphname = f;
lastChange = "2016-07-30 22:14:51 +0000";
layers = (
{
background = {
paths = (
{
closed = 1;
nodes = (
"129.65 0 OFFCURVE",
"137 7.35 OFFCURVE",
"137 21 CURVE SMOOTH",
"137 518 LINE",
"137 614.191 OFFCURVE",
"170.793 648 OFFCURVE",
"266.932 648 CURVE SMOOTH",
"281.201 648 OFFCURVE",
"288.551 655.35 OFFCURVE",
"288.551 669 CURVE SMOOTH",
"288.551 685.195 OFFCURVE",
"278.001 690 OFFCURVE",
"266.932 690 CURVE SMOOTH",
"147.41 690 OFFCURVE",
"95 637.568 OFFCURVE",
"95 518 CURVE SMOOTH",
"95 21 LINE SMOOTH",
"95 7.35 OFFCURVE",
"102.35 0 OFFCURVE",
"116 0 CURVE SMOOTH"
);
},
{
closed = 1;
nodes = (
"127.598 -21 OFFCURVE",
"137 -11.598 OFFCURVE",
"137 0 CURVE SMOOTH",
"137 11.598 OFFCURVE",
"127.598 21 OFFCURVE",
"116 21 CURVE SMOOTH",
"104.402 21 OFFCURVE",
"95 11.598 OFFCURVE",
"95 0 CURVE SMOOTH",
"95 -11.598 OFFCURVE",
"104.402 -21 OFFCURVE",
"116 -21 CURVE SMOOTH"
);
},
{
closed = 1;
nodes = (
"41.598 419 OFFCURVE",
"51 428.402 OFFCURVE",
"51 440 CURVE SMOOTH",
"51 451.598 OFFCURVE",
"41.598 461 OFFCURVE",
"30 461 CURVE SMOOTH",
"18.402 461 OFFCURVE",
"9 451.598 OFFCURVE",
"9 440 CURVE SMOOTH",
"9 428.402 OFFCURVE",
"18.402 419 OFFCURVE",
"30 419 CURVE SMOOTH"
);
},
{
closed = 1;
nodes = (
"268 419 LINE SMOOTH",
"281.65 419 OFFCURVE",
"289 426.35 OFFCURVE",
"289 440 CURVE SMOOTH",
"289 453.65 OFFCURVE",
"281.65 461 OFFCURVE",
"268 461 CURVE SMOOTH",
"51 461 LINE SMOOTH",
"37.35 461 OFFCURVE",
"30 453.65 OFFCURVE",
"30 440 CURVE SMOOTH",
"30 426.35 OFFCURVE",
"37.35 419 OFFCURVE",
"51 419 CURVE SMOOTH"
);
},
{
closed = 1;
nodes = (
"300.598 419 OFFCURVE",
"310 428.402 OFFCURVE",
"310 440 CURVE SMOOTH",
"310 451.598 OFFCURVE",
"300.598 461 OFFCURVE",
"289 461 CURVE SMOOTH",
"277.402 461 OFFCURVE",
"268 451.598 OFFCURVE",
"268 440 CURVE SMOOTH",
"268 428.402 OFFCURVE",
"277.402 419 OFFCURVE",
"289 419 CURVE SMOOTH"
);
}
);
};
guideLines = (
{
angle = 90;
position = "{288.734, 491.473}";
}
);
layerId = "B309FD91-69BF-47D2-8142-D25EBE917F3C";
paths = (
{
closed = 1;
nodes = (
"137 21 CURVE SMOOTH",
"137 518 LINE",
"137 614.191 OFFCURVE",
"170.793 648 OFFCURVE",
"266.932 648 CURVE SMOOTH",
"281.201 648 OFFCURVE",
"288.551 655.35 OFFCURVE",
"288.551 669 CURVE SMOOTH",
"288.551 682.65 OFFCURVE",
"281.201 690 OFFCURVE",
"266.932 690 CURVE SMOOTH",
"147.41 690 OFFCURVE",
"95 637.568 OFFCURVE",
"95 518 CURVE SMOOTH",
"95 21 LINE SMOOTH",
"95 7.35 OFFCURVE",
"102.35 0 OFFCURVE",
"116 0 CURVE SMOOTH",
"130 0 OFFCURVE",
"137 7 OFFCURVE"
);
},
{
closed = 1;
nodes = (
"268 419 LINE SMOOTH",
"281.65 419 OFFCURVE",
"289 426.35 OFFCURVE",
"289 440 CURVE SMOOTH",
"289 453.65 OFFCURVE",
"281.65 461 OFFCURVE",
"268 461 CURVE SMOOTH",
"51 461 LINE SMOOTH",
"37.35 461 OFFCURVE",
"30 453.65 OFFCURVE",
"30 440 CURVE SMOOTH",
"30 426.35 OFFCURVE",
"37.35 419 OFFCURVE",
"51 419 CURVE SMOOTH"
);
}
);
width = 309;
},
{
background = {
paths = (
{
closed = 0;
nodes = (
"334 458 LINE",
"40 458 LINE"
);
},
{
closed = 0;
nodes = (
"151 0 LINE",
"151 478 LINE",
"151 585.857 OFFCURVE",
"194.123 629 OFFCURVE",
"301.932 629 CURVE",
"333.551 629 LINE"
);
}
);
};
layerId = "3776B938-A14A-42B9-91A8-ACB6A1608662";
paths = (
{
closed = 1;
nodes = (
"187 36 CURVE SMOOTH",
"187 513 LINE",
"187 601.072 OFFCURVE",
"214.575 628 OFFCURVE",
"301.932 628 CURVE SMOOTH",
"322 628 OFFCURVE",
"333.551 640.6 OFFCURVE",
"333.551 664 CURVE SMOOTH",
"333.551 687.856 OFFCURVE",
"322.195 700 OFFCURVE",
"301.932 700 CURVE SMOOTH",
"174.145 700 OFFCURVE",
"115 640.832 OFFCURVE",
"115 513 CURVE SMOOTH",
"115 36 LINE SMOOTH",
"115 12.6 OFFCURVE",
"127.6 0 OFFCURVE",
"151 0 CURVE SMOOTH",
"174 0 OFFCURVE",
"187 13 OFFCURVE"
);
},
{
closed = 1;
nodes = (
"298 422 LINE SMOOTH",
"321.4 422 OFFCURVE",
"334 434.6 OFFCURVE",
"334 458 CURVE SMOOTH",
"334 481.4 OFFCURVE",
"321.4 494 OFFCURVE",
"298 494 CURVE SMOOTH",
"76 494 LINE SMOOTH",
"52.6 494 OFFCURVE",
"40 481.4 OFFCURVE",
"40 458 CURVE SMOOTH",
"40 434.6 OFFCURVE",
"52.6 422 OFFCURVE",
"76 422 CURVE SMOOTH"
);
}
);
width = 364;
}
);
leftKerningGroup = f;
rightKerningGroup = f;
unicode = 0066;
},
{
color = 4;
glyphname = g;
lastChange = "2016-07-29 18:05:46 +0000";
layers = (
{
anchors = (
{
name = bottom;
position = "{289, -200}";
},
{
name = top;
position = "{301, 461}";
}
);
background = {
paths = (
{
closed = 1;
nodes = (
"168 -205 OFFCURVE",
"170 -205 OFFCURVE",
"171 -205 CURVE",
"434 -205 LINE SMOOTH",
"501 -205 OFFCURVE",
"520 -177 OFFCURVE",
"520 -92 CURVE SMOOTH",
"520 438 LINE SMOOTH",
"520 478 OFFCURVE",
"478 478 OFFCURVE",
"478 438 CURVE SMOOTH",
"478 389 LINE",
"442 437 OFFCURVE",
"387 461 OFFCURVE",
"313 461 CURVE SMOOTH",
"284 461 LINE SMOOTH",
"143 461 OFFCURVE",
"76 426 OFFCURVE",
"76 286 CURVE SMOOTH",
"76 175 LINE SMOOTH",
"76 35 OFFCURVE",
"143 0 OFFCURVE",
"284 0 CURVE SMOOTH",
"425 0 LINE SMOOTH",
"448 0 OFFCURVE",
"465 3 OFFCURVE",
"478 9 CURVE",
"478 -108 LINE SMOOTH",
"478 -151 OFFCURVE",
"468 -163 OFFCURVE",
"427 -163 CURVE SMOOTH",
"178 -163 LINE SMOOTH",
"133 -163 OFFCURVE",
"118 -143 OFFCURVE",
"118 -100 CURVE SMOOTH",
"118 -79 OFFCURVE",
"111 -68 OFFCURVE",
"97 -68 CURVE SMOOTH",
"69 -68 OFFCURVE",
"71 -129 OFFCURVE",
"92 -173 CURVE SMOOTH",
"102 -194 OFFCURVE",
"127 -205 OFFCURVE",
"167 -205 CURVE"
);
},
{
closed = 1;
nodes = (
"171 42 OFFCURVE",
"118 53 OFFCURVE",
"118 175 CURVE SMOOTH",
"118 286 LINE SMOOTH",
"118 408 OFFCURVE",
"171 419 OFFCURVE",
"284 419 CURVE SMOOTH",
"313 419 LINE SMOOTH",
"418 419 OFFCURVE",
"478 352 OFFCURVE",
"478 232 CURVE SMOOTH",
"478 106 LINE SMOOTH",
"478 59 OFFCURVE",
"463 42 OFFCURVE",
"418 42 CURVE SMOOTH",
"284 42 LINE SMOOTH"
);
}
);
};
layerId = "B309FD91-69BF-47D2-8142-D25EBE917F3C";
paths = (
{
closed = 1;
nodes = (
"389 -200 LINE SMOOTH",
"474.221 -200 OFFCURVE",
"512 -162.221 OFFCURVE",
"512 -77 CURVE SMOOTH",
"512 440 LINE SMOOTH",
"512 453.65 OFFCURVE",
"504.65 461 OFFCURVE",
"491 461 CURVE SMOOTH",
"477.35 461 OFFCURVE",
"470 453.65 OFFCURVE",
"470 440 CURVE SMOOTH",
"470 -77 LINE SMOOTH",
"470 -139.182 OFFCURVE",
"450.522 -158 OFFCURVE",
"389 -158 CURVE SMOOTH",
"203 -158 LINE SMOOTH",
"149.012 -158 OFFCURVE",
"127.401 -143.508 OFFCURVE",
"122.918 -97.937 CURVE SMOOTH",
"121.574 -84.257 OFFCURVE",
"114.909 -77 OFFCURVE",
"101.47 -77 CURVE SMOOTH",
"87.601 -77 OFFCURVE",
"79.668 -84.73 OFFCURVE",
"80.915 -98.749 CURVE SMOOTH",
"87.143 -168.681 OFFCURVE",
"125.406 -200 OFFCURVE",
"203 -200 CURVE SMOOTH"
);
},
{
closed = 1;
nodes = (
"293 0 LINE SMOOTH",
"425.372 0 OFFCURVE",
"482.455 51.96 OFFCURVE",
"491.981 149.485 CURVE SMOOTH",
"493.332 163.337 OFFCURVE",
"504.366 171 OFFCURVE",
"490.493 171 CURVE SMOOTH",
"477.013 171 OFFCURVE",
"469.833 164.063 OFFCURVE",
"469.833 150.664 CURVE SMOOTH",
"469.833 78.028 OFFCURVE",
"402.427 42 OFFCURVE",
"293 42 CURVE SMOOTH",
"255 42 LINE SMOOTH",
"156.789 42 OFFCURVE",
"122 76.55 OFFCURVE",
"122 174 CURVE SMOOTH",
"122 286 LINE SMOOTH",
"122 385.308 OFFCURVE",
"156.567 419.894 OFFCURVE",
"254.809 419 CURVE SMOOTH",
"337 419 LINE SMOOTH",
"427.945 419 OFFCURVE",
"470.401 389.344 OFFCURVE",
"470.401 307.094 CURVE SMOOTH",
"470.401 293.305 OFFCURVE",
"477.182 286 OFFCURVE",
"490.696 286 CURVE SMOOTH",
"504.483 286 OFFCURVE",
"493.208 293.643 OFFCURVE",
"492.395 307.63 CURVE SMOOTH",
"486.204 414.049 OFFCURVE",
"451.245 461 OFFCURVE",
"337 461 CURVE SMOOTH",
"255 461 LINE SMOOTH",
"133.398 462.106 OFFCURVE",
"80 408.742 OFFCURVE",
"80 286 CURVE SMOOTH",
"80 174 LINE SMOOTH",
"80 53.127 OFFCURVE",
"133.45 0 OFFCURVE",
"255 0 CURVE SMOOTH"
);
}
);
width = 592;
},
{
anchors = (
{
name = bottom;
position = "{311, -200}";
},
{
name = top;
position = "{309, 494}";
}
);
background = {
paths = (
{
closed = 0;
nodes = (
"506 494 LINE",
"506 -77 LINE",
"506 -151 OFFCURVE",
"477 -179 OFFCURVE",
"404 -179 CURVE",
"218 -179 LINE",
"145 -179 OFFCURVE",
"116 -151 OFFCURVE",
"116 -77 CURVE"
);
},
{
closed = 0;
nodes = (
"506 304 LINE",
"506 414 OFFCURVE",
"462 458 OFFCURVE",
"352 458 CURVE",
"270 458 LINE",
"160 459 OFFCURVE",
"116 415 OFFCURVE",
"116 304 CURVE",
"116 189 LINE",
"116 80 OFFCURVE",
"160 36 OFFCURVE",
"270 36 CURVE",
"308 36 LINE",
"423 36 OFFCURVE",
"506 76 OFFCURVE",
"506 186 CURVE"
);
}
);
};
layerId = "3776B938-A14A-42B9-91A8-ACB6A1608662";
paths = (
{
closed = 1;
nodes = (
"404 -200 LINE SMOOTH",
"498 -200 OFFCURVE",
"542 -156 OFFCURVE",
"542 -62 CURVE SMOOTH",
"542 458 LINE SMOOTH",
"542 481.4 OFFCURVE",
"529.4 494 OFFCURVE",
"506 494 CURVE SMOOTH",
"482.6 494 OFFCURVE",
"470 481.4 OFFCURVE",
"470 458 CURVE SMOOTH",
"470 -62 LINE SMOOTH",
"470 -115 OFFCURVE",
"457 -128 OFFCURVE",
"404 -128 CURVE SMOOTH",
"218 -128 LINE SMOOTH",
"179 -128 OFFCURVE",
"162 -121 OFFCURVE",
"155 -97 CURVE SMOOTH",
"148 -74 OFFCURVE",
"140 -62 OFFCURVE",
"118 -62 CURVE SMOOTH",
"93 -62 OFFCURVE",
"79 -76 OFFCURVE",
"83 -100 CURVE SMOOTH",
"94 -168 OFFCURVE",
"138 -200 OFFCURVE",
"218 -200 CURVE SMOOTH"
);
},
{
closed = 1;
nodes = (
"308 0 LINE SMOOTH",
"423.865 0 OFFCURVE",
"494.921 55.643 OFFCURVE",
"509.019 158.656 CURVE SMOOTH",
"509.536 176.103 OFFCURVE",
"507.662 186 OFFCURVE",
"504.537 186 CURVE SMOOTH",
"481.468 186 OFFCURVE",
"470.207 175.075 OFFCURVE",
"470.207 152.51 CURVE SMOOTH",
"470.207 97.21 OFFCURVE",
"402.207 72 OFFCURVE",
"308 72 CURVE SMOOTH",
"270 72 LINE SMOOTH",
"179.889 72 OFFCURVE",
"152 100.353 OFFCURVE",
"152 189 CURVE SMOOTH",
"152 304 LINE SMOOTH",
"152 395.176 OFFCURVE",
"180.283 422.814 OFFCURVE",
"269.673 422.001 CURVE SMOOTH",
"352 422 LINE SMOOTH",
"428.471 422 OFFCURVE",
"470.078 401.734 OFFCURVE",
"470.078 339.637 CURVE SMOOTH",
"470.078 316.162 OFFCURVE",
"482.053 304 OFFCURVE",
"505.008 304 CURVE SMOOTH",
"508.497 304 OFFCURVE",
"510.512 313.76 OFFCURVE",
"510.141 331.368 CURVE SMOOTH",
"500.874 442.348 OFFCURVE",
"450.179 494 OFFCURVE",
"352 494 CURVE SMOOTH",
"270 494 LINE SMOOTH",
"139.872 495.184 OFFCURVE",
"80 434.716 OFFCURVE",
"80 304 CURVE SMOOTH",
"80 189 LINE SMOOTH",
"80 59.853 OFFCURVE",
"140.197 0 OFFCURVE",
"270 0 CURVE SMOOTH"
);
}
);
width = 632;
},
{
anchors = (
{
name = bottom;
position = "{296, 0}";
},
{
name = top;
position = "{285, 461}";
}
);
associatedMasterId = "B309FD91-69BF-47D2-8142-D25EBE917F3C";
background = {
paths = (
{
closed = 1;
nodes = (
"155 -205 OFFCURVE",
"157 -205 OFFCURVE",
"158 -205 CURVE",
"421 -205 LINE SMOOTH",
"488 -205 OFFCURVE",
"507 -177 OFFCURVE",
"507 -92 CURVE SMOOTH",
"507 438 LINE SMOOTH",
"507 478 OFFCURVE",
"465 478 OFFCURVE",
"465 438 CURVE SMOOTH",
"465 389 LINE",
"429 437 OFFCURVE",
"374 461 OFFCURVE",
"300 461 CURVE SMOOTH",
"271 461 LINE SMOOTH",
"130 461 OFFCURVE",
"63 426 OFFCURVE",
"63 286 CURVE SMOOTH",
"63 175 LINE SMOOTH",
"63 35 OFFCURVE",
"130 0 OFFCURVE",
"271 0 CURVE SMOOTH",
"412 0 LINE SMOOTH",
"435 0 OFFCURVE",
"452 3 OFFCURVE",
"465 9 CURVE",
"465 -108 LINE SMOOTH",
"465 -151 OFFCURVE",
"455 -163 OFFCURVE",
"414 -163 CURVE SMOOTH",
"165 -163 LINE SMOOTH",
"120 -163 OFFCURVE",
"105 -143 OFFCURVE",
"105 -100 CURVE SMOOTH",
"105 -79 OFFCURVE",
"98 -68 OFFCURVE",
"84 -68 CURVE SMOOTH",
"56 -68 OFFCURVE",
"58 -129 OFFCURVE",
"79 -173 CURVE SMOOTH",
"89 -194 OFFCURVE",
"114 -205 OFFCURVE",
"154 -205 CURVE"
);
},
{
closed = 1;
nodes = (
"158 42 OFFCURVE",
"105 53 OFFCURVE",
"105 175 CURVE SMOOTH",
"105 286 LINE SMOOTH",
"105 408 OFFCURVE",
"158 419 OFFCURVE",
"271 419 CURVE SMOOTH",
"300 419 LINE SMOOTH",
"405 419 OFFCURVE",
"465 352 OFFCURVE",
"465 232 CURVE SMOOTH",
"465 106 LINE SMOOTH",
"465 59 OFFCURVE",
"450 42 OFFCURVE",
"405 42 CURVE SMOOTH",
"271 42 LINE SMOOTH"
);
}
);
};
layerId = "FAB23456-447C-4F89-8303-7A2E7D153F97";
name = Straight;
paths = (
{
closed = 1;
nodes = (
"338 -203 LINE SMOOTH",
"422.887 -203 OFFCURVE",
"461 -164.552 OFFCURVE",
"461 -79 CURVE SMOOTH",
"461 441 LINE SMOOTH",
"461 452.598 OFFCURVE",
"451.598 462 OFFCURVE",
"440 462 CURVE SMOOTH",
"428.402 462 OFFCURVE",
"419 452.598 OFFCURVE",
"419 441 CURVE SMOOTH",
"419 403 LINE",
"391 447 OFFCURVE",
"349.456 461 OFFCURVE",
"290 461 CURVE SMOOTH",
"200 461 LINE SMOOTH",
"78.334 462.127 OFFCURVE",
"29 411.602 OFFCURVE",
"29 286 CURVE SMOOTH",
"29 170 LINE SMOOTH",
"29 50.611 OFFCURVE",
"80.93 -1 OFFCURVE",
"201 -1 CURVE SMOOTH",
"419 0.824 LINE",
"419 -79 LINE SMOOTH",
"419 -141.579 OFFCURVE",
"399.124 -161 OFFCURVE",
"338 -161 CURVE SMOOTH",
"152 -161 LINE SMOOTH",
"90.876 -161 OFFCURVE",
"71 -141.579 OFFCURVE",
"71 -79 CURVE SMOOTH",
"71 -67.402 OFFCURVE",
"61.598 -58 OFFCURVE",
"50 -58 CURVE SMOOTH",
"38.402 -58 OFFCURVE",
"29 -67.402 OFFCURVE",
"29 -79 CURVE SMOOTH",
"29 -164.552 OFFCURVE",
"67.113 -203 OFFCURVE",
"152 -203 CURVE SMOOTH"
);
},
{
closed = 1;
nodes = (
"104.288 41 OFFCURVE",
"71 74.054 OFFCURVE",
"71 170 CURVE SMOOTH",
"71 286 LINE SMOOTH",
"71 388.689 OFFCURVE",
"102.004 419.906 OFFCURVE",
"199.806 419.001 CURVE SMOOTH",
"290 419 LINE SMOOTH",
"388.522 419 OFFCURVE",
"419 388.127 OFFCURVE",
"419 285 CURVE SMOOTH",
"419 42.825 LINE",
"200.824 40.999 LINE SMOOTH"
);
}
);
width = 592;
},
{
associatedMasterId = "B309FD91-69BF-47D2-8142-D25EBE917F3C";
background = {
paths = (
{
closed = 1;
nodes = (
"104 -205 OFFCURVE",
"106 -205 OFFCURVE",
"107 -205 CURVE",
"370 -205 LINE SMOOTH",
"437 -205 OFFCURVE",
"456 -177 OFFCURVE",
"456 -92 CURVE SMOOTH",
"456 438 LINE SMOOTH",
"456 478 OFFCURVE",
"414 478 OFFCURVE",
"414 438 CURVE SMOOTH",
"414 389 LINE",
"378 437 OFFCURVE",
"323 461 OFFCURVE",
"249 461 CURVE SMOOTH",
"220 461 LINE SMOOTH",
"79 461 OFFCURVE",
"12 426 OFFCURVE",
"12 286 CURVE SMOOTH",
"12 175 LINE SMOOTH",
"12 35 OFFCURVE",
"79 0 OFFCURVE",
"220 0 CURVE SMOOTH",
"361 0 LINE SMOOTH",
"384 0 OFFCURVE",
"401 3 OFFCURVE",
"414 9 CURVE",
"414 -108 LINE SMOOTH",
"414 -151 OFFCURVE",
"404 -163 OFFCURVE",
"363 -163 CURVE SMOOTH",
"114 -163 LINE SMOOTH",
"69 -163 OFFCURVE",
"54 -143 OFFCURVE",
"54 -100 CURVE SMOOTH",
"54 -79 OFFCURVE",
"47 -68 OFFCURVE",
"33 -68 CURVE SMOOTH",
"5 -68 OFFCURVE",
"7 -129 OFFCURVE",
"28 -173 CURVE SMOOTH",
"38 -194 OFFCURVE",
"63 -205 OFFCURVE",
"103 -205 CURVE"
);
},
{
closed = 1;
nodes = (
"107 42 OFFCURVE",
"54 53 OFFCURVE",
"54 175 CURVE SMOOTH",
"54 286 LINE SMOOTH",
"54 408 OFFCURVE",
"107 419 OFFCURVE",
"220 419 CURVE SMOOTH",
"249 419 LINE SMOOTH",
"354 419 OFFCURVE",
"414 352 OFFCURVE",
"414 232 CURVE SMOOTH",
"414 106 LINE SMOOTH",
"414 59 OFFCURVE",
"399 42 OFFCURVE",
"354 42 CURVE SMOOTH",
"220 42 LINE SMOOTH"
);
}
);
};
layerId = "167F3DEF-A572-45E7-9D9D-968A9A380450";
name = Straight;
paths = (
{
closed = 0;
nodes = (
"440 441 LINE",
"440 -79 LINE",
"440 -153 OFFCURVE",
"411 -182 OFFCURVE",
"338 -182 CURVE",
"152 -182 LINE",
"79 -182 OFFCURVE",
"50 -153 OFFCURVE",
"50 -79 CURVE"
);
},
{
closed = 0;
nodes = (
"440 285 LINE",
"440 400 OFFCURVE",
"400 440 OFFCURVE",
"290 440 CURVE",
"200 440 LINE",
"92 441 OFFCURVE",
"50 402 OFFCURVE",
"50 286 CURVE",
"50 170 LINE",
"50 60 OFFCURVE",
"95 20 OFFCURVE",
"201 20 CURVE",
"440 22 LINE"
);
}
);
width = 490;
}
);
leftKerningGroup = o;
leftMetricsKey = o;
rightKerningGroup = u;
rightMetricsKey = n;
unicode = 0067;
},
{
color = 4;
glyphname = h;
lastChange = "2016-07-29 19:44:25 +0000";
layers = (
{
anchors = (
{
name = bottom;
position = "{316, 0}";
},
{
name = center;
position = "{151, 571}";
},
{
name = top;
position = "{114, 673}";
}
);
background = {
paths = (
{
closed = 1;
nodes = (
"504.65 0 OFFCURVE",
"512 7.35 OFFCURVE",
"512 21 CURVE SMOOTH",
"512 287 LINE SMOOTH",
"512 408.712 OFFCURVE",
"458.712 462 OFFCURVE",
"337 462 CURVE SMOOTH",
"309 462 LINE SMOOTH",
"188.773 462 OFFCURVE",
"119.671 410.04 OFFCURVE",
"111.019 312.515 CURVE SMOOTH",
"110.987 298.663 OFFCURVE",
"111.177 291 OFFCURVE",
"111.507 291 CURVE SMOOTH",
"124.987 291 OFFCURVE",
"131.573 298.032 OFFCURVE",
"133.167 311.336 CURVE SMOOTH",
"141.89 383.972 OFFCURVE",
"199.573 420 OFFCURVE",
"309 420 CURVE SMOOTH",
"337 420 LINE SMOOTH",
"435.331 420 OFFCURVE",
"470 385.331 OFFCURVE",
"470 287 CURVE SMOOTH",
"470 21 LINE SMOOTH",
"470 7.35 OFFCURVE",
"477.35 0 OFFCURVE",
"491 0 CURVE SMOOTH"
);
},
{
closed = 1;
nodes = (
"124.65 0 OFFCURVE",
"132 7.35 OFFCURVE",
"132 21 CURVE SMOOTH",
"132 669 LINE SMOOTH",
"132 682.65 OFFCURVE",
"124.65 690 OFFCURVE",
"111 690 CURVE SMOOTH",
"97.35 690 OFFCURVE",
"90 682.65 OFFCURVE",
"90 669 CURVE SMOOTH",
"90 21 LINE SMOOTH",
"90 7.35 OFFCURVE",
"97.35 0 OFFCURVE",
"111 0 CURVE SMOOTH"
);
}
);
};
layerId = "B309FD91-69BF-47D2-8142-D25EBE917F3C";
paths = (
{
closed = 1;
nodes = (
"512 21 CURVE SMOOTH",
"512 287 LINE SMOOTH",
"512 408.712 OFFCURVE",
"458.712 462 OFFCURVE",
"337 462 CURVE SMOOTH",
"309 462 LINE SMOOTH",
"188.773 462 OFFCURVE",
"119.671 410.04 OFFCURVE",
"111.019 312.515 CURVE SMOOTH",
"110.987 298.663 OFFCURVE",
"111.177 291 OFFCURVE",
"111.507 291 CURVE SMOOTH",
"124.987 291 OFFCURVE",
"131.573 298.032 OFFCURVE",
"133.167 311.336 CURVE SMOOTH",
"141.89 383.972 OFFCURVE",
"199.573 420 OFFCURVE",
"309 420 CURVE SMOOTH",
"337 420 LINE SMOOTH",
"435.331 420 OFFCURVE",
"470 385.331 OFFCURVE",
"470 287 CURVE SMOOTH",
"470 21 LINE SMOOTH",
"470 7.35 OFFCURVE",
"477.35 0 OFFCURVE",
"491 0 CURVE SMOOTH",
"505 0 OFFCURVE",
"512 7 OFFCURVE"
);
},
{
closed = 1;
nodes = (
"132 21 CURVE SMOOTH",
"132 669 LINE SMOOTH",
"132 682.65 OFFCURVE",
"124.65 690 OFFCURVE",
"111 690 CURVE SMOOTH",
"97.35 690 OFFCURVE",
"90 682.65 OFFCURVE",
"90 669 CURVE SMOOTH",
"90 21 LINE SMOOTH",
"90 7.35 OFFCURVE",
"97.35 0 OFFCURVE",
"111 0 CURVE SMOOTH",
"125 0 OFFCURVE",
"132 7 OFFCURVE"
);
}
);
width = 592;
},
{
anchors = (
{
name = bottom;
position = "{331, 0}";
},
{
name = center;
position = "{185.684, 579.918}";
},
{
name = top;
position = "{136.517, 699.781}";
}
);
background = {
paths = (
{
closed = 0;
nodes = (
"136 700 LINE",
"136 0 LINE"
);
},
{
closed = 0;
nodes = (
"516 0 LINE",
"516 304 LINE",
"516 414 OFFCURVE",
"472 458 OFFCURVE",
"362 458 CURVE",
"334 458 LINE",
"219 458 OFFCURVE",
"136 418 OFFCURVE",
"136 308 CURVE"
);
}
);
};
layerId = "3776B938-A14A-42B9-91A8-ACB6A1608662";
paths = (
{
closed = 1;
nodes = (
"552 36 CURVE SMOOTH",
"552 304 LINE SMOOTH",
"552 433.975 OFFCURVE",
"491.975 494 OFFCURVE",
"362 494 CURVE SMOOTH",
"334 494 LINE SMOOTH",
"200.843 494 OFFCURVE",
"119.182 441.864 OFFCURVE",
"102.981 345.344 CURVE SMOOTH",
"98.997 321.516 OFFCURVE",
"113.423 308 OFFCURVE",
"137.463 308 CURVE SMOOTH",
"160.532 308 OFFCURVE",
"170.367 319.588 OFFCURVE",
"175.793 341.49 CURVE SMOOTH",
"189.366 395.767 OFFCURVE",
"239.793 422 OFFCURVE",
"334 422 CURVE SMOOTH",
"362 422 LINE SMOOTH",
"451.549 422 OFFCURVE",
"480 394.209 OFFCURVE",
"480 304 CURVE SMOOTH",
"480 36 LINE SMOOTH",
"480 12.6 OFFCURVE",
"492.6 0 OFFCURVE",
"516 0 CURVE SMOOTH",
"539 0 OFFCURVE",
"552 13 OFFCURVE"
);
},
{
closed = 1;
nodes = (
"172 36 CURVE SMOOTH",
"172 664 LINE SMOOTH",
"172 687.4 OFFCURVE",
"159.4 700 OFFCURVE",
"136 700 CURVE SMOOTH",
"112.6 700 OFFCURVE",
"100 687.4 OFFCURVE",
"100 664 CURVE SMOOTH",
"100 36 LINE SMOOTH",
"100 12.6 OFFCURVE",
"112.6 0 OFFCURVE",
"136 0 CURVE SMOOTH",
"159 0 OFFCURVE",
"172 13 OFFCURVE"
);
}
);
width = 642;
}
);
leftKerningGroup = h;
leftMetricsKey = n;
rightKerningGroup = n;
rightMetricsKey = n;
unicode = 0068;
},
{
color = 1;
glyphname = i;
lastChange = "2016-07-30 22:04:30 +0000";
layers = (
{
anchors = (
{
name = bottom;
position = "{111, 0}";
}
);
background = {
paths = (
{
closed = 1;
nodes = (
"30 -16 OFFCURVE",
"72 -16 OFFCURVE",
"72 20 CURVE SMOOTH",
"72 440 LINE SMOOTH",
"72 477 OFFCURVE",
"30 477 OFFCURVE",
"30 440 CURVE SMOOTH",
"30 20 LINE SMOOTH"
);
},
{
closed = 1;
nodes = (
"5 554 OFFCURVE",
"97 554 OFFCURVE",
"97 601 CURVE SMOOTH",
"97 648 OFFCURVE",
"8 646 OFFCURVE",
"5 601 CURVE"
);
}
);
};
components = (
{
name = idotless;
},
{
name = dotaccentcomb;
transform = "{1, 0, 0, 1, -3, 0}";
}
);
guideLines = (
{
angle = 90;
position = "{124, 539}";
}
);
layerId = "B309FD91-69BF-47D2-8142-D25EBE917F3C";
width = 222;
},
{
anchors = (
{
name = bottom;
position = "{136, 0}";
}
);
background = {
paths = (
{
closed = 1;
nodes = (
"155 -22 OFFCURVE",
"167 -8 OFFCURVE",
"167 20 CURVE SMOOTH",
"167 440 LINE SMOOTH",
"167 498 OFFCURVE",
"95 498 OFFCURVE",
"95 440 CURVE SMOOTH",
"95 20 LINE SMOOTH",
"95 -11 OFFCURVE",
"111 -22 OFFCURVE",
"130 -22 CURVE SMOOTH"
);
},
{
closed = 1;
nodes = (
"236 610 OFFCURVE",
"134 686 OFFCURVE",
"90 638 CURVE",
"28 592 OFFCURVE",
"126 516 OFFCURVE",
"172 565 CURVE"
);
}
);
};
components = (
{
name = idotless;
},
{
name = dotaccentcomb;
transform = "{1, 0, 0, 1, 31, 0}";
}
);
guideLines = (
{
angle = 90;
position = "{146, 539}";
}
);
layerId = "3776B938-A14A-42B9-91A8-ACB6A1608662";
width = 272;
}
);
leftKerningGroup = idotless;
rightKerningGroup = idotless;
unicode = 0069;
},
{
color = 4;
glyphname = idotless;
lastChange = "2016-07-29 18:05:46 +0000";
layers = (
{
anchors = (
{
name = bottom;
position = "{111, 0}";
},
{
name = ogonek;
position = "{111, 0}";
},
{
name = top;
position = "{111, 461}";
}
);
layerId = "B309FD91-69BF-47D2-8142-D25EBE917F3C";
paths = (
{
closed = 1;
nodes = (
"124.65 0 OFFCURVE",
"132 7.35 OFFCURVE",
"132 21 CURVE SMOOTH",
"132 440 LINE SMOOTH",
"132 453.65 OFFCURVE",
"124.65 461 OFFCURVE",
"111 461 CURVE SMOOTH",
"97.35 461 OFFCURVE",
"90 453.65 OFFCURVE",
"90 440 CURVE SMOOTH",
"90 21 LINE SMOOTH",
"90 7.35 OFFCURVE",
"97.35 0 OFFCURVE",
"111 0 CURVE SMOOTH"
);
}
);
width = 222;
},
{
anchors = (
{
name = bottom;
position = "{135, 0}";
},
{
name = ogonek;
position = "{116, 5}";
},
{
name = top;
position = "{135, 494}";
}
);
background = {
paths = (
{
closed = 0;
nodes = (
"136 494 LINE",
"136 0 LINE"
);
}
);
};
layerId = "3776B938-A14A-42B9-91A8-ACB6A1608662";
paths = (
{
closed = 1;
nodes = (
"159 0 OFFCURVE",
"172 13 OFFCURVE",
"172 36 CURVE SMOOTH",
"172 458 LINE SMOOTH",
"172 481 OFFCURVE",
"159 494 OFFCURVE",
"136 494 CURVE SMOOTH",
"113 494 OFFCURVE",
"100 481 OFFCURVE",
"100 458 CURVE SMOOTH",
"100 36 LINE SMOOTH",
"100 13 OFFCURVE",
"113 0 OFFCURVE",
"136 0 CURVE SMOOTH"
);
}
);
width = 272;
}
);
leftKerningGroup = n;
leftMetricsKey = n;
rightKerningGroup = u;
rightMetricsKey = u;
unicode = 0131;
},
{
color = 1;
glyphname = j;
lastChange = "2016-07-30 22:04:33 +0000";
layers = (
{
background = {
paths = (
{
closed = 1;
nodes = (
"3 -175 OFFCURVE",
"44 -170 OFFCURVE",
"84 -146 CURVE SMOOTH",
"123 -123 OFFCURVE",
"142 -75 OFFCURVE",
"142 0 CURVE SMOOTH",
"142 437 LINE SMOOTH",
"142 478 OFFCURVE",
"100 478 OFFCURVE",
"100 437 CURVE SMOOTH",
"100 0 LINE SMOOTH",
"100 -122 OFFCURVE",
"47 -133 OFFCURVE",
"-66 -133 CURVE SMOOTH",
"-107 -133 OFFCURVE",
"-107 -175 OFFCURVE",
"-66 -175 CURVE SMOOTH"
);
},
{
closed = 1;
nodes = (
"126 540 OFFCURVE",
"199 596 OFFCURVE",
"152 626 CURVE",
"119 662 OFFCURVE",
"42 606 OFFCURVE",
"91 576 CURVE"
);
},
{
closed = 1;
nodes = (
"135 0 OFFCURVE",
"142 7 OFFCURVE",
"142 21 CURVE SMOOTH",
"142 440 LINE SMOOTH",
"142 454 OFFCURVE",
"135 461 OFFCURVE",
"121 461 CURVE SMOOTH",
"107 461 OFFCURVE",
"100 454 OFFCURVE",
"100 440 CURVE SMOOTH",
"100 21 LINE SMOOTH",
"100 7 OFFCURVE",
"107 0 OFFCURVE",
"121 0 CURVE SMOOTH"
);
}
);
};
components = (
{
name = jdotless;
},
{
name = dotaccentcomb;
transform = "{1, 0, 0, 1, -3, 0}";
}
);
layerId = "B309FD91-69BF-47D2-8142-D25EBE917F3C";
width = 222;
},
{
background = {
paths = (
{
closed = 1;
nodes = (
"126 -175 OFFCURVE",
"197 -140 OFFCURVE",
"197 0 CURVE SMOOTH",
"197 422 LINE SMOOTH",
"197 453 OFFCURVE",
"185 468 OFFCURVE",
"161 468 CURVE SMOOTH",
"137 468 OFFCURVE",
"125 453 OFFCURVE",
"125 422 CURVE SMOOTH",
"125 0 LINE SMOOTH",
"125 -89 OFFCURVE",
"94 -103 OFFCURVE",
"-26 -103 CURVE SMOOTH",
"-57 -103 OFFCURVE",
"-72 -115 OFFCURVE",
"-72 -139 CURVE SMOOTH",
"-72 -163 OFFCURVE",
"-57 -175 OFFCURVE",
"-26 -175 CURVE SMOOTH"
);
},
{
closed = 1;
nodes = (
"266 610 OFFCURVE",
"164 686 OFFCURVE",
"120 638 CURVE",
"58 592 OFFCURVE",
"156 516 OFFCURVE",
"202 565 CURVE"
);
}
);
};
components = (
{
name = jdotless;
},
{
name = dotaccentcomb;
transform = "{1, 0, 0, 1, 32, 0}";
}
);
layerId = "3776B938-A14A-42B9-91A8-ACB6A1608662";
width = 272;
}
);
leftKerningGroup = jdotless;
rightKerningGroup = jdotless;
rightMetricsKey = i;
unicode = 006A;
},
{
color = 4;
glyphname = jdotless;
lastChange = "2016-07-29 18:05:46 +0000";
layers = (
{
anchors = (
{
name = bottom;
position = "{42, -200}";
},
{
name = top;
position = "{111, 461}";
}
);
background = {
paths = (
{
closed = 1;
nodes = (
"97 -193 OFFCURVE",
"132 -152 OFFCURVE",
"132 -69 CURVE SMOOTH",
"132 440 LINE SMOOTH",
"132 454 OFFCURVE",
"124 461 OFFCURVE",
"111 461 CURVE SMOOTH",
"97 461 OFFCURVE",
"90 454 OFFCURVE",
"90 440 CURVE SMOOTH",
"90 -69 LINE SMOOTH",
"90 -128 OFFCURVE",
"72 -152 OFFCURVE",
"22 -157 CURVE SMOOTH",
"8 -158 OFFCURVE",
"1 -165 OFFCURVE",
"1 -179 CURVE SMOOTH",
"1 -192 OFFCURVE",
"8 -200 OFFCURVE",
"22 -199 CURVE SMOOTH"
);
}
);
};
layerId = "B309FD91-69BF-47D2-8142-D25EBE917F3C";
paths = (
{
closed = 1;
nodes = (
"-22 -193 OFFCURVE",
"-11 -200 OFFCURVE",
"1 -200 CURVE SMOOTH",
"91 -200 OFFCURVE",
"132 -159 OFFCURVE",
"132 -69 CURVE SMOOTH",
"132 440 LINE SMOOTH",
"132 454 OFFCURVE",
"124 461 OFFCURVE",
"111 461 CURVE SMOOTH",
"97 461 OFFCURVE",
"90 454 OFFCURVE",
"90 440 CURVE SMOOTH",
"90 -69 LINE SMOOTH",
"90 -136 OFFCURVE",
"68 -158 OFFCURVE",
"1 -158 CURVE SMOOTH",
"-11 -158 OFFCURVE",
"-22 -165 OFFCURVE",
"-22 -179 CURVE SMOOTH"
);
}
);
width = 222;
},
{
anchors = (
{
name = bottom;
position = "{26, -200}";
},
{
name = top;
position = "{136, 494}";
}
);
background = {
paths = (
{
closed = 0;
nodes = (
"136 494 LINE",
"136 -54 LINE SMOOTH",
"136 -133 OFFCURVE",
"105 -164 OFFCURVE",
"26 -164 CURVE",
"-10 -164 LINE"
);
}
);
};
layerId = "3776B938-A14A-42B9-91A8-ACB6A1608662";
paths = (
{
closed = 1;
nodes = (
"-10 -187 OFFCURVE",
"2 -200 OFFCURVE",
"26 -200 CURVE SMOOTH",
"125 -200 OFFCURVE",
"172 -153 OFFCURVE",
"172 -54 CURVE SMOOTH",
"172 458 LINE SMOOTH",
"172 481 OFFCURVE",
"159 494 OFFCURVE",
"136 494 CURVE SMOOTH",
"113 494 OFFCURVE",
"100 481 OFFCURVE",
"100 458 CURVE SMOOTH",
"100 -54 LINE SMOOTH",
"100 -112 OFFCURVE",
"84 -128 OFFCURVE",
"26 -128 CURVE SMOOTH",
"3 -128 OFFCURVE",
"-10 -141 OFFCURVE",
"-10 -164 CURVE SMOOTH"
);
}
);
width = 272;
}
);
leftKerningGroup = jdotless;
rightKerningGroup = jdotless;
rightMetricsKey = idotless;
unicode = 0237;
},
